<svg xmlns="http://www.w3.org/2000/svg" version="1.1" xmlns:xlink="http://www.w3.org/1999/xlink" xmlns:svgjs="http://svgjs.dev/svgjs" width="1440" height="560" preserveAspectRatio="none" viewBox="0 0 1440 560"><g mask="url(&quot;#SvgjsMask1031&quot;)" fill="none"><rect width="1440" height="560" x="0" y="0" fill="rgba(41, 36, 37, 1)"></rect><path d="M732.32 454.62 a143.24 143.24 0 1 0 286.48 0 a143.24 143.24 0 1 0 -286.48 0z" fill="rgba(255, 255, 255, 0.1)" class="triangle-float2"></path><path d="M510.533,230.32C536.506,229.615,556,209.907,569.442,187.671C583.509,164.401,594.108,136.765,581.719,112.56C568.429,86.595,539.697,73.134,510.533,72.579C480.298,72.004,448.994,83.221,434.494,109.758C420.438,135.482,430.177,166.23,445.815,191.024C460.245,213.903,483.493,231.054,510.533,230.32" fill="rgba(255, 255, 255, 0.1)" class="triangle-float2"></path><path d="M1079.839726335655 447.5189347300188L1140.732408369547 357.2418210785135 1050.4552947180418 296.34913904462155 989.5626126841498 386.6262526961268z" fill="rgba(255, 255, 255, 0.1)" class="triangle-float1"></path><path d="M453.3438004231231 307.95784607612137L321.3664786401174 378.1314328335675 391.54006539756347 510.10875461657326 523.5173871805692 439.9351678591271z" fill="rgba(255, 255, 255, 0.1)" class="triangle-float2"></path><path d="M236.86 122.07 a137.81 137.81 0 1 0 275.62 0 a137.81 137.81 0 1 0 -275.62 0z" fill="rgba(255, 255, 255, 0.1)" class="triangle-float2"></path><path d="M1493.099,414.77C1548.236,417.914,1597.302,382.092,1625.145,334.397C1653.237,286.276,1660.802,225.626,1631.002,178.543C1602.79,133.969,1545.732,122.222,1493.099,125.766C1447.007,128.869,1406.438,154.792,1384.001,195.173C1362.22,234.373,1364.838,280.531,1384.791,320.693C1407.595,366.594,1441.928,411.852,1493.099,414.77" fill="rgba(255, 255, 255, 0.1)" class="triangle-float2"></path><path d="M233.405,244.072C268.976,244.671,298.875,219.751,316.125,188.637C332.815,158.532,335.106,121.905,317.546,92.299C300.313,63.245,267.16,47.875,233.405,49.172C201.789,50.387,175.445,70.882,159.766,98.363C144.243,125.569,141.248,157.973,155.376,185.929C171.057,216.957,198.645,243.486,233.405,244.072" fill="rgba(255, 255, 255, 0.1)" class="triangle-float2"></path><path d="M686.5366202653285 360.91431338131724L600.4506847587472 246.67441845295994 486.2107898303899 332.7603539595412 572.2967253369711 447.0002488878985z" fill="rgba(255, 255, 255, 0.1)" class="triangle-float3"></path><path d="M933.84 20.49 a93.46 93.46 0 1 0 186.92 0 a93.46 93.46 0 1 0 -186.92 0z" fill="rgba(255, 255, 255, 0.1)" class="triangle-float3"></path><path d="M1229.2690350482667 38.43332436662478L1115.1248403335526 152.57751908133895 1229.2690350482667 266.7217137960531 1343.4132297629808 152.57751908133892z" fill="rgba(255, 255, 255, 0.1)" class="triangle-float3"></path><path d="M642.21 362.1 a131.64 131.64 0 1 0 263.28 0 a131.64 131.64 0 1 0 -263.28 0z" fill="rgba(255, 255, 255, 0.1)" class="triangle-float3"></path><path d="M1049.0587283178181 346.1976572785963L980.3492607314756 198.8497285351577 901.7107995743795 414.90712486493874z" fill="rgba(255, 255, 255, 0.1)" class="triangle-float3"></path><path d="M653.6710061920244 110.07840295958846L606.3862305994536 39.97584026115908 536.2836679010242 87.26061585372992 583.5684434935949 157.3631785521593z" fill="rgba(255, 255, 255, 0.1)" class="triangle-float1"></path><path d="M479.505,201.026C505.403,201.485,530.938,190.242,543.972,167.858C557.082,145.345,555.691,116.673,541.254,94.987C528.14,75.288,503.16,71.713,479.505,71.017C454.048,70.268,424.863,69.714,411.124,91.158C396.691,113.685,404.743,142.926,418.88,165.64C432.132,186.932,454.43,200.581,479.505,201.026" fill="rgba(255, 255, 255, 0.1)" class="triangle-float3"></path><path d="M875.33 196.48 a120.14 120.14 0 1 0 240.28 0 a120.14 120.14 0 1 0 -240.28 0z" fill="rgba(255, 255, 255, 0.1)" class="triangle-float1"></path><path d="M821.89 342.98 a112.74 112.74 0 1 0 225.48 0 a112.74 112.74 0 1 0 -225.48 0z" fill="rgba(255, 255, 255, 0.1)" class="triangle-float3"></path><path d="M81.23 322.41 a183.78 183.78 0 1 0 367.56 0 a183.78 183.78 0 1 0 -367.56 0z" fill="rgba(255, 255, 255, 0.1)" class="triangle-float3"></path><path d="M190.76695416814113 241.99207232981436L175.18105375477617 352.12980741576274 265.95956376008974 317.28320227062017z" fill="rgba(255, 255, 255, 0.1)" class="triangle-float1"></path><path d="M248.83 49.66 a114.73 114.73 0 1 0 229.46 0 a114.73 114.73 0 1 0 -229.46 0z" fill="rgba(255, 255, 255, 0.1)" class="triangle-float3"></path><path d="M777.4640581810996 398.17903404979205L618.3264436263652 434.7591372365132 713.8375852592658 540.8350064396362z" fill="rgba(255, 255, 255, 0.1)" class="triangle-float3"></path></g><defs><mask id="SvgjsMask1031"><rect width="1440" height="560" fill="#ffffff"></rect></mask><style>
                @keyframes float1 {
                    0%{transform: translate(0, 0)}
                    50%{transform: translate(-10px, 0)}
                    100%{transform: translate(0, 0)}
                }

                .triangle-float1 {
                    animation: float1 5s infinite;
                }

                @keyframes float2 {
                    0%{transform: translate(0, 0)}
                    50%{transform: translate(-5px, -5px)}
                    100%{transform: translate(0, 0)}
                }

                .triangle-float2 {
                    animation: float2 4s infinite;
                }

                @keyframes float3 {
                    0%{transform: translate(0, 0)}
                    50%{transform: translate(0, -10px)}
                    100%{transform: translate(0, 0)}
                }

                .triangle-float3 {
                    animation: float3 6s infinite;
                }
            </style></defs></svg>