<svg width="882" height="603" viewBox="0 0 882 603" fill="none" xmlns="http://www.w3.org/2000/svg">
<rect x="441" y="538" width="27.5625" height="27.5625" fill="#93AAB5"/>
<path d="M455.565 547.016V557.016H454.445V548.408L452.445 549L452.189 548.376L454.797 547.016H455.565Z" fill="#DEE3E6"/>
<rect x="551.25" y="538" width="27.5625" height="27.5625" fill="#93AAB5"/>
<path d="M565.815 547.016V557.016H564.695V548.408L562.695 549L562.439 548.376L565.047 547.016H565.815Z" fill="#DEE3E6"/>
<rect x="496.125" y="538" width="27.5625" height="27.5625" fill="#93AAB5"/>
<path d="M510.69 547.016V557.016H509.57V548.408L507.57 549L507.314 548.376L509.922 547.016H510.69Z" fill="#DEE3E6"/>
<rect x="606.375" y="538" width="27.5625" height="27.5625" fill="#93AAB5"/>
<path d="M620.94 547.016V557.016H619.82V548.408L617.82 549L617.564 548.376L620.172 547.016H620.94Z" fill="#DEE3E6"/>
<rect x="468.562" y="538" width="27.5625" height="27.5625" fill="#DEE3E6"/>
<path d="M483.128 547.016V557.016H482.008V548.408L480.008 549L479.752 548.376L482.36 547.016H483.128Z" fill="#93AAB5"/>
<rect x="578.812" y="538" width="27.5625" height="27.5625" fill="#DEE3E6"/>
<path d="M593.378 547.016V557.016H592.258V548.408L590.258 549L590.002 548.376L592.61 547.016H593.378Z" fill="#93AAB5"/>
<rect x="523.688" y="538" width="27.5625" height="27.5625" fill="#DEE3E6"/>
<path d="M537.485 546.968C539.021 546.968 540.669 548.776 540.669 552.184C540.669 555.608 538.941 557.176 537.501 557.176C535.917 557.176 534.269 555.32 534.269 552.088C534.269 548.904 535.901 546.968 537.485 546.968ZM539.053 549.24C538.621 548.36 538.013 547.944 537.469 547.944C536.477 547.944 535.309 549.352 535.309 551.896C535.309 552.6 535.389 553.24 535.533 553.784L539.053 549.24ZM539.421 550.312L535.901 554.792C536.333 555.672 536.957 556.152 537.549 556.152C538.429 556.152 539.629 555.096 539.629 552.312C539.629 551.544 539.549 550.872 539.421 550.312Z" fill="#93AAB5"/>
<rect x="633.938" y="538" width="27.5625" height="27.5625" fill="#DEE3E6"/>
<path d="M648.503 547.016V557.016H647.383V548.408L645.383 549L645.127 548.376L647.735 547.016H648.503Z" fill="#93AAB5"/>
<rect x="854.438" y="538" width="27.5625" height="27.5625" fill="#93AAB5"/>
<path d="M868.235 546.968C869.771 546.968 871.419 548.776 871.419 552.184C871.419 555.608 869.691 557.176 868.251 557.176C866.667 557.176 865.019 555.32 865.019 552.088C865.019 548.904 866.651 546.968 868.235 546.968ZM869.803 549.24C869.371 548.36 868.763 547.944 868.219 547.944C867.227 547.944 866.059 549.352 866.059 551.896C866.059 552.6 866.139 553.24 866.283 553.784L869.803 549.24ZM870.171 550.312L866.651 554.792C867.083 555.672 867.707 556.152 868.299 556.152C869.179 556.152 870.379 555.096 870.379 552.312C870.379 551.544 870.299 550.872 870.171 550.312Z" fill="#DEE3E6"/>
<rect x="744.188" y="538" width="27.5625" height="27.5625" fill="#93AAB5"/>
<path d="M757.985 546.968C759.521 546.968 761.169 548.776 761.169 552.184C761.169 555.608 759.441 557.176 758.001 557.176C756.417 557.176 754.769 555.32 754.769 552.088C754.769 548.904 756.401 546.968 757.985 546.968ZM759.553 549.24C759.121 548.36 758.513 547.944 757.969 547.944C756.977 547.944 755.809 549.352 755.809 551.896C755.809 552.6 755.889 553.24 756.033 553.784L759.553 549.24ZM759.921 550.312L756.401 554.792C756.833 555.672 757.457 556.152 758.049 556.152C758.929 556.152 760.129 555.096 760.129 552.312C760.129 551.544 760.049 550.872 759.921 550.312Z" fill="#DEE3E6"/>
<rect x="689.062" y="538" width="27.5625" height="27.5625" fill="#93AAB5"/>
<path d="M702.86 546.968C704.396 546.968 706.044 548.776 706.044 552.184C706.044 555.608 704.316 557.176 702.876 557.176C701.292 557.176 699.644 555.32 699.644 552.088C699.644 548.904 701.276 546.968 702.86 546.968ZM704.428 549.24C703.996 548.36 703.388 547.944 702.844 547.944C701.852 547.944 700.684 549.352 700.684 551.896C700.684 552.6 700.764 553.24 700.908 553.784L704.428 549.24ZM704.796 550.312L701.276 554.792C701.708 555.672 702.332 556.152 702.924 556.152C703.804 556.152 705.004 555.096 705.004 552.312C705.004 551.544 704.924 550.872 704.796 550.312Z" fill="#DEE3E6"/>
<rect x="799.312" y="538" width="27.5625" height="27.5625" fill="#93AAB5"/>
<path d="M813.11 546.968C814.646 546.968 816.294 548.776 816.294 552.184C816.294 555.608 814.566 557.176 813.126 557.176C811.542 557.176 809.894 555.32 809.894 552.088C809.894 548.904 811.526 546.968 813.11 546.968ZM814.678 549.24C814.246 548.36 813.638 547.944 813.094 547.944C812.102 547.944 810.934 549.352 810.934 551.896C810.934 552.6 811.014 553.24 811.158 553.784L814.678 549.24ZM815.046 550.312L811.526 554.792C811.958 555.672 812.582 556.152 813.174 556.152C814.054 556.152 815.254 555.096 815.254 552.312C815.254 551.544 815.174 550.872 815.046 550.312Z" fill="#DEE3E6"/>
<rect x="661.5" y="538" width="27.5625" height="27.5625" fill="#DEE3E6"/>
<path d="M675.297 546.968C676.833 546.968 678.481 548.776 678.481 552.184C678.481 555.608 676.753 557.176 675.313 557.176C673.729 557.176 672.081 555.32 672.081 552.088C672.081 548.904 673.713 546.968 675.297 546.968ZM676.865 549.24C676.433 548.36 675.825 547.944 675.281 547.944C674.289 547.944 673.121 549.352 673.121 551.896C673.121 552.6 673.201 553.24 673.345 553.784L676.865 549.24ZM677.233 550.312L673.713 554.792C674.145 555.672 674.769 556.152 675.361 556.152C676.241 556.152 677.441 555.096 677.441 552.312C677.441 551.544 677.361 550.872 677.233 550.312Z" fill="#93AAB5"/>
<rect x="771.75" y="538" width="27.5625" height="27.5625" fill="#DEE3E6"/>
<path d="M785.547 546.968C787.083 546.968 788.731 548.776 788.731 552.184C788.731 555.608 787.003 557.176 785.563 557.176C783.979 557.176 782.331 555.32 782.331 552.088C782.331 548.904 783.963 546.968 785.547 546.968ZM787.115 549.24C786.683 548.36 786.075 547.944 785.531 547.944C784.539 547.944 783.371 549.352 783.371 551.896C783.371 552.6 783.451 553.24 783.595 553.784L787.115 549.24ZM787.483 550.312L783.963 554.792C784.395 555.672 785.019 556.152 785.611 556.152C786.491 556.152 787.691 555.096 787.691 552.312C787.691 551.544 787.611 550.872 787.483 550.312Z" fill="#93AAB5"/>
<rect x="716.625" y="538" width="27.5625" height="27.5625" fill="#DEE3E6"/>
<path d="M730.422 546.968C731.958 546.968 733.606 548.776 733.606 552.184C733.606 555.608 731.878 557.176 730.438 557.176C728.854 557.176 727.206 555.32 727.206 552.088C727.206 548.904 728.838 546.968 730.422 546.968ZM731.99 549.24C731.558 548.36 730.95 547.944 730.406 547.944C729.414 547.944 728.246 549.352 728.246 551.896C728.246 552.6 728.326 553.24 728.47 553.784L731.99 549.24ZM732.358 550.312L728.838 554.792C729.27 555.672 729.894 556.152 730.486 556.152C731.366 556.152 732.566 555.096 732.566 552.312C732.566 551.544 732.486 550.872 732.358 550.312Z" fill="#93AAB5"/>
<rect x="826.875" y="538" width="27.5625" height="27.5625" fill="#DEE3E6"/>
<path d="M840.672 546.968C842.208 546.968 843.856 548.776 843.856 552.184C843.856 555.608 842.128 557.176 840.688 557.176C839.104 557.176 837.456 555.32 837.456 552.088C837.456 548.904 839.088 546.968 840.672 546.968ZM842.24 549.24C841.808 548.36 841.2 547.944 840.656 547.944C839.664 547.944 838.496 549.352 838.496 551.896C838.496 552.6 838.576 553.24 838.72 553.784L842.24 549.24ZM842.608 550.312L839.088 554.792C839.52 555.672 840.144 556.152 840.736 556.152C841.616 556.152 842.816 555.096 842.816 552.312C842.816 551.544 842.736 550.872 842.608 550.312Z" fill="#93AAB5"/>
<rect y="538" width="27.5625" height="27.5625" fill="#93AAB5"/>
<path d="M13.7973 546.968C15.3333 546.968 16.9813 548.776 16.9813 552.184C16.9813 555.608 15.2533 557.176 13.8133 557.176C12.2293 557.176 10.5813 555.32 10.5813 552.088C10.5813 548.904 12.2133 546.968 13.7973 546.968ZM15.3653 549.24C14.9333 548.36 14.3253 547.944 13.7812 547.944C12.7893 547.944 11.6213 549.352 11.6213 551.896C11.6213 552.6 11.7013 553.24 11.8453 553.784L15.3653 549.24ZM15.7333 550.312L12.2133 554.792C12.6453 555.672 13.2693 556.152 13.8613 556.152C14.7413 556.152 15.9413 555.096 15.9413 552.312C15.9413 551.544 15.8613 550.872 15.7333 550.312Z" fill="#DEE3E6"/>
<rect x="110.25" y="538" width="27.5625" height="27.5625" fill="#93AAB5"/>
<path d="M124.047 546.968C125.583 546.968 127.231 548.776 127.231 552.184C127.231 555.608 125.503 557.176 124.063 557.176C122.479 557.176 120.831 555.32 120.831 552.088C120.831 548.904 122.463 546.968 124.047 546.968ZM125.615 549.24C125.183 548.36 124.575 547.944 124.031 547.944C123.039 547.944 121.871 549.352 121.871 551.896C121.871 552.6 121.951 553.24 122.095 553.784L125.615 549.24ZM125.983 550.312L122.463 554.792C122.895 555.672 123.519 556.152 124.111 556.152C124.991 556.152 126.191 555.096 126.191 552.312C126.191 551.544 126.111 550.872 125.983 550.312Z" fill="#DEE3E6"/>
<rect x="55.125" y="538" width="27.5625" height="27.5625" fill="#93AAB5"/>
<path d="M68.9223 546.968C70.4583 546.968 72.1063 548.776 72.1063 552.184C72.1063 555.608 70.3783 557.176 68.9383 557.176C67.3543 557.176 65.7063 555.32 65.7063 552.088C65.7063 548.904 67.3383 546.968 68.9223 546.968ZM70.4903 549.24C70.0583 548.36 69.4503 547.944 68.9062 547.944C67.9143 547.944 66.7463 549.352 66.7463 551.896C66.7463 552.6 66.8263 553.24 66.9703 553.784L70.4903 549.24ZM70.8583 550.312L67.3383 554.792C67.7703 555.672 68.3943 556.152 68.9863 556.152C69.8663 556.152 71.0663 555.096 71.0663 552.312C71.0663 551.544 70.9863 550.872 70.8583 550.312Z" fill="#DEE3E6"/>
<rect x="165.375" y="538" width="27.5625" height="27.5625" fill="#93AAB5"/>
<path d="M179.172 546.968C180.708 546.968 182.356 548.776 182.356 552.184C182.356 555.608 180.628 557.176 179.188 557.176C177.604 557.176 175.956 555.32 175.956 552.088C175.956 548.904 177.588 546.968 179.172 546.968ZM180.74 549.24C180.308 548.36 179.7 547.944 179.156 547.944C178.164 547.944 176.996 549.352 176.996 551.896C176.996 552.6 177.076 553.24 177.22 553.784L180.74 549.24ZM181.108 550.312L177.588 554.792C178.02 555.672 178.644 556.152 179.236 556.152C180.116 556.152 181.316 555.096 181.316 552.312C181.316 551.544 181.236 550.872 181.108 550.312Z" fill="#DEE3E6"/>
<rect x="27.5625" y="538" width="27.5625" height="27.5625" fill="#DEE3E6"/>
<path d="M41.3598 546.968C42.8958 546.968 44.5438 548.776 44.5438 552.184C44.5438 555.608 42.8158 557.176 41.3758 557.176C39.7918 557.176 38.1438 555.32 38.1438 552.088C38.1438 548.904 39.7758 546.968 41.3598 546.968ZM42.9278 549.24C42.4958 548.36 41.8878 547.944 41.3438 547.944C40.3518 547.944 39.1838 549.352 39.1838 551.896C39.1838 552.6 39.2638 553.24 39.4078 553.784L42.9278 549.24ZM43.2958 550.312L39.7758 554.792C40.2078 555.672 40.8318 556.152 41.4238 556.152C42.3038 556.152 43.5038 555.096 43.5038 552.312C43.5038 551.544 43.4238 550.872 43.2958 550.312Z" fill="#93AAB5"/>
<rect x="137.812" y="538" width="27.5625" height="27.5625" fill="#DEE3E6"/>
<path d="M151.61 546.968C153.146 546.968 154.794 548.776 154.794 552.184C154.794 555.608 153.066 557.176 151.626 557.176C150.042 557.176 148.394 555.32 148.394 552.088C148.394 548.904 150.026 546.968 151.61 546.968ZM153.178 549.24C152.746 548.36 152.138 547.944 151.594 547.944C150.602 547.944 149.434 549.352 149.434 551.896C149.434 552.6 149.514 553.24 149.658 553.784L153.178 549.24ZM153.546 550.312L150.026 554.792C150.458 555.672 151.082 556.152 151.674 556.152C152.554 556.152 153.754 555.096 153.754 552.312C153.754 551.544 153.674 550.872 153.546 550.312Z" fill="#93AAB5"/>
<rect x="82.6875" y="538" width="27.5625" height="27.5625" fill="#DEE3E6"/>
<path d="M97.2528 547.016V557.016H96.1328V548.408L94.1328 549L93.8768 548.376L96.4848 547.016H97.2528Z" fill="#93AAB5"/>
<rect x="192.938" y="538" width="27.5625" height="27.5625" fill="#DEE3E6"/>
<path d="M206.735 546.968C208.271 546.968 209.919 548.776 209.919 552.184C209.919 555.608 208.191 557.176 206.751 557.176C205.167 557.176 203.519 555.32 203.519 552.088C203.519 548.904 205.151 546.968 206.735 546.968ZM208.303 549.24C207.871 548.36 207.263 547.944 206.719 547.944C205.727 547.944 204.559 549.352 204.559 551.896C204.559 552.6 204.639 553.24 204.783 553.784L208.303 549.24ZM208.671 550.312L205.151 554.792C205.583 555.672 206.207 556.152 206.799 556.152C207.679 556.152 208.879 555.096 208.879 552.312C208.879 551.544 208.799 550.872 208.671 550.312Z" fill="#93AAB5"/>
<rect x="413.438" y="538" width="27.5625" height="27.5625" fill="#93AAB5"/>
<path d="M427.235 546.968C428.771 546.968 430.419 548.776 430.419 552.184C430.419 555.608 428.691 557.176 427.251 557.176C425.667 557.176 424.019 555.32 424.019 552.088C424.019 548.904 425.651 546.968 427.235 546.968ZM428.803 549.24C428.371 548.36 427.763 547.944 427.219 547.944C426.227 547.944 425.059 549.352 425.059 551.896C425.059 552.6 425.139 553.24 425.283 553.784L428.803 549.24ZM429.171 550.312L425.651 554.792C426.083 555.672 426.707 556.152 427.299 556.152C428.179 556.152 429.379 555.096 429.379 552.312C429.379 551.544 429.299 550.872 429.171 550.312Z" fill="#DEE3E6"/>
<rect x="303.188" y="538" width="27.5625" height="27.5625" fill="#93AAB5"/>
<path d="M316.985 546.968C318.521 546.968 320.169 548.776 320.169 552.184C320.169 555.608 318.441 557.176 317.001 557.176C315.417 557.176 313.769 555.32 313.769 552.088C313.769 548.904 315.401 546.968 316.985 546.968ZM318.553 549.24C318.121 548.36 317.513 547.944 316.969 547.944C315.977 547.944 314.809 549.352 314.809 551.896C314.809 552.6 314.889 553.24 315.033 553.784L318.553 549.24ZM318.921 550.312L315.401 554.792C315.833 555.672 316.457 556.152 317.049 556.152C317.929 556.152 319.129 555.096 319.129 552.312C319.129 551.544 319.049 550.872 318.921 550.312Z" fill="#DEE3E6"/>
<rect x="248.062" y="538" width="27.5625" height="27.5625" fill="#93AAB5"/>
<path d="M261.86 546.968C263.396 546.968 265.044 548.776 265.044 552.184C265.044 555.608 263.316 557.176 261.876 557.176C260.292 557.176 258.644 555.32 258.644 552.088C258.644 548.904 260.276 546.968 261.86 546.968ZM263.428 549.24C262.996 548.36 262.388 547.944 261.844 547.944C260.852 547.944 259.684 549.352 259.684 551.896C259.684 552.6 259.764 553.24 259.908 553.784L263.428 549.24ZM263.796 550.312L260.276 554.792C260.708 555.672 261.332 556.152 261.924 556.152C262.804 556.152 264.004 555.096 264.004 552.312C264.004 551.544 263.924 550.872 263.796 550.312Z" fill="#DEE3E6"/>
<rect x="358.312" y="538" width="27.5625" height="27.5625" fill="#93AAB5"/>
<path d="M372.11 546.968C373.646 546.968 375.294 548.776 375.294 552.184C375.294 555.608 373.566 557.176 372.126 557.176C370.542 557.176 368.894 555.32 368.894 552.088C368.894 548.904 370.526 546.968 372.11 546.968ZM373.678 549.24C373.246 548.36 372.638 547.944 372.094 547.944C371.102 547.944 369.934 549.352 369.934 551.896C369.934 552.6 370.014 553.24 370.158 553.784L373.678 549.24ZM374.046 550.312L370.526 554.792C370.958 555.672 371.582 556.152 372.174 556.152C373.054 556.152 374.254 555.096 374.254 552.312C374.254 551.544 374.174 550.872 374.046 550.312Z" fill="#DEE3E6"/>
<rect x="220.5" y="538" width="27.5625" height="27.5625" fill="#DEE3E6"/>
<path d="M234.297 546.968C235.833 546.968 237.481 548.776 237.481 552.184C237.481 555.608 235.753 557.176 234.313 557.176C232.729 557.176 231.081 555.32 231.081 552.088C231.081 548.904 232.713 546.968 234.297 546.968ZM235.865 549.24C235.433 548.36 234.825 547.944 234.281 547.944C233.289 547.944 232.121 549.352 232.121 551.896C232.121 552.6 232.201 553.24 232.345 553.784L235.865 549.24ZM236.233 550.312L232.713 554.792C233.145 555.672 233.769 556.152 234.361 556.152C235.241 556.152 236.441 555.096 236.441 552.312C236.441 551.544 236.361 550.872 236.233 550.312Z" fill="#93AAB5"/>
<rect x="330.75" y="538" width="27.5625" height="27.5625" fill="#DEE3E6"/>
<path d="M344.547 546.968C346.083 546.968 347.731 548.776 347.731 552.184C347.731 555.608 346.003 557.176 344.563 557.176C342.979 557.176 341.331 555.32 341.331 552.088C341.331 548.904 342.963 546.968 344.547 546.968ZM346.115 549.24C345.683 548.36 345.075 547.944 344.531 547.944C343.539 547.944 342.371 549.352 342.371 551.896C342.371 552.6 342.451 553.24 342.595 553.784L346.115 549.24ZM346.483 550.312L342.963 554.792C343.395 555.672 344.019 556.152 344.611 556.152C345.491 556.152 346.691 555.096 346.691 552.312C346.691 551.544 346.611 550.872 346.483 550.312Z" fill="#93AAB5"/>
<rect x="275.625" y="538" width="27.5625" height="27.5625" fill="#DEE3E6"/>
<path d="M289.422 546.968C290.958 546.968 292.606 548.776 292.606 552.184C292.606 555.608 290.878 557.176 289.438 557.176C287.854 557.176 286.206 555.32 286.206 552.088C286.206 548.904 287.838 546.968 289.422 546.968ZM290.99 549.24C290.558 548.36 289.95 547.944 289.406 547.944C288.414 547.944 287.246 549.352 287.246 551.896C287.246 552.6 287.326 553.24 287.47 553.784L290.99 549.24ZM291.358 550.312L287.838 554.792C288.27 555.672 288.894 556.152 289.486 556.152C290.366 556.152 291.566 555.096 291.566 552.312C291.566 551.544 291.486 550.872 291.358 550.312Z" fill="#93AAB5"/>
<rect x="385.875" y="538" width="27.5625" height="27.5625" fill="#DEE3E6"/>
<path d="M399.672 546.968C401.208 546.968 402.856 548.776 402.856 552.184C402.856 555.608 401.128 557.176 399.688 557.176C398.104 557.176 396.456 555.32 396.456 552.088C396.456 548.904 398.088 546.968 399.672 546.968ZM401.24 549.24C400.808 548.36 400.2 547.944 399.656 547.944C398.664 547.944 397.496 549.352 397.496 551.896C397.496 552.6 397.576 553.24 397.72 553.784L401.24 549.24ZM401.608 550.312L398.088 554.792C398.52 555.672 399.144 556.152 399.736 556.152C400.616 556.152 401.816 555.096 401.816 552.312C401.816 551.544 401.736 550.872 401.608 550.312Z" fill="#93AAB5"/>
<rect x="220" y="411.875" width="55.125" height="55.125" fill="#93AAB5"/>
<path d="M247.595 429.811C250.667 429.811 253.963 433.427 253.963 440.243C253.963 447.091 250.507 450.227 247.627 450.227C244.459 450.227 241.163 446.515 241.163 440.051C241.163 433.683 244.427 429.811 247.595 429.811ZM250.731 434.355C249.867 432.595 248.651 431.763 247.562 431.763C245.579 431.763 243.243 434.579 243.243 439.667C243.243 441.075 243.403 442.355 243.691 443.443L250.731 434.355ZM251.467 436.499L244.427 445.459C245.291 447.219 246.539 448.179 247.723 448.179C249.483 448.179 251.883 446.067 251.883 440.499C251.883 438.963 251.723 437.619 251.467 436.499Z" fill="#DEE3E6"/>
<rect x="220" y="301.625" width="55.125" height="55.125" fill="#93AAB5"/>
<path d="M247.595 319.561C250.667 319.561 253.963 323.177 253.963 329.993C253.963 336.841 250.507 339.977 247.627 339.977C244.459 339.977 241.163 336.265 241.163 329.801C241.163 323.433 244.427 319.561 247.595 319.561ZM250.731 324.105C249.867 322.345 248.651 321.513 247.562 321.513C245.579 321.513 243.243 324.329 243.243 329.417C243.243 330.825 243.403 332.105 243.691 333.193L250.731 324.105ZM251.467 326.249L244.427 335.209C245.291 336.969 246.539 337.929 247.723 337.929C249.483 337.929 251.883 335.817 251.883 330.249C251.883 328.713 251.723 327.369 251.467 326.249Z" fill="#DEE3E6"/>
<rect x="220" y="191.375" width="55.125" height="55.125" fill="#93AAB5"/>
<path d="M247.595 209.311C250.667 209.311 253.963 212.927 253.963 219.743C253.963 226.591 250.507 229.727 247.627 229.727C244.459 229.727 241.163 226.015 241.163 219.551C241.163 213.183 244.427 209.311 247.595 209.311ZM250.731 213.855C249.867 212.095 248.651 211.263 247.562 211.263C245.579 211.263 243.243 214.079 243.243 219.167C243.243 220.575 243.403 221.855 243.691 222.943L250.731 213.855ZM251.467 215.999L244.427 224.959C245.291 226.719 246.539 227.679 247.723 227.679C249.483 227.679 251.883 225.567 251.883 219.999C251.883 218.463 251.723 217.119 251.467 215.999Z" fill="#DEE3E6"/>
<rect x="220" y="81.125" width="55.125" height="55.125" fill="#93AAB5"/>
<path d="M247.595 99.061C250.667 99.061 253.963 102.677 253.963 109.493C253.963 116.341 250.507 119.477 247.627 119.477C244.459 119.477 241.163 115.765 241.163 109.301C241.163 102.933 244.427 99.061 247.595 99.061ZM250.731 103.605C249.867 101.845 248.651 101.013 247.562 101.013C245.579 101.013 243.243 103.829 243.243 108.917C243.243 110.325 243.403 111.605 243.691 112.693L250.731 103.605ZM251.467 105.749L244.427 114.709C245.291 116.469 246.539 117.429 247.723 117.429C249.483 117.429 251.883 115.317 251.883 109.749C251.883 108.213 251.723 106.869 251.467 105.749Z" fill="#DEE3E6"/>
<rect x="605.875" y="356.75" width="55.125" height="55.125" fill="#93AAB5"/>
<rect x="606" y="356.75" width="55.125" height="55.125" fill="#C15F5F"/>
<path d="M635.006 374.782V394.782H632.766V377.566L628.766 378.75L628.254 377.502L633.47 374.782H635.006Z" fill="#DEE3E6"/>
<rect x="605.875" y="246.5" width="55.125" height="55.125" fill="#93AAB5"/>
<path d="M633.47 264.436C636.542 264.436 639.838 268.052 639.838 274.868C639.838 281.716 636.382 284.852 633.502 284.852C630.334 284.852 627.038 281.14 627.038 274.676C627.038 268.308 630.302 264.436 633.47 264.436ZM636.606 268.98C635.742 267.22 634.526 266.388 633.438 266.388C631.454 266.388 629.118 269.204 629.118 274.292C629.118 275.7 629.278 276.98 629.566 278.068L636.606 268.98ZM637.342 271.124L630.302 280.084C631.166 281.844 632.414 282.804 633.598 282.804C635.358 282.804 637.758 280.692 637.758 275.124C637.758 273.588 637.598 272.244 637.342 271.124Z" fill="#DEE3E6"/>
<rect x="605.875" y="136.25" width="55.125" height="55.125" fill="#93AAB5"/>
<path d="M633.47 154.186C636.542 154.186 639.838 157.802 639.838 164.618C639.838 171.466 636.382 174.602 633.502 174.602C630.334 174.602 627.038 170.89 627.038 164.426C627.038 158.058 630.302 154.186 633.47 154.186ZM636.606 158.73C635.742 156.97 634.526 156.138 633.438 156.138C631.454 156.138 629.118 158.954 629.118 164.042C629.118 165.45 629.278 166.73 629.566 167.818L636.606 158.73ZM637.342 160.874L630.302 169.834C631.166 171.594 632.414 172.554 633.598 172.554C635.358 172.554 637.758 170.442 637.758 164.874C637.758 163.338 637.598 161.994 637.342 160.874Z" fill="#DEE3E6"/>
<rect x="605.875" y="26" width="55.125" height="55.125" fill="#93AAB5"/>
<path d="M633.47 43.936C636.542 43.936 639.838 47.552 639.838 54.368C639.838 61.216 636.382 64.352 633.502 64.352C630.334 64.352 627.038 60.64 627.038 54.176C627.038 47.808 630.302 43.936 633.47 43.936ZM636.606 48.48C635.742 46.72 634.526 45.888 633.438 45.888C631.454 45.888 629.118 48.704 629.118 53.792C629.118 55.2 629.278 56.48 629.566 57.568L636.606 48.48ZM637.342 50.624L630.302 59.584C631.166 61.344 632.414 62.304 633.598 62.304C635.358 62.304 637.758 60.192 637.758 54.624C637.758 53.088 637.598 51.744 637.342 50.624Z" fill="#DEE3E6"/>
<rect x="440.5" y="411.875" width="55.125" height="55.125" fill="#93AAB5"/>
<path d="M468.095 429.811C471.167 429.811 474.463 433.427 474.463 440.243C474.463 447.091 471.007 450.227 468.127 450.227C464.959 450.227 461.663 446.515 461.663 440.051C461.663 433.683 464.927 429.811 468.095 429.811ZM471.231 434.355C470.367 432.595 469.151 431.763 468.062 431.763C466.079 431.763 463.743 434.579 463.743 439.667C463.743 441.075 463.903 442.355 464.191 443.443L471.231 434.355ZM471.967 436.499L464.927 445.459C465.791 447.219 467.039 448.179 468.223 448.179C469.983 448.179 472.383 446.067 472.383 440.499C472.383 438.963 472.223 437.619 471.967 436.499Z" fill="#DEE3E6"/>
<rect x="440.5" y="301.625" width="55.125" height="55.125" fill="#93AAB5"/>
<path d="M468.095 319.561C471.167 319.561 474.463 323.177 474.463 329.993C474.463 336.841 471.007 339.977 468.127 339.977C464.959 339.977 461.663 336.265 461.663 329.801C461.663 323.433 464.927 319.561 468.095 319.561ZM471.231 324.105C470.367 322.345 469.151 321.513 468.062 321.513C466.079 321.513 463.743 324.329 463.743 329.417C463.743 330.825 463.903 332.105 464.191 333.193L471.231 324.105ZM471.967 326.249L464.927 335.209C465.791 336.969 467.039 337.929 468.223 337.929C469.983 337.929 472.383 335.817 472.383 330.249C472.383 328.713 472.223 327.369 471.967 326.249Z" fill="#DEE3E6"/>
<rect x="440.5" y="191.375" width="55.125" height="55.125" fill="#93AAB5"/>
<path d="M468.095 209.311C471.167 209.311 474.463 212.927 474.463 219.743C474.463 226.591 471.007 229.727 468.127 229.727C464.959 229.727 461.663 226.015 461.663 219.551C461.663 213.183 464.927 209.311 468.095 209.311ZM471.231 213.855C470.367 212.095 469.151 211.263 468.062 211.263C466.079 211.263 463.743 214.079 463.743 219.167C463.743 220.575 463.903 221.855 464.191 222.943L471.231 213.855ZM471.967 215.999L464.927 224.959C465.791 226.719 467.039 227.679 468.223 227.679C469.983 227.679 472.383 225.567 472.383 219.999C472.383 218.463 472.223 217.119 471.967 215.999Z" fill="#DEE3E6"/>
<rect x="440.5" y="81.125" width="55.125" height="55.125" fill="#93AAB5"/>
<path d="M468.095 99.061C471.167 99.061 474.463 102.677 474.463 109.493C474.463 116.341 471.007 119.477 468.127 119.477C464.959 119.477 461.663 115.765 461.663 109.301C461.663 102.933 464.927 99.061 468.095 99.061ZM471.231 103.605C470.367 101.845 469.151 101.013 468.062 101.013C466.079 101.013 463.743 103.829 463.743 108.917C463.743 110.325 463.903 111.605 464.191 112.693L471.231 103.605ZM471.967 105.749L464.927 114.709C465.791 116.469 467.039 117.429 468.223 117.429C469.983 117.429 472.383 115.317 472.383 109.749C472.383 108.213 472.223 106.869 471.967 105.749Z" fill="#DEE3E6"/>
<rect x="385.375" y="356.75" width="55.125" height="55.125" fill="#93AAB5"/>
<rect x="385" y="356.75" width="55.125" height="55.125" fill="#C15F5F"/>
<path d="M414.506 374.782V394.782H412.266V377.566L408.266 378.75L407.754 377.502L412.97 374.782H414.506Z" fill="#DEE3E6"/>
<rect x="385.375" y="246.5" width="55.125" height="55.125" fill="#93AAB5"/>
<path d="M412.97 264.436C416.042 264.436 419.338 268.052 419.338 274.868C419.338 281.716 415.882 284.852 413.002 284.852C409.834 284.852 406.538 281.14 406.538 274.676C406.538 268.308 409.802 264.436 412.97 264.436ZM416.106 268.98C415.242 267.22 414.026 266.388 412.938 266.388C410.954 266.388 408.618 269.204 408.618 274.292C408.618 275.7 408.778 276.98 409.066 278.068L416.106 268.98ZM416.842 271.124L409.802 280.084C410.666 281.844 411.914 282.804 413.098 282.804C414.858 282.804 417.258 280.692 417.258 275.124C417.258 273.588 417.098 272.244 416.842 271.124Z" fill="#DEE3E6"/>
<rect x="385.375" y="136.25" width="55.125" height="55.125" fill="#93AAB5"/>
<path d="M412.97 154.186C416.042 154.186 419.338 157.802 419.338 164.618C419.338 171.466 415.882 174.602 413.002 174.602C409.834 174.602 406.538 170.89 406.538 164.426C406.538 158.058 409.802 154.186 412.97 154.186ZM416.106 158.73C415.242 156.97 414.026 156.138 412.938 156.138C410.954 156.138 408.618 158.954 408.618 164.042C408.618 165.45 408.778 166.73 409.066 167.818L416.106 158.73ZM416.842 160.874L409.802 169.834C410.666 171.594 411.914 172.554 413.098 172.554C414.858 172.554 417.258 170.442 417.258 164.874C417.258 163.338 417.098 161.994 416.842 160.874Z" fill="#DEE3E6"/>
<rect x="385.375" y="26" width="55.125" height="55.125" fill="#93AAB5"/>
<path d="M412.97 43.936C416.042 43.936 419.338 47.552 419.338 54.368C419.338 61.216 415.882 64.352 413.002 64.352C409.834 64.352 406.538 60.64 406.538 54.176C406.538 47.808 409.802 43.936 412.97 43.936ZM416.106 48.48C415.242 46.72 414.026 45.888 412.938 45.888C410.954 45.888 408.618 48.704 408.618 53.792C408.618 55.2 408.778 56.48 409.066 57.568L416.106 48.48ZM416.842 50.624L409.802 59.584C410.666 61.344 411.914 62.304 413.098 62.304C414.858 62.304 417.258 60.192 417.258 54.624C417.258 53.088 417.098 51.744 416.842 50.624Z" fill="#DEE3E6"/>
<rect x="330.25" y="411.875" width="55.125" height="55.125" fill="#93AAB5"/>
<path d="M357.845 429.811C360.917 429.811 364.213 433.427 364.213 440.243C364.213 447.091 360.757 450.227 357.877 450.227C354.709 450.227 351.413 446.515 351.413 440.051C351.413 433.683 354.677 429.811 357.845 429.811ZM360.981 434.355C360.117 432.595 358.901 431.763 357.812 431.763C355.829 431.763 353.493 434.579 353.493 439.667C353.493 441.075 353.653 442.355 353.941 443.443L360.981 434.355ZM361.717 436.499L354.677 445.459C355.541 447.219 356.789 448.179 357.973 448.179C359.733 448.179 362.133 446.067 362.133 440.499C362.133 438.963 361.973 437.619 361.717 436.499Z" fill="#DEE3E6"/>
<rect x="330.25" y="301.625" width="55.125" height="55.125" fill="#93AAB5"/>
<path d="M357.845 319.561C360.917 319.561 364.213 323.177 364.213 329.993C364.213 336.841 360.757 339.977 357.877 339.977C354.709 339.977 351.413 336.265 351.413 329.801C351.413 323.433 354.677 319.561 357.845 319.561ZM360.981 324.105C360.117 322.345 358.901 321.513 357.812 321.513C355.829 321.513 353.493 324.329 353.493 329.417C353.493 330.825 353.653 332.105 353.941 333.193L360.981 324.105ZM361.717 326.249L354.677 335.209C355.541 336.969 356.789 337.929 357.973 337.929C359.733 337.929 362.133 335.817 362.133 330.249C362.133 328.713 361.973 327.369 361.717 326.249Z" fill="#DEE3E6"/>
<rect x="330.25" y="191.375" width="55.125" height="55.125" fill="#93AAB5"/>
<path d="M357.845 209.311C360.917 209.311 364.213 212.927 364.213 219.743C364.213 226.591 360.757 229.727 357.877 229.727C354.709 229.727 351.413 226.015 351.413 219.551C351.413 213.183 354.677 209.311 357.845 209.311ZM360.981 213.855C360.117 212.095 358.901 211.263 357.812 211.263C355.829 211.263 353.493 214.079 353.493 219.167C353.493 220.575 353.653 221.855 353.941 222.943L360.981 213.855ZM361.717 215.999L354.677 224.959C355.541 226.719 356.789 227.679 357.973 227.679C359.733 227.679 362.133 225.567 362.133 219.999C362.133 218.463 361.973 217.119 361.717 215.999Z" fill="#DEE3E6"/>
<rect x="330.25" y="81.125" width="55.125" height="55.125" fill="#93AAB5"/>
<path d="M357.845 99.061C360.917 99.061 364.213 102.677 364.213 109.493C364.213 116.341 360.757 119.477 357.877 119.477C354.709 119.477 351.413 115.765 351.413 109.301C351.413 102.933 354.677 99.061 357.845 99.061ZM360.981 103.605C360.117 101.845 358.901 101.013 357.812 101.013C355.829 101.013 353.493 103.829 353.493 108.917C353.493 110.325 353.653 111.605 353.941 112.693L360.981 103.605ZM361.717 105.749L354.677 114.709C355.541 116.469 356.789 117.429 357.973 117.429C359.733 117.429 362.133 115.317 362.133 109.749C362.133 108.213 361.973 106.869 361.717 105.749Z" fill="#DEE3E6"/>
<rect x="275.125" y="356.75" width="55.125" height="55.125" fill="#93AAB5"/>
<rect x="275" y="356.75" width="55.125" height="55.125" fill="#C15F5F"/>
<path d="M304.256 374.782V394.782H302.016V377.566L298.016 378.75L297.504 377.502L302.72 374.782H304.256Z" fill="#DEE3E6"/>
<rect x="275.125" y="246.5" width="55.125" height="55.125" fill="#93AAB5"/>
<path d="M302.72 264.436C305.792 264.436 309.088 268.052 309.088 274.868C309.088 281.716 305.632 284.852 302.752 284.852C299.584 284.852 296.288 281.14 296.288 274.676C296.288 268.308 299.552 264.436 302.72 264.436ZM305.856 268.98C304.992 267.22 303.776 266.388 302.688 266.388C300.704 266.388 298.368 269.204 298.368 274.292C298.368 275.7 298.528 276.98 298.816 278.068L305.856 268.98ZM306.592 271.124L299.552 280.084C300.416 281.844 301.664 282.804 302.848 282.804C304.608 282.804 307.008 280.692 307.008 275.124C307.008 273.588 306.848 272.244 306.592 271.124Z" fill="#DEE3E6"/>
<rect x="275.125" y="136.25" width="55.125" height="55.125" fill="#93AAB5"/>
<path d="M302.72 154.186C305.792 154.186 309.088 157.802 309.088 164.618C309.088 171.466 305.632 174.602 302.752 174.602C299.584 174.602 296.288 170.89 296.288 164.426C296.288 158.058 299.552 154.186 302.72 154.186ZM305.856 158.73C304.992 156.97 303.776 156.138 302.688 156.138C300.704 156.138 298.368 158.954 298.368 164.042C298.368 165.45 298.528 166.73 298.816 167.818L305.856 158.73ZM306.592 160.874L299.552 169.834C300.416 171.594 301.664 172.554 302.848 172.554C304.608 172.554 307.008 170.442 307.008 164.874C307.008 163.338 306.848 161.994 306.592 160.874Z" fill="#DEE3E6"/>
<rect x="275.125" y="26" width="55.125" height="55.125" fill="#93AAB5"/>
<path d="M302.72 43.936C305.792 43.936 309.088 47.552 309.088 54.368C309.088 61.216 305.632 64.352 302.752 64.352C299.584 64.352 296.288 60.64 296.288 54.176C296.288 47.808 299.552 43.936 302.72 43.936ZM305.856 48.48C304.992 46.72 303.776 45.888 302.688 45.888C300.704 45.888 298.368 48.704 298.368 53.792C298.368 55.2 298.528 56.48 298.816 57.568L305.856 48.48ZM306.592 50.624L299.552 59.584C300.416 61.344 301.664 62.304 302.848 62.304C304.608 62.304 307.008 60.192 307.008 54.624C307.008 53.088 306.848 51.744 306.592 50.624Z" fill="#DEE3E6"/>
<rect x="550.75" y="411.875" width="55.125" height="55.125" fill="#93AAB5"/>
<path d="M578.345 429.811C581.417 429.811 584.713 433.427 584.713 440.243C584.713 447.091 581.257 450.227 578.377 450.227C575.209 450.227 571.913 446.515 571.913 440.051C571.913 433.683 575.177 429.811 578.345 429.811ZM581.481 434.355C580.617 432.595 579.401 431.763 578.312 431.763C576.329 431.763 573.993 434.579 573.993 439.667C573.993 441.075 574.153 442.355 574.441 443.443L581.481 434.355ZM582.217 436.499L575.177 445.459C576.041 447.219 577.289 448.179 578.473 448.179C580.233 448.179 582.633 446.067 582.633 440.499C582.633 438.963 582.473 437.619 582.217 436.499Z" fill="#DEE3E6"/>
<rect x="550.75" y="301.625" width="55.125" height="55.125" fill="#93AAB5"/>
<path d="M578.345 319.561C581.417 319.561 584.713 323.177 584.713 329.993C584.713 336.841 581.257 339.977 578.377 339.977C575.209 339.977 571.913 336.265 571.913 329.801C571.913 323.433 575.177 319.561 578.345 319.561ZM581.481 324.105C580.617 322.345 579.401 321.513 578.312 321.513C576.329 321.513 573.993 324.329 573.993 329.417C573.993 330.825 574.153 332.105 574.441 333.193L581.481 324.105ZM582.217 326.249L575.177 335.209C576.041 336.969 577.289 337.929 578.473 337.929C580.233 337.929 582.633 335.817 582.633 330.249C582.633 328.713 582.473 327.369 582.217 326.249Z" fill="#DEE3E6"/>
<rect x="550.75" y="191.375" width="55.125" height="55.125" fill="#93AAB5"/>
<path d="M578.345 209.311C581.417 209.311 584.713 212.927 584.713 219.743C584.713 226.591 581.257 229.727 578.377 229.727C575.209 229.727 571.913 226.015 571.913 219.551C571.913 213.183 575.177 209.311 578.345 209.311ZM581.481 213.855C580.617 212.095 579.401 211.263 578.312 211.263C576.329 211.263 573.993 214.079 573.993 219.167C573.993 220.575 574.153 221.855 574.441 222.943L581.481 213.855ZM582.217 215.999L575.177 224.959C576.041 226.719 577.289 227.679 578.473 227.679C580.233 227.679 582.633 225.567 582.633 219.999C582.633 218.463 582.473 217.119 582.217 215.999Z" fill="#DEE3E6"/>
<rect x="550.75" y="81.125" width="55.125" height="55.125" fill="#93AAB5"/>
<path d="M578.345 99.061C581.417 99.061 584.713 102.677 584.713 109.493C584.713 116.341 581.257 119.477 578.377 119.477C575.209 119.477 571.913 115.765 571.913 109.301C571.913 102.933 575.177 99.061 578.345 99.061ZM581.481 103.605C580.617 101.845 579.401 101.013 578.312 101.013C576.329 101.013 573.993 103.829 573.993 108.917C573.993 110.325 574.153 111.605 574.441 112.693L581.481 103.605ZM582.217 105.749L575.177 114.709C576.041 116.469 577.289 117.429 578.473 117.429C580.233 117.429 582.633 115.317 582.633 109.749C582.633 108.213 582.473 106.869 582.217 105.749Z" fill="#DEE3E6"/>
<rect x="495.625" y="356.75" width="55.125" height="55.125" fill="#93AAB5"/>
<rect x="496" y="356.75" width="55.125" height="55.125" fill="#C15F5F"/>
<path d="M524.756 374.782V394.782H522.516V377.566L518.516 378.75L518.004 377.502L523.22 374.782H524.756Z" fill="#DEE3E6"/>
<rect x="495.625" y="246.5" width="55.125" height="55.125" fill="#93AAB5"/>
<path d="M523.22 264.436C526.292 264.436 529.588 268.052 529.588 274.868C529.588 281.716 526.132 284.852 523.252 284.852C520.084 284.852 516.788 281.14 516.788 274.676C516.788 268.308 520.052 264.436 523.22 264.436ZM526.356 268.98C525.492 267.22 524.276 266.388 523.188 266.388C521.204 266.388 518.868 269.204 518.868 274.292C518.868 275.7 519.028 276.98 519.316 278.068L526.356 268.98ZM527.092 271.124L520.052 280.084C520.916 281.844 522.164 282.804 523.348 282.804C525.108 282.804 527.508 280.692 527.508 275.124C527.508 273.588 527.348 272.244 527.092 271.124Z" fill="#DEE3E6"/>
<rect x="495.625" y="136.25" width="55.125" height="55.125" fill="#93AAB5"/>
<path d="M523.22 154.186C526.292 154.186 529.588 157.802 529.588 164.618C529.588 171.466 526.132 174.602 523.252 174.602C520.084 174.602 516.788 170.89 516.788 164.426C516.788 158.058 520.052 154.186 523.22 154.186ZM526.356 158.73C525.492 156.97 524.276 156.138 523.188 156.138C521.204 156.138 518.868 158.954 518.868 164.042C518.868 165.45 519.028 166.73 519.316 167.818L526.356 158.73ZM527.092 160.874L520.052 169.834C520.916 171.594 522.164 172.554 523.348 172.554C525.108 172.554 527.508 170.442 527.508 164.874C527.508 163.338 527.348 161.994 527.092 160.874Z" fill="#DEE3E6"/>
<rect x="495.625" y="26" width="55.125" height="55.125" fill="#93AAB5"/>
<path d="M523.22 43.936C526.292 43.936 529.588 47.552 529.588 54.368C529.588 61.216 526.132 64.352 523.252 64.352C520.084 64.352 516.788 60.64 516.788 54.176C516.788 47.808 520.052 43.936 523.22 43.936ZM526.356 48.48C525.492 46.72 524.276 45.888 523.188 45.888C521.204 45.888 518.868 48.704 518.868 53.792C518.868 55.2 519.028 56.48 519.316 57.568L526.356 48.48ZM527.092 50.624L520.052 59.584C520.916 61.344 522.164 62.304 523.348 62.304C525.108 62.304 527.508 60.192 527.508 54.624C527.508 53.088 527.348 51.744 527.092 50.624Z" fill="#DEE3E6"/>
<rect x="275.125" y="411.875" width="55.125" height="55.125" fill="#DEE3E6"/>
<path d="M302.72 429.811C305.792 429.811 309.088 433.427 309.088 440.243C309.088 447.091 305.632 450.227 302.752 450.227C299.584 450.227 296.288 446.515 296.288 440.051C296.288 433.683 299.552 429.811 302.72 429.811ZM305.856 434.355C304.992 432.595 303.776 431.763 302.688 431.763C300.704 431.763 298.368 434.579 298.368 439.667C298.368 441.075 298.528 442.355 298.816 443.443L305.856 434.355ZM306.592 436.499L299.552 445.459C300.416 447.219 301.664 448.179 302.848 448.179C304.608 448.179 307.008 446.067 307.008 440.499C307.008 438.963 306.848 437.619 306.592 436.499Z" fill="#93AAB5"/>
<rect x="275.125" y="301.625" width="55.125" height="55.125" fill="#DEE3E6"/>
<path d="M302.72 319.561C305.792 319.561 309.088 323.177 309.088 329.993C309.088 336.841 305.632 339.977 302.752 339.977C299.584 339.977 296.288 336.265 296.288 329.801C296.288 323.433 299.552 319.561 302.72 319.561ZM305.856 324.105C304.992 322.345 303.776 321.513 302.688 321.513C300.704 321.513 298.368 324.329 298.368 329.417C298.368 330.825 298.528 332.105 298.816 333.193L305.856 324.105ZM306.592 326.249L299.552 335.209C300.416 336.969 301.664 337.929 302.848 337.929C304.608 337.929 307.008 335.817 307.008 330.249C307.008 328.713 306.848 327.369 306.592 326.249Z" fill="#93AAB5"/>
<rect x="275.125" y="191.375" width="55.125" height="55.125" fill="#DEE3E6"/>
<path d="M302.72 209.311C305.792 209.311 309.088 212.927 309.088 219.743C309.088 226.591 305.632 229.727 302.752 229.727C299.584 229.727 296.288 226.015 296.288 219.551C296.288 213.183 299.552 209.311 302.72 209.311ZM305.856 213.855C304.992 212.095 303.776 211.263 302.688 211.263C300.704 211.263 298.368 214.079 298.368 219.167C298.368 220.575 298.528 221.855 298.816 222.943L305.856 213.855ZM306.592 215.999L299.552 224.959C300.416 226.719 301.664 227.679 302.848 227.679C304.608 227.679 307.008 225.567 307.008 219.999C307.008 218.463 306.848 217.119 306.592 215.999Z" fill="#93AAB5"/>
<rect x="275.125" y="81.125" width="55.125" height="55.125" fill="#DEE3E6"/>
<path d="M302.72 99.061C305.792 99.061 309.088 102.677 309.088 109.493C309.088 116.341 305.632 119.477 302.752 119.477C299.584 119.477 296.288 115.765 296.288 109.301C296.288 102.933 299.552 99.061 302.72 99.061ZM305.856 103.605C304.992 101.845 303.776 101.013 302.688 101.013C300.704 101.013 298.368 103.829 298.368 108.917C298.368 110.325 298.528 111.605 298.816 112.693L305.856 103.605ZM306.592 105.749L299.552 114.709C300.416 116.469 301.664 117.429 302.848 117.429C304.608 117.429 307.008 115.317 307.008 109.749C307.008 108.213 306.848 106.869 306.592 105.749Z" fill="#93AAB5"/>
<rect x="220" y="356.75" width="55.125" height="55.125" fill="#DEE3E6"/>
<rect x="220" y="356.75" width="55.125" height="55.125" fill="#C15F5F"/>
<path d="M249.131 374.782V394.782H246.891V377.566L242.891 378.75L242.379 377.502L247.595 374.782H249.131Z" fill="#93AAB5"/>
<rect x="220" y="246.5" width="55.125" height="55.125" fill="#DEE3E6"/>
<path d="M247.595 264.436C250.667 264.436 253.963 268.052 253.963 274.868C253.963 281.716 250.507 284.852 247.627 284.852C244.459 284.852 241.163 281.14 241.163 274.676C241.163 268.308 244.427 264.436 247.595 264.436ZM250.731 268.98C249.867 267.22 248.651 266.388 247.562 266.388C245.579 266.388 243.243 269.204 243.243 274.292C243.243 275.7 243.403 276.98 243.691 278.068L250.731 268.98ZM251.467 271.124L244.427 280.084C245.291 281.844 246.539 282.804 247.723 282.804C249.483 282.804 251.883 280.692 251.883 275.124C251.883 273.588 251.723 272.244 251.467 271.124Z" fill="#93AAB5"/>
<rect x="220" y="136.25" width="55.125" height="55.125" fill="#DEE3E6"/>
<path d="M247.595 154.186C250.667 154.186 253.963 157.802 253.963 164.618C253.963 171.466 250.507 174.602 247.627 174.602C244.459 174.602 241.163 170.89 241.163 164.426C241.163 158.058 244.427 154.186 247.595 154.186ZM250.731 158.73C249.867 156.97 248.651 156.138 247.562 156.138C245.579 156.138 243.243 158.954 243.243 164.042C243.243 165.45 243.403 166.73 243.691 167.818L250.731 158.73ZM251.467 160.874L244.427 169.834C245.291 171.594 246.539 172.554 247.723 172.554C249.483 172.554 251.883 170.442 251.883 164.874C251.883 163.338 251.723 161.994 251.467 160.874Z" fill="#93AAB5"/>
<rect x="220" y="26" width="55.125" height="55.125" fill="#DEE3E6"/>
<path d="M247.595 43.936C250.667 43.936 253.963 47.552 253.963 54.368C253.963 61.216 250.507 64.352 247.627 64.352C244.459 64.352 241.163 60.64 241.163 54.176C241.163 47.808 244.427 43.936 247.595 43.936ZM250.731 48.48C249.867 46.72 248.651 45.888 247.562 45.888C245.579 45.888 243.243 48.704 243.243 53.792C243.243 55.2 243.403 56.48 243.691 57.568L250.731 48.48ZM251.467 50.624L244.427 59.584C245.291 61.344 246.539 62.304 247.723 62.304C249.483 62.304 251.883 60.192 251.883 54.624C251.883 53.088 251.723 51.744 251.467 50.624Z" fill="#93AAB5"/>
<rect x="495.625" y="411.875" width="55.125" height="55.125" fill="#DEE3E6"/>
<path d="M523.22 429.811C526.292 429.811 529.588 433.427 529.588 440.243C529.588 447.091 526.132 450.227 523.252 450.227C520.084 450.227 516.788 446.515 516.788 440.051C516.788 433.683 520.052 429.811 523.22 429.811ZM526.356 434.355C525.492 432.595 524.276 431.763 523.188 431.763C521.204 431.763 518.868 434.579 518.868 439.667C518.868 441.075 519.028 442.355 519.316 443.443L526.356 434.355ZM527.092 436.499L520.052 445.459C520.916 447.219 522.164 448.179 523.348 448.179C525.108 448.179 527.508 446.067 527.508 440.499C527.508 438.963 527.348 437.619 527.092 436.499Z" fill="#93AAB5"/>
<rect x="495.625" y="301.625" width="55.125" height="55.125" fill="#DEE3E6"/>
<path d="M523.22 319.561C526.292 319.561 529.588 323.177 529.588 329.993C529.588 336.841 526.132 339.977 523.252 339.977C520.084 339.977 516.788 336.265 516.788 329.801C516.788 323.433 520.052 319.561 523.22 319.561ZM526.356 324.105C525.492 322.345 524.276 321.513 523.188 321.513C521.204 321.513 518.868 324.329 518.868 329.417C518.868 330.825 519.028 332.105 519.316 333.193L526.356 324.105ZM527.092 326.249L520.052 335.209C520.916 336.969 522.164 337.929 523.348 337.929C525.108 337.929 527.508 335.817 527.508 330.249C527.508 328.713 527.348 327.369 527.092 326.249Z" fill="#93AAB5"/>
<rect x="495.625" y="191.375" width="55.125" height="55.125" fill="#DEE3E6"/>
<path d="M523.22 209.311C526.292 209.311 529.588 212.927 529.588 219.743C529.588 226.591 526.132 229.727 523.252 229.727C520.084 229.727 516.788 226.015 516.788 219.551C516.788 213.183 520.052 209.311 523.22 209.311ZM526.356 213.855C525.492 212.095 524.276 211.263 523.188 211.263C521.204 211.263 518.868 214.079 518.868 219.167C518.868 220.575 519.028 221.855 519.316 222.943L526.356 213.855ZM527.092 215.999L520.052 224.959C520.916 226.719 522.164 227.679 523.348 227.679C525.108 227.679 527.508 225.567 527.508 219.999C527.508 218.463 527.348 217.119 527.092 215.999Z" fill="#93AAB5"/>
<rect x="495.625" y="81.125" width="55.125" height="55.125" fill="#DEE3E6"/>
<path d="M523.22 99.061C526.292 99.061 529.588 102.677 529.588 109.493C529.588 116.341 526.132 119.477 523.252 119.477C520.084 119.477 516.788 115.765 516.788 109.301C516.788 102.933 520.052 99.061 523.22 99.061ZM526.356 103.605C525.492 101.845 524.276 101.013 523.188 101.013C521.204 101.013 518.868 103.829 518.868 108.917C518.868 110.325 519.028 111.605 519.316 112.693L526.356 103.605ZM527.092 105.749L520.052 114.709C520.916 116.469 522.164 117.429 523.348 117.429C525.108 117.429 527.508 115.317 527.508 109.749C527.508 108.213 527.348 106.869 527.092 105.749Z" fill="#93AAB5"/>
<rect x="440.5" y="356.75" width="55.125" height="55.125" fill="#DEE3E6"/>
<path d="M468.095 374.686C471.167 374.686 474.463 378.302 474.463 385.118C474.463 391.966 471.007 395.102 468.127 395.102C464.959 395.102 461.663 391.39 461.663 384.926C461.663 378.558 464.927 374.686 468.095 374.686ZM471.231 379.23C470.367 377.47 469.151 376.638 468.062 376.638C466.079 376.638 463.743 379.454 463.743 384.542C463.743 385.95 463.903 387.23 464.191 388.318L471.231 379.23ZM471.967 381.374L464.927 390.334C465.791 392.094 467.039 393.054 468.223 393.054C469.983 393.054 472.383 390.942 472.383 385.374C472.383 383.838 472.223 382.494 471.967 381.374Z" fill="#93AAB5"/>
<rect x="440.5" y="246.5" width="55.125" height="55.125" fill="#DEE3E6"/>
<rect x="441" y="246.75" width="55.125" height="55.125" fill="#C15F5F"/>
<path d="M469.631 264.532V284.532H467.391V267.316L463.391 268.5L462.879 267.252L468.095 264.532H469.631Z" fill="#93AAB5"/>
<rect x="440.5" y="136.25" width="55.125" height="55.125" fill="#DEE3E6"/>
<path d="M468.095 154.186C471.167 154.186 474.463 157.802 474.463 164.618C474.463 171.466 471.007 174.602 468.127 174.602C464.959 174.602 461.663 170.89 461.663 164.426C461.663 158.058 464.927 154.186 468.095 154.186ZM471.231 158.73C470.367 156.97 469.151 156.138 468.062 156.138C466.079 156.138 463.743 158.954 463.743 164.042C463.743 165.45 463.903 166.73 464.191 167.818L471.231 158.73ZM471.967 160.874L464.927 169.834C465.791 171.594 467.039 172.554 468.223 172.554C469.983 172.554 472.383 170.442 472.383 164.874C472.383 163.338 472.223 161.994 471.967 160.874Z" fill="#93AAB5"/>
<rect x="440.5" y="26" width="55.125" height="55.125" fill="#DEE3E6"/>
<path d="M468.095 43.936C471.167 43.936 474.463 47.552 474.463 54.368C474.463 61.216 471.007 64.352 468.127 64.352C464.959 64.352 461.663 60.64 461.663 54.176C461.663 47.808 464.927 43.936 468.095 43.936ZM471.231 48.48C470.367 46.72 469.151 45.888 468.062 45.888C466.079 45.888 463.743 48.704 463.743 53.792C463.743 55.2 463.903 56.48 464.191 57.568L471.231 48.48ZM471.967 50.624L464.927 59.584C465.791 61.344 467.039 62.304 468.223 62.304C469.983 62.304 472.383 60.192 472.383 54.624C472.383 53.088 472.223 51.744 471.967 50.624Z" fill="#93AAB5"/>
<rect x="385.375" y="411.875" width="55.125" height="55.125" fill="#DEE3E6"/>
<path d="M412.97 429.811C416.042 429.811 419.338 433.427 419.338 440.243C419.338 447.091 415.882 450.227 413.002 450.227C409.834 450.227 406.538 446.515 406.538 440.051C406.538 433.683 409.802 429.811 412.97 429.811ZM416.106 434.355C415.242 432.595 414.026 431.763 412.938 431.763C410.954 431.763 408.618 434.579 408.618 439.667C408.618 441.075 408.778 442.355 409.066 443.443L416.106 434.355ZM416.842 436.499L409.802 445.459C410.666 447.219 411.914 448.179 413.098 448.179C414.858 448.179 417.258 446.067 417.258 440.499C417.258 438.963 417.098 437.619 416.842 436.499Z" fill="#93AAB5"/>
<rect x="385.375" y="301.625" width="55.125" height="55.125" fill="#DEE3E6"/>
<path d="M412.97 319.561C416.042 319.561 419.338 323.177 419.338 329.993C419.338 336.841 415.882 339.977 413.002 339.977C409.834 339.977 406.538 336.265 406.538 329.801C406.538 323.433 409.802 319.561 412.97 319.561ZM416.106 324.105C415.242 322.345 414.026 321.513 412.938 321.513C410.954 321.513 408.618 324.329 408.618 329.417C408.618 330.825 408.778 332.105 409.066 333.193L416.106 324.105ZM416.842 326.249L409.802 335.209C410.666 336.969 411.914 337.929 413.098 337.929C414.858 337.929 417.258 335.817 417.258 330.249C417.258 328.713 417.098 327.369 416.842 326.249Z" fill="#93AAB5"/>
<rect x="385.375" y="191.375" width="55.125" height="55.125" fill="#DEE3E6"/>
<path d="M412.97 209.311C416.042 209.311 419.338 212.927 419.338 219.743C419.338 226.591 415.882 229.727 413.002 229.727C409.834 229.727 406.538 226.015 406.538 219.551C406.538 213.183 409.802 209.311 412.97 209.311ZM416.106 213.855C415.242 212.095 414.026 211.263 412.938 211.263C410.954 211.263 408.618 214.079 408.618 219.167C408.618 220.575 408.778 221.855 409.066 222.943L416.106 213.855ZM416.842 215.999L409.802 224.959C410.666 226.719 411.914 227.679 413.098 227.679C414.858 227.679 417.258 225.567 417.258 219.999C417.258 218.463 417.098 217.119 416.842 215.999Z" fill="#93AAB5"/>
<rect x="385.375" y="81.125" width="55.125" height="55.125" fill="#DEE3E6"/>
<path d="M412.97 99.061C416.042 99.061 419.338 102.677 419.338 109.493C419.338 116.341 415.882 119.477 413.002 119.477C409.834 119.477 406.538 115.765 406.538 109.301C406.538 102.933 409.802 99.061 412.97 99.061ZM416.106 103.605C415.242 101.845 414.026 101.013 412.938 101.013C410.954 101.013 408.618 103.829 408.618 108.917C408.618 110.325 408.778 111.605 409.066 112.693L416.106 103.605ZM416.842 105.749L409.802 114.709C410.666 116.469 411.914 117.429 413.098 117.429C414.858 117.429 417.258 115.317 417.258 109.749C417.258 108.213 417.098 106.869 416.842 105.749Z" fill="#93AAB5"/>
<rect x="330.25" y="356.75" width="55.125" height="55.125" fill="#DEE3E6"/>
<rect x="330" y="356.75" width="55.125" height="55.125" fill="#C15F5F"/>
<path d="M359.381 374.782V394.782H357.141V377.566L353.141 378.75L352.629 377.502L357.845 374.782H359.381Z" fill="#93AAB5"/>
<rect x="330.25" y="246.5" width="55.125" height="55.125" fill="#DEE3E6"/>
<path d="M357.845 264.436C360.917 264.436 364.213 268.052 364.213 274.868C364.213 281.716 360.757 284.852 357.877 284.852C354.709 284.852 351.413 281.14 351.413 274.676C351.413 268.308 354.677 264.436 357.845 264.436ZM360.981 268.98C360.117 267.22 358.901 266.388 357.812 266.388C355.829 266.388 353.493 269.204 353.493 274.292C353.493 275.7 353.653 276.98 353.941 278.068L360.981 268.98ZM361.717 271.124L354.677 280.084C355.541 281.844 356.789 282.804 357.973 282.804C359.733 282.804 362.133 280.692 362.133 275.124C362.133 273.588 361.973 272.244 361.717 271.124Z" fill="#93AAB5"/>
<rect x="330.25" y="136.25" width="55.125" height="55.125" fill="#DEE3E6"/>
<path d="M357.845 154.186C360.917 154.186 364.213 157.802 364.213 164.618C364.213 171.466 360.757 174.602 357.877 174.602C354.709 174.602 351.413 170.89 351.413 164.426C351.413 158.058 354.677 154.186 357.845 154.186ZM360.981 158.73C360.117 156.97 358.901 156.138 357.812 156.138C355.829 156.138 353.493 158.954 353.493 164.042C353.493 165.45 353.653 166.73 353.941 167.818L360.981 158.73ZM361.717 160.874L354.677 169.834C355.541 171.594 356.789 172.554 357.973 172.554C359.733 172.554 362.133 170.442 362.133 164.874C362.133 163.338 361.973 161.994 361.717 160.874Z" fill="#93AAB5"/>
<rect x="330.25" y="26" width="55.125" height="55.125" fill="#DEE3E6"/>
<path d="M357.845 43.936C360.917 43.936 364.213 47.552 364.213 54.368C364.213 61.216 360.757 64.352 357.877 64.352C354.709 64.352 351.413 60.64 351.413 54.176C351.413 47.808 354.677 43.936 357.845 43.936ZM360.981 48.48C360.117 46.72 358.901 45.888 357.812 45.888C355.829 45.888 353.493 48.704 353.493 53.792C353.493 55.2 353.653 56.48 353.941 57.568L360.981 48.48ZM361.717 50.624L354.677 59.584C355.541 61.344 356.789 62.304 357.973 62.304C359.733 62.304 362.133 60.192 362.133 54.624C362.133 53.088 361.973 51.744 361.717 50.624Z" fill="#93AAB5"/>
<rect x="605.875" y="411.875" width="55.125" height="55.125" fill="#DEE3E6"/>
<path d="M633.47 429.811C636.542 429.811 639.838 433.427 639.838 440.243C639.838 447.091 636.382 450.227 633.502 450.227C630.334 450.227 627.038 446.515 627.038 440.051C627.038 433.683 630.302 429.811 633.47 429.811ZM636.606 434.355C635.742 432.595 634.526 431.763 633.438 431.763C631.454 431.763 629.118 434.579 629.118 439.667C629.118 441.075 629.278 442.355 629.566 443.443L636.606 434.355ZM637.342 436.499L630.302 445.459C631.166 447.219 632.414 448.179 633.598 448.179C635.358 448.179 637.758 446.067 637.758 440.499C637.758 438.963 637.598 437.619 637.342 436.499Z" fill="#93AAB5"/>
<rect x="605.875" y="301.625" width="55.125" height="55.125" fill="#DEE3E6"/>
<path d="M633.47 319.561C636.542 319.561 639.838 323.177 639.838 329.993C639.838 336.841 636.382 339.977 633.502 339.977C630.334 339.977 627.038 336.265 627.038 329.801C627.038 323.433 630.302 319.561 633.47 319.561ZM636.606 324.105C635.742 322.345 634.526 321.513 633.438 321.513C631.454 321.513 629.118 324.329 629.118 329.417C629.118 330.825 629.278 332.105 629.566 333.193L636.606 324.105ZM637.342 326.249L630.302 335.209C631.166 336.969 632.414 337.929 633.598 337.929C635.358 337.929 637.758 335.817 637.758 330.249C637.758 328.713 637.598 327.369 637.342 326.249Z" fill="#93AAB5"/>
<rect x="605.875" y="191.375" width="55.125" height="55.125" fill="#DEE3E6"/>
<path d="M633.47 209.311C636.542 209.311 639.838 212.927 639.838 219.743C639.838 226.591 636.382 229.727 633.502 229.727C630.334 229.727 627.038 226.015 627.038 219.551C627.038 213.183 630.302 209.311 633.47 209.311ZM636.606 213.855C635.742 212.095 634.526 211.263 633.438 211.263C631.454 211.263 629.118 214.079 629.118 219.167C629.118 220.575 629.278 221.855 629.566 222.943L636.606 213.855ZM637.342 215.999L630.302 224.959C631.166 226.719 632.414 227.679 633.598 227.679C635.358 227.679 637.758 225.567 637.758 219.999C637.758 218.463 637.598 217.119 637.342 215.999Z" fill="#93AAB5"/>
<rect x="605.875" y="81.125" width="55.125" height="55.125" fill="#DEE3E6"/>
<path d="M633.47 99.061C636.542 99.061 639.838 102.677 639.838 109.493C639.838 116.341 636.382 119.477 633.502 119.477C630.334 119.477 627.038 115.765 627.038 109.301C627.038 102.933 630.302 99.061 633.47 99.061ZM636.606 103.605C635.742 101.845 634.526 101.013 633.438 101.013C631.454 101.013 629.118 103.829 629.118 108.917C629.118 110.325 629.278 111.605 629.566 112.693L636.606 103.605ZM637.342 105.749L630.302 114.709C631.166 116.469 632.414 117.429 633.598 117.429C635.358 117.429 637.758 115.317 637.758 109.749C637.758 108.213 637.598 106.869 637.342 105.749Z" fill="#93AAB5"/>
<rect x="550.75" y="356.75" width="55.125" height="55.125" fill="#DEE3E6"/>
<rect x="551" y="356.75" width="55.125" height="55.125" fill="#C15F5F"/>
<path d="M579.881 374.782V394.782H577.641V377.566L573.641 378.75L573.129 377.502L578.345 374.782H579.881Z" fill="#93AAB5"/>
<rect x="550.75" y="246.5" width="55.125" height="55.125" fill="#DEE3E6"/>
<path d="M578.345 264.436C581.417 264.436 584.713 268.052 584.713 274.868C584.713 281.716 581.257 284.852 578.377 284.852C575.209 284.852 571.913 281.14 571.913 274.676C571.913 268.308 575.177 264.436 578.345 264.436ZM581.481 268.98C580.617 267.22 579.401 266.388 578.312 266.388C576.329 266.388 573.993 269.204 573.993 274.292C573.993 275.7 574.153 276.98 574.441 278.068L581.481 268.98ZM582.217 271.124L575.177 280.084C576.041 281.844 577.289 282.804 578.473 282.804C580.233 282.804 582.633 280.692 582.633 275.124C582.633 273.588 582.473 272.244 582.217 271.124Z" fill="#93AAB5"/>
<rect x="550.75" y="136.25" width="55.125" height="55.125" fill="#DEE3E6"/>
<path d="M578.345 154.186C581.417 154.186 584.713 157.802 584.713 164.618C584.713 171.466 581.257 174.602 578.377 174.602C575.209 174.602 571.913 170.89 571.913 164.426C571.913 158.058 575.177 154.186 578.345 154.186ZM581.481 158.73C580.617 156.97 579.401 156.138 578.312 156.138C576.329 156.138 573.993 158.954 573.993 164.042C573.993 165.45 574.153 166.73 574.441 167.818L581.481 158.73ZM582.217 160.874L575.177 169.834C576.041 171.594 577.289 172.554 578.473 172.554C580.233 172.554 582.633 170.442 582.633 164.874C582.633 163.338 582.473 161.994 582.217 160.874Z" fill="#93AAB5"/>
<rect x="550.75" y="26" width="55.125" height="55.125" fill="#DEE3E6"/>
<path d="M578.345 43.936C581.417 43.936 584.713 47.552 584.713 54.368C584.713 61.216 581.257 64.352 578.377 64.352C575.209 64.352 571.913 60.64 571.913 54.176C571.913 47.808 575.177 43.936 578.345 43.936ZM581.481 48.48C580.617 46.72 579.401 45.888 578.312 45.888C576.329 45.888 573.993 48.704 573.993 53.792C573.993 55.2 574.153 56.48 574.441 57.568L581.481 48.48ZM582.217 50.624L575.177 59.584C576.041 61.344 577.289 62.304 578.473 62.304C580.233 62.304 582.633 60.192 582.633 54.624C582.633 53.088 582.473 51.744 582.217 50.624Z" fill="#93AAB5"/>
<path d="M314.544 462.939L314.463 463.936L314.463 463.936L314.544 462.939ZM599.161 486.037L599.08 487.033L599.161 486.037ZM647.293 539.707C647.683 540.098 648.317 540.098 648.707 539.707L655.071 533.343C655.462 532.953 655.462 532.319 655.071 531.929C654.681 531.538 654.047 531.538 653.657 531.929L648 537.586L642.343 531.929C641.953 531.538 641.319 531.538 640.929 531.929C640.538 532.319 640.538 532.953 640.929 533.343L647.293 539.707ZM314.544 462.939L314.463 463.936L599.08 487.033L599.161 486.037L599.241 485.04L314.624 461.943L314.544 462.939ZM250 413L249.056 413.329C258.911 441.663 284.562 461.51 314.463 463.936L314.544 462.939L314.624 461.943C285.513 459.58 260.54 440.258 250.945 412.671L250 413ZM648 539L649 539C649 510.799 627.35 487.321 599.241 485.04L599.161 486.037L599.08 487.033C626.15 489.23 647 511.84 647 539L648 539Z" fill="#FF4848"/>
<path d="M455 535.054L456 535.054L456 535.054L455 535.054ZM454.293 538.207C454.684 538.598 455.317 538.598 455.708 538.207L462.071 531.843C462.462 531.453 462.462 530.819 462.071 530.429C461.681 530.038 461.048 530.038 460.657 530.429L455 536.086L449.344 530.429C448.953 530.038 448.32 530.038 447.929 530.429C447.539 530.819 447.539 531.453 447.929 531.843L454.293 538.207ZM610.985 451.878L611.231 452.847L611.231 452.847L610.985 451.878ZM497.214 480.777L496.967 479.808L496.967 479.808L497.214 480.777ZM455 535.054L454 535.054L454 537.5L455 537.5L456 537.5L456 535.054L455 535.054ZM610.985 451.878L610.739 450.909L496.967 479.808L497.214 480.777L497.46 481.747L611.231 452.847L610.985 451.878ZM642 412L641 412C641 430.365 628.538 446.388 610.739 450.909L610.985 451.878L611.231 452.847C629.917 448.101 643 431.28 643 412L642 412ZM455 535.054L456 535.054C456 509.893 473.074 487.941 497.46 481.747L497.214 480.777L496.967 479.808C471.695 486.228 454 508.978 454 535.054L455 535.054Z" fill="#FF4848"/>
<path d="M96.8325 531.789L95.835 531.718L95.835 531.718L96.8325 531.789ZM95.745 537.156C96.107 537.573 96.7386 537.617 97.1557 537.255L103.952 531.355C104.369 530.993 104.413 530.361 104.051 529.944C103.689 529.527 103.058 529.483 102.641 529.845L96.5996 535.089L91.3549 529.048C90.9929 528.631 90.3613 528.587 89.9442 528.949C89.5272 529.311 89.4826 529.942 89.8447 530.359L95.745 537.156ZM435.502 334.181L435.511 333.181L435.502 334.181ZM312.278 332.973L312.288 331.973L312.288 331.973L312.278 332.973ZM96.8325 531.789L95.835 531.718L95.5026 536.43L96.5001 536.5L97.4976 536.57L97.83 531.859L96.8325 531.789ZM435.502 334.181L435.511 333.181L312.288 331.973L312.278 332.973L312.269 333.973L435.492 335.181L435.502 334.181ZM468 302L467 302C467 319.341 452.852 333.351 435.511 333.181L435.502 334.181L435.492 335.181C453.944 335.362 469 320.454 469 302L468 302ZM96.8325 531.789L97.83 531.859C105.753 419.578 199.714 332.87 312.269 333.973L312.278 332.973L312.288 331.973C198.676 330.86 103.832 418.383 95.835 531.718L96.8325 531.789Z" fill="#FF4848"/>
</svg>
