<svg width="441" height="441" viewBox="0 0 441 441" fill="none" xmlns="http://www.w3.org/2000/svg">
<g clip-path="url(#clip0_2003_825)">
<rect width="441" height="441" fill="white"/>
<rect y="385.875" width="55.125" height="55.125" fill="#93AAB5"/>
<rect y="275.625" width="55.125" height="55.125" fill="#93AAB5"/>
<rect y="165.375" width="55.125" height="55.125" fill="#93AAB5"/>
<rect y="55.125" width="55.125" height="55.125" fill="#93AAB5"/>
<rect x="385.875" y="330.75" width="55.125" height="55.125" fill="#93AAB5"/>
<rect x="385.875" y="220.5" width="55.125" height="55.125" fill="#93AAB5"/>
<rect x="385.875" y="110.25" width="55.125" height="55.125" fill="#93AAB5"/>
<rect x="385.875" width="55.125" height="55.125" fill="#93AAB5"/>
<rect x="220.5" y="385.875" width="55.125" height="55.125" fill="#93AAB5"/>
<rect x="220.5" y="275.625" width="55.125" height="55.125" fill="#93AAB5"/>
<rect x="220.5" y="165.375" width="55.125" height="55.125" fill="#93AAB5"/>
<rect x="220.5" y="55.125" width="55.125" height="55.125" fill="#93AAB5"/>
<rect x="165.375" y="330.75" width="55.125" height="55.125" fill="#93AAB5"/>
<rect x="165.375" y="220.5" width="55.125" height="55.125" fill="#93AAB5"/>
<rect x="165.375" y="110.25" width="55.125" height="55.125" fill="#93AAB5"/>
<rect x="165.375" width="55.125" height="55.125" fill="#93AAB5"/>
<rect x="110.25" y="385.875" width="55.125" height="55.125" fill="#93AAB5"/>
<rect x="110.25" y="275.625" width="55.125" height="55.125" fill="#93AAB5"/>
<rect x="110.25" y="165.375" width="55.125" height="55.125" fill="#93AAB5"/>
<rect x="110.25" y="55.125" width="55.125" height="55.125" fill="#93AAB5"/>
<rect x="55.125" y="330.75" width="55.125" height="55.125" fill="#93AAB5"/>
<rect x="55.125" y="220.5" width="55.125" height="55.125" fill="#93AAB5"/>
<rect x="55.125" y="110.25" width="55.125" height="55.125" fill="#93AAB5"/>
<rect x="55.125" width="55.125" height="55.125" fill="#93AAB5"/>
<rect x="330.75" y="385.875" width="55.125" height="55.125" fill="#93AAB5"/>
<rect x="330.75" y="275.625" width="55.125" height="55.125" fill="#93AAB5"/>
<rect x="330.75" y="165.375" width="55.125" height="55.125" fill="#93AAB5"/>
<rect x="330.75" y="55.125" width="55.125" height="55.125" fill="#93AAB5"/>
<rect x="275.625" y="330.75" width="55.125" height="55.125" fill="#93AAB5"/>
<rect x="275.625" y="220.5" width="55.125" height="55.125" fill="#93AAB5"/>
<rect x="275.625" y="110.25" width="55.125" height="55.125" fill="#93AAB5"/>
<rect x="275.625" width="55.125" height="55.125" fill="#93AAB5"/>
<rect x="55.125" y="385.875" width="55.125" height="55.125" fill="#DEE3E6"/>
<rect x="55.125" y="275.625" width="55.125" height="55.125" fill="#DEE3E6"/>
<rect x="55.125" y="165.375" width="55.125" height="55.125" fill="#DEE3E6"/>
<rect x="55.125" y="55.125" width="55.125" height="55.125" fill="#DEE3E6"/>
<rect y="330.75" width="55.125" height="55.125" fill="#DEE3E6"/>
<rect y="220.5" width="55.125" height="55.125" fill="#DEE3E6"/>
<rect y="110.25" width="55.125" height="55.125" fill="#DEE3E6"/>
<rect width="55.125" height="55.125" fill="#DEE3E6"/>
<rect x="275.625" y="385.875" width="55.125" height="55.125" fill="#DEE3E6"/>
<rect x="275.625" y="275.625" width="55.125" height="55.125" fill="#DEE3E6"/>
<rect x="275.625" y="165.375" width="55.125" height="55.125" fill="#DEE3E6"/>
<rect x="275.625" y="55.125" width="55.125" height="55.125" fill="#DEE3E6"/>
<rect x="220.5" y="330.75" width="55.125" height="55.125" fill="#DEE3E6"/>
<rect x="220.5" y="220.5" width="55.125" height="55.125" fill="#DEE3E6"/>
<rect x="220.5" y="110.25" width="55.125" height="55.125" fill="#DEE3E6"/>
<rect x="220.5" width="55.125" height="55.125" fill="#DEE3E6"/>
<rect x="165.375" y="385.875" width="55.125" height="55.125" fill="#DEE3E6"/>
<rect x="165.375" y="275.625" width="55.125" height="55.125" fill="#DEE3E6"/>
<rect x="165.375" y="165.375" width="55.125" height="55.125" fill="#DEE3E6"/>
<rect x="165.375" y="55.125" width="55.125" height="55.125" fill="#DEE3E6"/>
<rect x="110.25" y="330.75" width="55.125" height="55.125" fill="#DEE3E6"/>
<rect x="110.25" y="220.5" width="55.125" height="55.125" fill="#DEE3E6"/>
<rect x="110.25" y="110.25" width="55.125" height="55.125" fill="#DEE3E6"/>
<rect x="110.25" width="55.125" height="55.125" fill="#DEE3E6"/>
<rect x="385.875" y="385.875" width="55.125" height="55.125" fill="#DEE3E6"/>
<rect x="385.875" y="275.625" width="55.125" height="55.125" fill="#DEE3E6"/>
<rect x="385.875" y="165.375" width="55.125" height="55.125" fill="#DEE3E6"/>
<rect x="385.875" y="55.125" width="55.125" height="55.125" fill="#DEE3E6"/>
<rect x="330.75" y="330.75" width="55.125" height="55.125" fill="#DEE3E6"/>
<rect x="330.75" y="220.5" width="55.125" height="55.125" fill="#DEE3E6"/>
<rect x="330.75" y="110.25" width="55.125" height="55.125" fill="#DEE3E6"/>
<rect x="330.75" width="55.125" height="55.125" fill="#DEE3E6"/>
<path d="M22.0808 350.72C21.9759 350.406 22.0216 348.98 22.1539 348.442C22.4254 347.337 23.0182 346.383 23.9425 345.562C25.5971 344.093 27.9464 343.637 30.0477 344.376L30.63 344.581L32.061 345.224C33.1388 345.708 32.6492 348.577 31.8925 349.296C31.0833 350.064 29.7765 351.515 27.0115 352.214C25.3416 352.636 23.6602 353.698 23.4486 353.865C23.371 353.926 22.1219 350.843 22.0808 350.72Z" fill="white" stroke="#FFFFFD" stroke-width="1.95692" stroke-linecap="round" stroke-linejoin="round"/>
<path d="M23.4658 354.581C29.5761 355.45 33.2392 347.907 30.5392 344.186C29.948 343.371 33.3824 346.588 33.3824 346.588L34.4128 348.905C34.4128 348.905 34.6333 351.722 33.9219 352.869C32.5159 355.134 29.8105 356.199 27.3288 356.154C25.2323 356.116 27.9572 356.728 26.0024 356.008C25.7837 355.928 23.2338 354.548 23.4658 354.581Z" fill="#BEBEBE"/>
<path d="M28.0013 356.117C31.7204 356.117 34.7353 353.255 34.7353 349.725C34.7353 346.195 31.7204 343.333 28.0013 343.333C24.2822 343.333 21.2673 346.195 21.2673 349.725C21.2673 353.255 24.2822 356.117 28.0013 356.117Z" stroke="black" stroke-width="1.95692" stroke-linecap="round" stroke-linejoin="round"/>
<path d="M15.5837 379.427C15.7188 378.274 15.8204 378.071 16.4648 377.663C16.8253 377.435 17.195 377.198 17.2863 377.136C17.3778 377.074 17.2692 376.776 17.0439 376.471C16.8193 376.167 16.6698 375.895 16.7118 375.867C18.0973 374.926 19.8186 373.434 20.6261 372.475C22.7568 369.944 23.768 367.026 23.9338 362.933L24.031 360.532L22.0911 359.31C21.0221 358.636 20.2684 357.772 19.8424 358.384C19.7893 358.461 19.8236 358.277 20.1781 357.783L20.8227 356.886L27.8749 356.889L34.9271 356.893L35.505 357.776C35.8229 358.263 36.0201 358.187 36.0201 358.262C36.0201 358.337 34.7592 359.146 33.1412 359.676C30.8667 360.42 30.222 360.917 30.2991 361.118C30.354 361.261 30.606 362.468 30.8592 363.8C31.4958 367.149 31.5374 370.315 30.9687 372.124C30.3318 374.15 29.1613 375.505 27.1967 376.492C26.0758 377.055 25.973 377.073 23.2143 377.159C20.7706 377.236 20.3556 377.291 20.1867 377.559C20.0442 377.786 20.0442 377.955 20.1868 378.182C20.3623 378.46 30.5736 375.66 34.8571 375.767C41.1105 375.922 36.2428 380.333 31.6372 380.502C29.7788 380.57 22.8522 379.293 20.7004 379.294C17.0959 379.295 16.7461 379.323 16.2546 379.649C15.5477 380.117 15.5044 380.103 15.5837 379.427Z" fill="white" stroke="white" stroke-width="1.15236" stroke-linecap="round"/>
<path d="M41.0681 381.275L14.4573 381.458L15.2036 379.367L33.3199 379.249L20.8366 377.84C30.8128 376.401 32.1271 368.492 30.418 360.818L32.3342 360.104L33.0912 364.295L34.0103 368.757C34.3863 368.06 34.339 369.636 34.5599 370.207C34.914 371.121 35.9041 371.561 36.2795 372.318L39.6075 376.599L38.0076 377.545L40.4084 378.019L41.0681 381.275Z" fill="#BEBEBE"/>
<path d="M14.4497 381.803L15.0193 377.661L16.258 376.83C16.258 376.83 15.349 375.71 15.6796 375.526C21.4994 371.977 23.4573 366.55 23.4684 359.919L19.7431 358.313L21.3273 356.048L27.7598 356.025L34.5869 356.088L35.9893 358.195L32.3343 360.104C32.4295 366.145 34.3783 372.154 39.3964 375.41C40.0106 375.778 37.933 377.034 37.933 377.034L40.1436 377.571L40.5777 381.745L14.4497 381.803Z" stroke="black" stroke-width="2.0967"/>
<path d="M20.8367 377.84H33.412H20.8367Z" fill="#CFCECF"/>
<path d="M20.8367 377.84H33.412" stroke="black" stroke-width="1.93701" stroke-linecap="round"/>
<path d="M77.0808 351.72C76.9759 351.406 77.0216 349.98 77.1539 349.442C77.4254 348.337 78.0182 347.383 78.9425 346.562C80.5971 345.093 82.9464 344.637 85.0477 345.376L85.63 345.581L87.061 346.224C88.1388 346.708 87.6492 349.577 86.8925 350.296C86.0833 351.064 84.7765 352.515 82.0115 353.214C80.3416 353.636 78.6602 354.698 78.4486 354.865C78.371 354.926 77.1219 351.843 77.0808 351.72Z" fill="white" stroke="#FFFFFD" stroke-width="1.95692" stroke-linecap="round" stroke-linejoin="round"/>
<path d="M78.4658 355.581C84.5761 356.45 88.2392 348.907 85.5392 345.186C84.948 344.371 88.3824 347.588 88.3824 347.588L89.4128 349.905C89.4128 349.905 89.6333 352.722 88.9219 353.869C87.5159 356.134 84.8105 357.199 82.3288 357.154C80.2323 357.116 82.9572 357.728 81.0024 357.008C80.7837 356.928 78.2338 355.548 78.4658 355.581Z" fill="#BEBEBE"/>
<path d="M83.0013 357.117C86.7204 357.117 89.7353 354.255 89.7353 350.725C89.7353 347.195 86.7204 344.333 83.0013 344.333C79.2822 344.333 76.2673 347.195 76.2673 350.725C76.2673 354.255 79.2822 357.117 83.0013 357.117Z" stroke="black" stroke-width="1.95692" stroke-linecap="round" stroke-linejoin="round"/>
<path d="M70.5837 380.427C70.7188 379.274 70.8204 379.071 71.4648 378.663C71.8253 378.435 72.195 378.198 72.2863 378.136C72.3778 378.074 72.2692 377.776 72.0439 377.471C71.8193 377.167 71.6698 376.895 71.7118 376.867C73.0973 375.926 74.8186 374.434 75.6261 373.475C77.7568 370.944 78.768 368.026 78.9338 363.933L79.031 361.532L77.0911 360.31C76.0221 359.636 75.2684 358.772 74.8424 359.384C74.7893 359.461 74.8236 359.277 75.1781 358.783L75.8227 357.886L82.8749 357.889L89.9271 357.893L90.505 358.776C90.8229 359.263 91.0201 359.187 91.0201 359.262C91.0201 359.337 89.7592 360.146 88.1412 360.676C85.8667 361.42 85.222 361.917 85.2991 362.118C85.354 362.261 85.606 363.468 85.8592 364.8C86.4958 368.149 86.5374 371.315 85.9687 373.124C85.3318 375.15 84.1613 376.505 82.1967 377.492C81.0758 378.055 80.973 378.073 78.2143 378.159C75.7706 378.236 75.3556 378.291 75.1867 378.559C75.0442 378.786 75.0442 378.955 75.1868 379.182C75.3623 379.46 85.5736 376.66 89.8571 376.767C96.1105 376.922 91.2428 381.333 86.6372 381.502C84.7788 381.57 77.8522 380.293 75.7004 380.294C72.0959 380.295 71.7461 380.323 71.2546 380.649C70.5477 381.117 70.5044 381.103 70.5837 380.427Z" fill="white" stroke="white" stroke-width="1.15236" stroke-linecap="round"/>
<path d="M96.0681 382.275L69.4573 382.458L70.2036 380.367L88.3199 380.249L75.8366 378.84C85.8128 377.401 87.1271 369.492 85.418 361.818L87.3342 361.104L88.0912 365.295L89.0103 369.757C89.3863 369.06 89.339 370.636 89.5599 371.207C89.914 372.121 90.9041 372.561 91.2795 373.318L94.6075 377.599L93.0076 378.545L95.4084 379.019L96.0681 382.275Z" fill="#BEBEBE"/>
<path d="M69.4497 382.803L70.0193 378.661L71.258 377.83C71.258 377.83 70.349 376.71 70.6796 376.526C76.4994 372.977 78.4573 367.55 78.4684 360.919L74.7431 359.313L76.3273 357.048L82.7598 357.025L89.5869 357.088L90.9893 359.195L87.3343 361.104C87.4295 367.145 89.3783 373.154 94.3964 376.41C95.0106 376.778 92.933 378.034 92.933 378.034L95.1436 378.571L95.5777 382.745L69.4497 382.803Z" stroke="black" stroke-width="2.0967"/>
<path d="M75.8367 378.84H88.412H75.8367Z" fill="#CFCECF"/>
<path d="M75.8367 378.84H88.412" stroke="black" stroke-width="1.93701" stroke-linecap="round"/>
<path d="M132.081 351.72C131.976 351.406 132.022 349.98 132.154 349.442C132.425 348.337 133.018 347.383 133.943 346.562C135.597 345.093 137.946 344.637 140.048 345.376L140.63 345.581L142.061 346.224C143.139 346.708 142.649 349.577 141.893 350.296C141.083 351.064 139.776 352.515 137.011 353.214C135.342 353.636 133.66 354.698 133.449 354.865C133.371 354.926 132.122 351.843 132.081 351.72Z" fill="white" stroke="#FFFFFD" stroke-width="1.95692" stroke-linecap="round" stroke-linejoin="round"/>
<path d="M133.466 355.581C139.576 356.45 143.239 348.907 140.539 345.186C139.948 344.371 143.382 347.588 143.382 347.588L144.413 349.905C144.413 349.905 144.633 352.722 143.922 353.869C142.516 356.134 139.81 357.199 137.329 357.154C135.232 357.116 137.957 357.728 136.002 357.008C135.784 356.928 133.234 355.548 133.466 355.581Z" fill="#BEBEBE"/>
<path d="M138.001 357.117C141.72 357.117 144.735 354.255 144.735 350.725C144.735 347.195 141.72 344.333 138.001 344.333C134.282 344.333 131.267 347.195 131.267 350.725C131.267 354.255 134.282 357.117 138.001 357.117Z" stroke="black" stroke-width="1.95692" stroke-linecap="round" stroke-linejoin="round"/>
<path d="M125.584 380.427C125.719 379.274 125.82 379.071 126.465 378.663C126.825 378.435 127.195 378.198 127.286 378.136C127.378 378.074 127.269 377.776 127.044 377.471C126.819 377.167 126.67 376.895 126.712 376.867C128.097 375.926 129.819 374.434 130.626 373.475C132.757 370.944 133.768 368.026 133.934 363.933L134.031 361.532L132.091 360.31C131.022 359.636 130.268 358.772 129.842 359.384C129.789 359.461 129.824 359.277 130.178 358.783L130.823 357.886L137.875 357.889L144.927 357.893L145.505 358.776C145.823 359.263 146.02 359.187 146.02 359.262C146.02 359.337 144.759 360.146 143.141 360.676C140.867 361.42 140.222 361.917 140.299 362.118C140.354 362.261 140.606 363.468 140.859 364.8C141.496 368.149 141.537 371.315 140.969 373.124C140.332 375.15 139.161 376.505 137.197 377.492C136.076 378.055 135.973 378.073 133.214 378.159C130.771 378.236 130.356 378.291 130.187 378.559C130.044 378.786 130.044 378.955 130.187 379.182C130.362 379.46 140.574 376.66 144.857 376.767C151.111 376.922 146.243 381.333 141.637 381.502C139.779 381.57 132.852 380.293 130.7 380.294C127.096 380.295 126.746 380.323 126.255 380.649C125.548 381.117 125.504 381.103 125.584 380.427Z" fill="white" stroke="white" stroke-width="1.15236" stroke-linecap="round"/>
<path d="M151.068 382.275L124.457 382.458L125.204 380.367L143.32 380.249L130.837 378.84C140.813 377.401 142.127 369.492 140.418 361.818L142.334 361.104L143.091 365.295L144.01 369.757C144.386 369.06 144.339 370.636 144.56 371.207C144.914 372.121 145.904 372.561 146.28 373.318L149.608 377.599L148.008 378.545L150.408 379.019L151.068 382.275Z" fill="#BEBEBE"/>
<path d="M124.45 382.803L125.019 378.661L126.258 377.83C126.258 377.83 125.349 376.71 125.68 376.526C131.499 372.977 133.457 367.55 133.468 360.919L129.743 359.313L131.327 357.048L137.76 357.025L144.587 357.088L145.989 359.195L142.334 361.104C142.429 367.145 144.378 373.154 149.396 376.41C150.011 376.778 147.933 378.034 147.933 378.034L150.144 378.571L150.578 382.745L124.45 382.803Z" stroke="black" stroke-width="2.0967"/>
<path d="M130.837 378.84H143.412H130.837Z" fill="#CFCECF"/>
<path d="M130.837 378.84H143.412" stroke="black" stroke-width="1.93701" stroke-linecap="round"/>
<path d="M187.081 351.72C186.976 351.406 187.022 349.98 187.154 349.442C187.425 348.337 188.018 347.383 188.943 346.562C190.597 345.093 192.946 344.637 195.048 345.376L195.63 345.581L197.061 346.224C198.139 346.708 197.649 349.577 196.893 350.296C196.083 351.064 194.776 352.515 192.011 353.214C190.342 353.636 188.66 354.698 188.449 354.865C188.371 354.926 187.122 351.843 187.081 351.72Z" fill="white" stroke="#FFFFFD" stroke-width="1.95692" stroke-linecap="round" stroke-linejoin="round"/>
<path d="M188.466 355.581C194.576 356.45 198.239 348.907 195.539 345.186C194.948 344.371 198.382 347.588 198.382 347.588L199.413 349.905C199.413 349.905 199.633 352.722 198.922 353.869C197.516 356.134 194.81 357.199 192.329 357.154C190.232 357.116 192.957 357.728 191.002 357.008C190.784 356.928 188.234 355.548 188.466 355.581Z" fill="#BEBEBE"/>
<path d="M193.001 357.117C196.72 357.117 199.735 354.255 199.735 350.725C199.735 347.195 196.72 344.333 193.001 344.333C189.282 344.333 186.267 347.195 186.267 350.725C186.267 354.255 189.282 357.117 193.001 357.117Z" stroke="black" stroke-width="1.95692" stroke-linecap="round" stroke-linejoin="round"/>
<path d="M180.584 380.427C180.719 379.274 180.82 379.071 181.465 378.663C181.825 378.435 182.195 378.198 182.286 378.136C182.378 378.074 182.269 377.776 182.044 377.471C181.819 377.167 181.67 376.895 181.712 376.867C183.097 375.926 184.819 374.434 185.626 373.475C187.757 370.944 188.768 368.026 188.934 363.933L189.031 361.532L187.091 360.31C186.022 359.636 185.268 358.772 184.842 359.384C184.789 359.461 184.824 359.277 185.178 358.783L185.823 357.886L192.875 357.889L199.927 357.893L200.505 358.776C200.823 359.263 201.02 359.187 201.02 359.262C201.02 359.337 199.759 360.146 198.141 360.676C195.867 361.42 195.222 361.917 195.299 362.118C195.354 362.261 195.606 363.468 195.859 364.8C196.496 368.149 196.537 371.315 195.969 373.124C195.332 375.15 194.161 376.505 192.197 377.492C191.076 378.055 190.973 378.073 188.214 378.159C185.771 378.236 185.356 378.291 185.187 378.559C185.044 378.786 185.044 378.955 185.187 379.182C185.362 379.46 195.574 376.66 199.857 376.767C206.111 376.922 201.243 381.333 196.637 381.502C194.779 381.57 187.852 380.293 185.7 380.294C182.096 380.295 181.746 380.323 181.255 380.649C180.548 381.117 180.504 381.103 180.584 380.427Z" fill="white" stroke="white" stroke-width="1.15236" stroke-linecap="round"/>
<path d="M206.068 382.275L179.457 382.458L180.204 380.367L198.32 380.249L185.837 378.84C195.813 377.401 197.127 369.492 195.418 361.818L197.334 361.104L198.091 365.295L199.01 369.757C199.386 369.06 199.339 370.636 199.56 371.207C199.914 372.121 200.904 372.561 201.28 373.318L204.608 377.599L203.008 378.545L205.408 379.019L206.068 382.275Z" fill="#BEBEBE"/>
<path d="M179.45 382.803L180.019 378.661L181.258 377.83C181.258 377.83 180.349 376.71 180.68 376.526C186.499 372.977 188.457 367.55 188.468 360.919L184.743 359.313L186.327 357.048L192.76 357.025L199.587 357.088L200.989 359.195L197.334 361.104C197.429 367.145 199.378 373.154 204.396 376.41C205.011 376.778 202.933 378.034 202.933 378.034L205.144 378.571L205.578 382.745L179.45 382.803Z" stroke="black" stroke-width="2.0967"/>
<path d="M185.837 378.84H198.412H185.837Z" fill="#CFCECF"/>
<path d="M185.837 378.84H198.412" stroke="black" stroke-width="1.93701" stroke-linecap="round"/>
<path d="M242.081 240.72C241.976 240.406 242.022 238.98 242.154 238.442C242.425 237.337 243.018 236.383 243.943 235.562C245.597 234.093 247.946 233.637 250.048 234.376L250.63 234.581L252.061 235.224C253.139 235.708 252.649 238.577 251.893 239.296C251.083 240.064 249.776 241.515 247.011 242.214C245.342 242.636 243.66 243.698 243.449 243.865C243.371 243.926 242.122 240.843 242.081 240.72Z" fill="white" stroke="#FFFFFD" stroke-width="1.95692" stroke-linecap="round" stroke-linejoin="round"/>
<path d="M243.466 244.581C249.576 245.45 253.239 237.907 250.539 234.186C249.948 233.371 253.382 236.588 253.382 236.588L254.413 238.905C254.413 238.905 254.633 241.722 253.922 242.869C252.516 245.134 249.81 246.199 247.329 246.154C245.232 246.116 247.957 246.728 246.002 246.008C245.784 245.928 243.234 244.548 243.466 244.581Z" fill="#BEBEBE"/>
<path d="M248.001 246.117C251.72 246.117 254.735 243.255 254.735 239.725C254.735 236.195 251.72 233.333 248.001 233.333C244.282 233.333 241.267 236.195 241.267 239.725C241.267 243.255 244.282 246.117 248.001 246.117Z" stroke="black" stroke-width="1.95692" stroke-linecap="round" stroke-linejoin="round"/>
<path d="M235.584 269.427C235.719 268.274 235.82 268.071 236.465 267.663C236.825 267.435 237.195 267.198 237.286 267.136C237.378 267.074 237.269 266.776 237.044 266.471C236.819 266.167 236.67 265.895 236.712 265.867C238.097 264.926 239.819 263.434 240.626 262.475C242.757 259.944 243.768 257.026 243.934 252.933L244.031 250.532L242.091 249.31C241.022 248.636 240.268 247.772 239.842 248.384C239.789 248.461 239.824 248.277 240.178 247.783L240.823 246.886L247.875 246.889L254.927 246.893L255.505 247.776C255.823 248.263 256.02 248.187 256.02 248.262C256.02 248.337 254.759 249.146 253.141 249.676C250.867 250.42 250.222 250.917 250.299 251.118C250.354 251.261 250.606 252.468 250.859 253.8C251.496 257.149 251.537 260.315 250.969 262.124C250.332 264.15 249.161 265.505 247.197 266.492C246.076 267.055 245.973 267.073 243.214 267.159C240.771 267.236 240.356 267.291 240.187 267.559C240.044 267.786 240.044 267.955 240.187 268.182C240.362 268.46 250.574 265.66 254.857 265.767C261.111 265.922 256.243 270.333 251.637 270.502C249.779 270.57 242.852 269.293 240.7 269.294C237.096 269.295 236.746 269.323 236.255 269.649C235.548 270.117 235.504 270.103 235.584 269.427Z" fill="white" stroke="white" stroke-width="1.15236" stroke-linecap="round"/>
<path d="M261.068 271.275L234.457 271.458L235.204 269.367L253.32 269.249L240.837 267.84C250.813 266.401 252.127 258.492 250.418 250.818L252.334 250.104L253.091 254.295L254.01 258.757C254.386 258.06 254.339 259.636 254.56 260.207C254.914 261.121 255.904 261.561 256.28 262.318L259.608 266.599L258.008 267.545L260.408 268.019L261.068 271.275Z" fill="#BEBEBE"/>
<path d="M234.45 271.803L235.019 267.661L236.258 266.83C236.258 266.83 235.349 265.71 235.68 265.526C241.499 261.977 243.457 256.55 243.468 249.919L239.743 248.313L241.327 246.048L247.76 246.025L254.587 246.088L255.989 248.195L252.334 250.104C252.429 256.145 254.378 262.154 259.396 265.41C260.011 265.778 257.933 267.034 257.933 267.034L260.144 267.571L260.578 271.745L234.45 271.803Z" stroke="black" stroke-width="2.0967"/>
<path d="M240.837 267.84H253.412H240.837Z" fill="#CFCECF"/>
<path d="M240.837 267.84H253.412" stroke="black" stroke-width="1.93701" stroke-linecap="round"/>
<path d="M297.081 351.72C296.976 351.406 297.022 349.98 297.154 349.442C297.425 348.337 298.018 347.383 298.943 346.562C300.597 345.093 302.946 344.637 305.048 345.376L305.63 345.581L307.061 346.224C308.139 346.708 307.649 349.577 306.893 350.296C306.083 351.064 304.776 352.515 302.011 353.214C300.342 353.636 298.66 354.698 298.449 354.865C298.371 354.926 297.122 351.843 297.081 351.72Z" fill="white" stroke="#FFFFFD" stroke-width="1.95692" stroke-linecap="round" stroke-linejoin="round"/>
<path d="M298.466 355.581C304.576 356.45 308.239 348.907 305.539 345.186C304.948 344.371 308.382 347.588 308.382 347.588L309.413 349.905C309.413 349.905 309.633 352.722 308.922 353.869C307.516 356.134 304.81 357.199 302.329 357.154C300.232 357.116 302.957 357.728 301.002 357.008C300.784 356.928 298.234 355.548 298.466 355.581Z" fill="#BEBEBE"/>
<path d="M303.001 357.117C306.72 357.117 309.735 354.255 309.735 350.725C309.735 347.195 306.72 344.333 303.001 344.333C299.282 344.333 296.267 347.195 296.267 350.725C296.267 354.255 299.282 357.117 303.001 357.117Z" stroke="black" stroke-width="1.95692" stroke-linecap="round" stroke-linejoin="round"/>
<path d="M290.584 380.427C290.719 379.274 290.82 379.071 291.465 378.663C291.825 378.435 292.195 378.198 292.286 378.136C292.378 378.074 292.269 377.776 292.044 377.471C291.819 377.167 291.67 376.895 291.712 376.867C293.097 375.926 294.819 374.434 295.626 373.475C297.757 370.944 298.768 368.026 298.934 363.933L299.031 361.532L297.091 360.31C296.022 359.636 295.268 358.772 294.842 359.384C294.789 359.461 294.824 359.277 295.178 358.783L295.823 357.886L302.875 357.889L309.927 357.893L310.505 358.776C310.823 359.263 311.02 359.187 311.02 359.262C311.02 359.337 309.759 360.146 308.141 360.676C305.867 361.42 305.222 361.917 305.299 362.118C305.354 362.261 305.606 363.468 305.859 364.8C306.496 368.149 306.537 371.315 305.969 373.124C305.332 375.15 304.161 376.505 302.197 377.492C301.076 378.055 300.973 378.073 298.214 378.159C295.771 378.236 295.356 378.291 295.187 378.559C295.044 378.786 295.044 378.955 295.187 379.182C295.362 379.46 305.574 376.66 309.857 376.767C316.111 376.922 311.243 381.333 306.637 381.502C304.779 381.57 297.852 380.293 295.7 380.294C292.096 380.295 291.746 380.323 291.255 380.649C290.548 381.117 290.504 381.103 290.584 380.427Z" fill="white" stroke="white" stroke-width="1.15236" stroke-linecap="round"/>
<path d="M316.068 382.275L289.457 382.458L290.204 380.367L308.32 380.249L295.837 378.84C305.813 377.401 307.127 369.492 305.418 361.818L307.334 361.104L308.091 365.295L309.01 369.757C309.386 369.06 309.339 370.636 309.56 371.207C309.914 372.121 310.904 372.561 311.28 373.318L314.608 377.599L313.008 378.545L315.408 379.019L316.068 382.275Z" fill="#BEBEBE"/>
<path d="M289.45 382.803L290.019 378.661L291.258 377.83C291.258 377.83 290.349 376.71 290.68 376.526C296.499 372.977 298.457 367.55 298.468 360.919L294.743 359.313L296.327 357.048L302.76 357.025L309.587 357.088L310.989 359.195L307.334 361.104C307.429 367.145 309.378 373.154 314.396 376.41C315.011 376.778 312.933 378.034 312.933 378.034L315.144 378.571L315.578 382.745L289.45 382.803Z" stroke="black" stroke-width="2.0967"/>
<path d="M295.837 378.84H308.412H295.837Z" fill="#CFCECF"/>
<path d="M295.837 378.84H308.412" stroke="black" stroke-width="1.93701" stroke-linecap="round"/>
<path d="M353.081 351.72C352.976 351.406 353.022 349.98 353.154 349.442C353.425 348.337 354.018 347.383 354.943 346.562C356.597 345.093 358.946 344.637 361.048 345.376L361.63 345.581L363.061 346.224C364.139 346.708 363.649 349.577 362.893 350.296C362.083 351.064 360.776 352.515 358.011 353.214C356.342 353.636 354.66 354.698 354.449 354.865C354.371 354.926 353.122 351.843 353.081 351.72Z" fill="white" stroke="#FFFFFD" stroke-width="1.95692" stroke-linecap="round" stroke-linejoin="round"/>
<path d="M354.466 355.581C360.576 356.45 364.239 348.907 361.539 345.186C360.948 344.371 364.382 347.588 364.382 347.588L365.413 349.905C365.413 349.905 365.633 352.722 364.922 353.869C363.516 356.134 360.81 357.199 358.329 357.154C356.232 357.116 358.957 357.728 357.002 357.008C356.784 356.928 354.234 355.548 354.466 355.581Z" fill="#BEBEBE"/>
<path d="M359.001 357.117C362.72 357.117 365.735 354.255 365.735 350.725C365.735 347.195 362.72 344.333 359.001 344.333C355.282 344.333 352.267 347.195 352.267 350.725C352.267 354.255 355.282 357.117 359.001 357.117Z" stroke="black" stroke-width="1.95692" stroke-linecap="round" stroke-linejoin="round"/>
<path d="M346.584 380.427C346.719 379.274 346.82 379.071 347.465 378.663C347.825 378.435 348.195 378.198 348.286 378.136C348.378 378.074 348.269 377.776 348.044 377.471C347.819 377.167 347.67 376.895 347.712 376.867C349.097 375.926 350.819 374.434 351.626 373.475C353.757 370.944 354.768 368.026 354.934 363.933L355.031 361.532L353.091 360.31C352.022 359.636 351.268 358.772 350.842 359.384C350.789 359.461 350.824 359.277 351.178 358.783L351.823 357.886L358.875 357.889L365.927 357.893L366.505 358.776C366.823 359.263 367.02 359.187 367.02 359.262C367.02 359.337 365.759 360.146 364.141 360.676C361.867 361.42 361.222 361.917 361.299 362.118C361.354 362.261 361.606 363.468 361.859 364.8C362.496 368.149 362.537 371.315 361.969 373.124C361.332 375.15 360.161 376.505 358.197 377.492C357.076 378.055 356.973 378.073 354.214 378.159C351.771 378.236 351.356 378.291 351.187 378.559C351.044 378.786 351.044 378.955 351.187 379.182C351.362 379.46 361.574 376.66 365.857 376.767C372.111 376.922 367.243 381.333 362.637 381.502C360.779 381.57 353.852 380.293 351.7 380.294C348.096 380.295 347.746 380.323 347.255 380.649C346.548 381.117 346.504 381.103 346.584 380.427Z" fill="white" stroke="white" stroke-width="1.15236" stroke-linecap="round"/>
<path d="M372.068 382.275L345.457 382.458L346.204 380.367L364.32 380.249L351.837 378.84C361.813 377.401 363.127 369.492 361.418 361.818L363.334 361.104L364.091 365.295L365.01 369.757C365.386 369.06 365.339 370.636 365.56 371.207C365.914 372.121 366.904 372.561 367.28 373.318L370.608 377.599L369.008 378.545L371.408 379.019L372.068 382.275Z" fill="#BEBEBE"/>
<path d="M345.45 382.803L346.019 378.661L347.258 377.83C347.258 377.83 346.349 376.71 346.68 376.526C352.499 372.977 354.457 367.55 354.468 360.919L350.743 359.313L352.327 357.048L358.76 357.025L365.587 357.088L366.989 359.195L363.334 361.104C363.429 367.145 365.378 373.154 370.396 376.41C371.011 376.778 368.933 378.034 368.933 378.034L371.144 378.571L371.578 382.745L345.45 382.803Z" stroke="black" stroke-width="2.0967"/>
<path d="M351.837 378.84H364.412H351.837Z" fill="#CFCECF"/>
<path d="M351.837 378.84H364.412" stroke="black" stroke-width="1.93701" stroke-linecap="round"/>
<path d="M409.081 351.72C408.976 351.406 409.022 349.98 409.154 349.442C409.425 348.337 410.018 347.383 410.943 346.562C412.597 345.093 414.946 344.637 417.048 345.376L417.63 345.581L419.061 346.224C420.139 346.708 419.649 349.577 418.893 350.296C418.083 351.064 416.776 352.515 414.011 353.214C412.342 353.636 410.66 354.698 410.449 354.865C410.371 354.926 409.122 351.843 409.081 351.72Z" fill="white" stroke="#FFFFFD" stroke-width="1.95692" stroke-linecap="round" stroke-linejoin="round"/>
<path d="M410.466 355.581C416.576 356.45 420.239 348.907 417.539 345.186C416.948 344.371 420.382 347.588 420.382 347.588L421.413 349.905C421.413 349.905 421.633 352.722 420.922 353.869C419.516 356.134 416.81 357.199 414.329 357.154C412.232 357.116 414.957 357.728 413.002 357.008C412.784 356.928 410.234 355.548 410.466 355.581Z" fill="#BEBEBE"/>
<path d="M415.001 357.117C418.72 357.117 421.735 354.255 421.735 350.725C421.735 347.195 418.72 344.333 415.001 344.333C411.282 344.333 408.267 347.195 408.267 350.725C408.267 354.255 411.282 357.117 415.001 357.117Z" stroke="black" stroke-width="1.95692" stroke-linecap="round" stroke-linejoin="round"/>
<path d="M402.584 380.427C402.719 379.274 402.82 379.071 403.465 378.663C403.825 378.435 404.195 378.198 404.286 378.136C404.378 378.074 404.269 377.776 404.044 377.471C403.819 377.167 403.67 376.895 403.712 376.867C405.097 375.926 406.819 374.434 407.626 373.475C409.757 370.944 410.768 368.026 410.934 363.933L411.031 361.532L409.091 360.31C408.022 359.636 407.268 358.772 406.842 359.384C406.789 359.461 406.824 359.277 407.178 358.783L407.823 357.886L414.875 357.889L421.927 357.893L422.505 358.776C422.823 359.263 423.02 359.187 423.02 359.262C423.02 359.337 421.759 360.146 420.141 360.676C417.867 361.42 417.222 361.917 417.299 362.118C417.354 362.261 417.606 363.468 417.859 364.8C418.496 368.149 418.537 371.315 417.969 373.124C417.332 375.15 416.161 376.505 414.197 377.492C413.076 378.055 412.973 378.073 410.214 378.159C407.771 378.236 407.356 378.291 407.187 378.559C407.044 378.786 407.044 378.955 407.187 379.182C407.362 379.46 417.574 376.66 421.857 376.767C428.111 376.922 423.243 381.333 418.637 381.502C416.779 381.57 409.852 380.293 407.7 380.294C404.096 380.295 403.746 380.323 403.255 380.649C402.548 381.117 402.504 381.103 402.584 380.427Z" fill="white" stroke="white" stroke-width="1.15236" stroke-linecap="round"/>
<path d="M428.068 382.275L401.457 382.458L402.204 380.367L420.32 380.249L407.837 378.84C417.813 377.401 419.127 369.492 417.418 361.818L419.334 361.104L420.091 365.295L421.01 369.757C421.386 369.06 421.339 370.636 421.56 371.207C421.914 372.121 422.904 372.561 423.28 373.318L426.608 377.599L425.008 378.545L427.408 379.019L428.068 382.275Z" fill="#BEBEBE"/>
<path d="M401.45 382.803L402.019 378.661L403.258 377.83C403.258 377.83 402.349 376.71 402.68 376.526C408.499 372.977 410.457 367.55 410.468 360.919L406.743 359.313L408.327 357.048L414.76 357.025L421.587 357.088L422.989 359.195L419.334 361.104C419.429 367.145 421.378 373.154 426.396 376.41C427.011 376.778 424.933 378.034 424.933 378.034L427.144 378.571L427.578 382.745L401.45 382.803Z" stroke="black" stroke-width="2.0967"/>
<path d="M407.837 378.84H420.412H407.837Z" fill="#CFCECF"/>
<path d="M407.837 378.84H420.412" stroke="black" stroke-width="1.93701" stroke-linecap="round"/>
</g>
<defs>
<clipPath id="clip0_2003_825">
<rect width="441" height="441" fill="white"/>
</clipPath>
</defs>
</svg>
