<svg width="441" height="441" viewBox="0 0 441 441" fill="none" xmlns="http://www.w3.org/2000/svg">
<g clip-path="url(#clip0_2005_2)">
<rect width="441" height="441" fill="white"/>
<rect y="385.875" width="55.125" height="55.125" fill="#93AAB5"/>
<path d="M27.5945 403.811C30.6665 403.811 33.9625 407.427 33.9625 414.243C33.9625 421.091 30.5065 424.227 27.6265 424.227C24.4585 424.227 21.1625 420.515 21.1625 414.051C21.1625 407.683 24.4265 403.811 27.5945 403.811ZM30.7305 408.355C29.8665 406.595 28.6505 405.763 27.5625 405.763C25.5785 405.763 23.2425 408.579 23.2425 413.667C23.2425 415.075 23.4025 416.355 23.6905 417.443L30.7305 408.355ZM31.4665 410.499L24.4265 419.459C25.2905 421.219 26.5385 422.179 27.7225 422.179C29.4825 422.179 31.8825 420.067 31.8825 414.499C31.8825 412.963 31.7225 411.619 31.4665 410.499Z" fill="#DEE3E6"/>
<rect y="275.625" width="55.125" height="55.125" fill="#93AAB5"/>
<path d="M21.1305 293.657V313.657H18.8905V296.441L14.8905 297.625L14.3785 296.377L19.5945 293.657H21.1305ZM36.7465 293.465C38.3785 293.465 39.9465 294.137 41.1305 295.289L39.5625 296.985C39.2745 296.761 39.2745 296.473 39.0825 296.281C38.9545 296.153 38.1225 295.449 36.7785 295.449C35.3385 295.449 32.0425 296.345 31.9145 303.161C32.7785 301.689 34.4425 300.761 36.1705 300.761C38.9865 300.761 41.6105 303.129 41.6105 307.289C41.6105 311.385 38.9865 313.945 35.9465 313.945C34.1545 313.945 32.3625 313.081 31.2105 311.321C29.9305 309.369 29.7065 306.873 29.7065 304.537C29.7065 302.617 29.8985 300.313 30.5705 298.393C31.8185 294.905 34.3785 293.465 36.7465 293.465ZM35.9465 302.713C34.4745 302.713 32.9385 303.769 32.0425 305.401C31.7865 309.113 33.6105 311.961 36.0425 311.961C37.7385 311.961 39.4345 310.553 39.4345 307.417C39.4345 303.993 37.5465 302.713 35.9465 302.713Z" fill="#DEE3E6"/>
<rect y="165.375" width="55.125" height="55.125" fill="#93AAB5"/>
<path d="M24.7145 188.431C24.7145 190.383 23.4985 192.079 21.7065 192.751C23.7545 193.487 25.1625 195.535 25.1625 197.903C25.1625 201.007 22.8265 203.727 19.0185 203.727C17.0345 203.727 15.1145 202.895 13.7705 201.423L15.4665 199.407C15.7545 199.695 15.6265 200.015 15.8825 200.335C16.0105 200.495 17.1305 201.679 18.9865 201.679C21.3225 201.679 22.9865 199.791 22.9865 197.615C22.9865 195.247 21.0025 193.839 18.3145 193.839C17.9625 193.839 17.6425 193.871 17.3225 193.903V192.111C19.2105 192.111 20.1065 191.759 20.4585 191.599C21.8345 190.991 22.5705 189.679 22.5705 188.463C22.5705 186.767 21.1625 185.359 19.1145 185.359C17.8665 185.359 16.5865 185.903 15.6585 186.895L14.4425 185.487C15.6905 184.143 17.4185 183.375 19.2105 183.375C22.3785 183.375 24.7145 185.711 24.7145 188.431ZM30.0585 186.543C31.2425 184.527 33.3545 183.311 35.6265 183.311C38.8905 183.311 41.4185 185.807 41.4185 188.911C41.4185 191.791 39.3705 193.807 37.8985 195.183C36.4585 196.527 34.1545 198.511 32.4905 201.423H40.8425C40.9705 201.423 41.0665 201.391 41.1945 201.295C41.2585 201.231 41.4185 201.071 41.6105 201.135V203.375H29.8985V201.967C31.5625 198.639 33.4185 196.591 35.6905 194.543C37.1305 193.231 39.1785 191.503 39.1785 189.071C39.1785 186.927 37.4825 185.295 35.3705 185.295C33.6425 185.295 32.4265 186.351 31.9465 187.087C31.7865 187.343 31.8505 187.567 31.6585 187.823L30.0585 186.543Z" fill="#DEE3E6"/>
<rect y="55.125" width="55.125" height="55.125" fill="#93AAB5"/>
<path d="M21.5785 73.157H23.4665V85.637H26.0265V87.621H23.4665V93.125H21.1305V87.621H13.0985V85.925L21.5785 73.157ZM21.1625 76.709L15.3065 85.637H21.1625V76.709ZM35.8185 72.933C38.7305 72.933 41.0025 75.045 41.0025 77.669C41.0025 79.589 39.7865 81.445 37.8345 82.469C40.0745 83.493 41.6745 85.637 41.6745 87.973C41.6745 91.013 39.0505 93.445 35.5625 93.445C32.1385 93.445 29.4825 91.077 29.4825 88.101C29.4825 85.797 31.1145 83.621 33.4825 82.501C31.6905 81.573 30.4425 79.813 30.4425 77.829C30.4425 75.141 32.7785 72.933 35.8185 72.933ZM35.1465 83.429C33.2585 84.197 31.7865 85.925 31.7865 87.813C31.7865 89.797 33.4825 91.429 35.6585 91.429C37.7705 91.429 39.4345 89.861 39.4345 87.941C39.4345 85.989 37.7065 84.229 35.1465 83.429ZM35.6585 74.821C33.9305 74.821 32.5865 76.101 32.5865 77.669C32.5865 80.325 36.1065 81.669 36.1065 81.669C37.6425 80.837 38.8265 79.333 38.8265 77.797C38.8265 76.133 37.4505 74.821 35.6585 74.821Z" fill="#DEE3E6"/>
<rect x="385.875" y="330.75" width="55.125" height="55.125" fill="#93AAB5"/>
<path d="M407.006 348.782V368.782H404.766V351.566L400.766 352.75L400.254 351.502L405.47 348.782H407.006ZM416.83 348.814H426.942V350.83H418.718L418.398 356.59C419.422 356.078 420.574 355.79 421.661 355.79C424.99 355.79 427.678 358.19 427.678 362.446C427.678 366.766 424.862 369.102 421.406 369.102C419.038 369.102 416.83 368.014 415.486 366.062L417.47 364.558C417.758 364.75 417.566 365.07 417.694 365.326C417.79 365.518 419.23 367.15 421.374 367.15C423.518 367.15 425.406 365.486 425.406 362.414C425.406 359.246 423.39 357.646 421.31 357.646C419.966 357.646 418.526 358.318 417.566 359.534L416.126 358.958L416.83 348.814Z" fill="#DEE3E6"/>
<rect x="385.875" y="220.5" width="55.125" height="55.125" fill="#93AAB5"/>
<path d="M410.59 243.556C410.59 245.508 409.374 247.204 407.582 247.876C409.63 248.612 411.038 250.66 411.038 253.028C411.038 256.132 408.702 258.852 404.894 258.852C402.91 258.852 400.99 258.02 399.646 256.548L401.342 254.532C401.63 254.82 401.502 255.14 401.758 255.46C401.886 255.62 403.006 256.804 404.862 256.804C407.198 256.804 408.862 254.916 408.862 252.74C408.862 250.372 406.878 248.964 404.19 248.964C403.838 248.964 403.518 248.996 403.198 249.028V247.236C405.086 247.236 405.982 246.884 406.334 246.724C407.71 246.116 408.446 244.804 408.446 243.588C408.446 241.892 407.038 240.484 404.99 240.484C403.742 240.484 402.462 241.028 401.534 242.02L400.318 240.612C401.566 239.268 403.294 238.5 405.086 238.5C408.254 238.5 410.59 240.836 410.59 243.556ZM423.006 238.532V258.532H420.766V241.316L416.766 242.5L416.254 241.252L421.47 238.532H423.006Z" fill="#DEE3E6"/>
<rect x="385.875" y="110.25" width="55.125" height="55.125" fill="#93AAB5"/>
<path d="M407.454 128.282H409.342V140.762H411.902V142.746H409.342V148.25H407.006V142.746H398.974V141.05L407.454 128.282ZM407.038 131.834L401.182 140.762H407.038V131.834ZM415.966 128.314H427.262V129.562C425.918 132.634 424.638 135.738 423.454 138.906C422.302 141.978 421.246 145.114 420.286 148.25H417.758C418.942 144.666 420.222 141.114 421.566 137.594C422.494 135.194 423.486 132.794 424.478 130.426H415.966V128.314Z" fill="#DEE3E6"/>
<rect x="385.875" width="55.125" height="55.125" fill="#93AAB5"/>
<path d="M406.622 17.84C408.254 17.84 409.822 18.512 411.006 19.664L409.438 21.36C409.15 21.136 409.15 20.848 408.958 20.656C408.83 20.528 407.998 19.824 406.654 19.824C405.214 19.824 401.918 20.72 401.79 27.536C402.654 26.064 404.318 25.136 406.046 25.136C408.862 25.136 411.486 27.504 411.486 31.664C411.486 35.76 408.862 38.32 405.822 38.32C404.03 38.32 402.238 37.456 401.086 35.696C399.806 33.744 399.582 31.248 399.582 28.912C399.582 26.992 399.774 24.688 400.446 22.768C401.694 19.28 404.254 17.84 406.622 17.84ZM405.822 27.088C404.35 27.088 402.814 28.144 401.918 29.776C401.661 33.488 403.486 36.336 405.918 36.336C407.614 36.336 409.31 34.928 409.31 31.792C409.31 28.368 407.422 27.088 405.822 27.088ZM426.59 23.056C426.59 25.008 425.374 26.704 423.582 27.376C425.63 28.112 427.038 30.16 427.038 32.528C427.038 35.632 424.702 38.352 420.894 38.352C418.91 38.352 416.99 37.52 415.646 36.048L417.342 34.032C417.63 34.32 417.502 34.64 417.758 34.96C417.886 35.12 419.006 36.304 420.862 36.304C423.198 36.304 424.862 34.416 424.862 32.24C424.862 29.872 422.878 28.464 420.19 28.464C419.838 28.464 419.518 28.496 419.198 28.528V26.736C421.086 26.736 421.982 26.384 422.334 26.224C423.71 25.616 424.446 24.304 424.446 23.088C424.446 21.392 423.038 19.984 420.99 19.984C419.742 19.984 418.462 20.528 417.534 21.52L416.318 20.112C417.566 18.768 419.294 18 421.086 18C424.254 18 426.59 20.336 426.59 23.056Z" fill="#DEE3E6"/>
<rect x="220.5" y="385.875" width="55.125" height="55.125" fill="#93AAB5"/>
<path d="M250.079 403.907H251.967V416.387H254.527V418.371H251.967V423.875H249.631V418.371H241.599V416.675L250.079 403.907ZM249.663 407.459L243.807 416.387H249.663V407.459Z" fill="#DEE3E6"/>
<rect x="220.5" y="275.625" width="55.125" height="55.125" fill="#93AAB5"/>
<path d="M234.559 296.793C235.743 294.777 237.855 293.561 240.127 293.561C243.391 293.561 245.919 296.057 245.919 299.161C245.919 302.041 243.871 304.057 242.399 305.433C240.959 306.777 238.655 308.761 236.991 311.673H245.343C245.471 311.673 245.567 311.641 245.695 311.545C245.759 311.481 245.919 311.321 246.111 311.385V313.625H234.399V312.217C236.062 308.889 237.919 306.841 240.191 304.793C241.631 303.481 243.679 301.753 243.679 299.321C243.679 297.177 241.983 295.545 239.871 295.545C238.143 295.545 236.927 296.601 236.447 297.337C236.286 297.593 236.351 297.817 236.159 298.073L234.559 296.793ZM256.095 293.561C259.167 293.561 262.463 297.177 262.463 303.993C262.463 310.841 259.007 313.977 256.127 313.977C252.959 313.977 249.663 310.265 249.663 303.801C249.663 297.433 252.927 293.561 256.095 293.561ZM259.231 298.105C258.367 296.345 257.151 295.513 256.062 295.513C254.079 295.513 251.743 298.329 251.743 303.417C251.743 304.825 251.903 306.105 252.191 307.193L259.231 298.105ZM259.967 300.249L252.927 309.209C253.791 310.969 255.039 311.929 256.223 311.929C257.983 311.929 260.383 309.817 260.383 304.249C260.383 302.713 260.223 301.369 259.967 300.249Z" fill="#DEE3E6"/>
<rect x="220.5" y="165.375" width="55.125" height="55.125" fill="#93AAB5"/>
<path d="M245.215 188.431C245.215 190.383 243.999 192.079 242.207 192.751C244.255 193.487 245.663 195.535 245.663 197.903C245.663 201.007 243.327 203.727 239.519 203.727C237.535 203.727 235.615 202.895 234.271 201.423L235.967 199.407C236.255 199.695 236.127 200.015 236.383 200.335C236.511 200.495 237.631 201.679 239.487 201.679C241.823 201.679 243.487 199.791 243.487 197.615C243.487 195.247 241.503 193.839 238.815 193.839C238.463 193.839 238.143 193.871 237.823 193.903V192.111C239.711 192.111 240.607 191.759 240.959 191.599C242.335 190.991 243.071 189.679 243.071 188.463C243.071 186.767 241.663 185.359 239.615 185.359C238.367 185.359 237.087 185.903 236.159 186.895L234.943 185.487C236.191 184.143 237.919 183.375 239.711 183.375C242.879 183.375 245.215 185.711 245.215 188.431ZM257.247 183.215C258.879 183.215 260.447 183.887 261.631 185.039L260.063 186.735C259.775 186.511 259.775 186.223 259.583 186.031C259.455 185.903 258.623 185.199 257.279 185.199C255.839 185.199 252.543 186.095 252.415 192.911C253.279 191.439 254.943 190.511 256.671 190.511C259.487 190.511 262.111 192.879 262.111 197.039C262.111 201.135 259.487 203.695 256.447 203.695C254.655 203.695 252.863 202.831 251.711 201.071C250.431 199.119 250.207 196.623 250.207 194.287C250.207 192.367 250.399 190.063 251.071 188.143C252.319 184.655 254.879 183.215 257.247 183.215ZM256.447 192.463C254.975 192.463 253.439 193.519 252.543 195.151C252.286 198.863 254.111 201.711 256.543 201.711C258.239 201.711 259.935 200.303 259.935 197.167C259.935 193.743 258.047 192.463 256.447 192.463Z" fill="#DEE3E6"/>
<rect x="220.5" y="55.125" width="55.125" height="55.125" fill="#93AAB5"/>
<path d="M235.455 73.189H245.567V75.205H237.343L237.023 80.965C238.047 80.453 239.199 80.165 240.286 80.165C243.615 80.165 246.303 82.565 246.303 86.821C246.303 91.141 243.487 93.477 240.031 93.477C237.663 93.477 235.455 92.389 234.111 90.437L236.095 88.933C236.383 89.125 236.191 89.445 236.319 89.701C236.415 89.893 237.855 91.525 239.999 91.525C242.143 91.525 244.031 89.861 244.031 86.789C244.031 83.621 242.015 82.021 239.935 82.021C238.591 82.021 237.151 82.693 236.191 83.909L234.751 83.333L235.455 73.189ZM250.559 76.293C251.743 74.277 253.855 73.061 256.127 73.061C259.391 73.061 261.919 75.557 261.919 78.661C261.919 81.541 259.871 83.557 258.399 84.933C256.959 86.277 254.655 88.261 252.991 91.173H261.343C261.471 91.173 261.567 91.141 261.695 91.045C261.759 90.981 261.919 90.821 262.111 90.885V93.125H250.399V91.717C252.062 88.389 253.919 86.341 256.191 84.293C257.631 82.981 259.679 81.253 259.679 78.821C259.679 76.677 257.983 75.045 255.871 75.045C254.143 75.045 252.927 76.101 252.447 76.837C252.286 77.093 252.351 77.317 252.159 77.573L250.559 76.293Z" fill="#DEE3E6"/>
<rect x="165.375" y="330.75" width="55.125" height="55.125" fill="#93AAB5"/>
<path d="M186.506 348.782V368.782H184.266V351.566L180.266 352.75L179.754 351.502L184.97 348.782H186.506ZM202.506 348.782V368.782H200.266V351.566L196.266 352.75L195.754 351.502L200.97 348.782H202.506Z" fill="#DEE3E6"/>
<rect x="165.375" y="220.5" width="55.125" height="55.125" fill="#93AAB5"/>
<path d="M179.434 241.668C180.618 239.652 182.73 238.436 185.002 238.436C188.266 238.436 190.794 240.932 190.794 244.036C190.794 246.916 188.746 248.932 187.274 250.308C185.834 251.652 183.53 253.636 181.866 256.548H190.218C190.346 256.548 190.442 256.516 190.57 256.42C190.634 256.356 190.794 256.196 190.986 256.26V258.5H179.274V257.092C180.938 253.764 182.794 251.716 185.066 249.668C186.506 248.356 188.554 246.628 188.554 244.196C188.554 242.052 186.858 240.42 184.746 240.42C183.018 240.42 181.802 241.476 181.322 242.212C181.161 242.468 181.226 242.692 181.034 242.948L179.434 241.668ZM195.466 238.564H206.762V239.812C205.418 242.884 204.138 245.988 202.954 249.156C201.802 252.228 200.746 255.364 199.786 258.5H197.258C198.442 254.916 199.722 251.364 201.066 247.844C201.994 245.444 202.986 243.044 203.978 240.676H195.466V238.564Z" fill="#DEE3E6"/>
<rect x="165.375" y="110.25" width="55.125" height="55.125" fill="#93AAB5"/>
<path d="M186.954 128.282H188.842V140.762H191.402V142.746H188.842V148.25H186.506V142.746H178.474V141.05L186.954 128.282ZM186.538 131.834L180.682 140.762H186.538V131.834ZM206.09 133.306C206.09 135.258 204.874 136.954 203.082 137.626C205.13 138.362 206.538 140.41 206.538 142.778C206.538 145.882 204.202 148.602 200.394 148.602C198.41 148.602 196.49 147.77 195.146 146.298L196.842 144.282C197.13 144.57 197.002 144.89 197.258 145.21C197.386 145.37 198.506 146.554 200.362 146.554C202.698 146.554 204.362 144.666 204.362 142.49C204.362 140.122 202.378 138.714 199.69 138.714C199.338 138.714 199.018 138.746 198.698 138.778V136.986C200.586 136.986 201.482 136.634 201.834 136.474C203.21 135.866 203.946 134.554 203.946 133.338C203.946 131.642 202.538 130.234 200.49 130.234C199.242 130.234 197.962 130.778 197.034 131.77L195.818 130.362C197.066 129.018 198.794 128.25 200.586 128.25C203.754 128.25 206.09 130.586 206.09 133.306Z" fill="#DEE3E6"/>
<rect x="165.375" width="55.125" height="55.125" fill="#93AAB5"/>
<path d="M180.33 18.064H190.442V20.08H182.218L181.898 25.84C182.922 25.328 184.074 25.04 185.161 25.04C188.49 25.04 191.178 27.44 191.178 31.696C191.178 36.016 188.362 38.352 184.906 38.352C182.538 38.352 180.33 37.264 178.986 35.312L180.97 33.808C181.258 34 181.066 34.32 181.194 34.576C181.29 34.768 182.73 36.4 184.874 36.4C187.018 36.4 188.906 34.736 188.906 31.664C188.906 28.496 186.89 26.896 184.81 26.896C183.466 26.896 182.026 27.568 181.066 28.784L179.626 28.208L180.33 18.064ZM199.882 38.32C198.25 38.32 196.682 37.712 195.498 36.528L197.034 34.8C197.386 35.024 197.29 35.376 197.546 35.568C197.546 35.568 198.506 36.304 199.946 36.304C201.385 36.304 203.018 35.568 203.882 33.552C204.074 33.04 204.618 31.728 204.714 28.624C203.786 29.968 202.218 30.768 200.586 30.768C197.706 30.768 195.114 28.304 195.114 24.464C195.114 20.592 197.738 17.872 200.842 17.872C202.922 17.872 205.226 19.152 206.25 22.192C206.73 23.536 206.922 25.296 206.922 27.792C206.922 31.056 206.442 32.752 206.09 33.68C204.874 36.88 202.314 38.32 199.882 38.32ZM200.81 28.816C202.25 28.816 203.722 27.856 204.586 26.384C204.938 22.352 203.05 19.856 200.778 19.856C198.954 19.856 197.29 21.456 197.29 24.368C197.29 27.344 199.018 28.816 200.81 28.816Z" fill="#DEE3E6"/>
<rect x="110.25" y="385.875" width="55.125" height="55.125" fill="#93AAB5"/>
<path d="M132.309 407.043C133.493 405.027 135.605 403.811 137.877 403.811C141.141 403.811 143.669 406.307 143.669 409.411C143.669 412.291 141.621 414.307 140.149 415.683C138.709 417.027 136.405 419.011 134.741 421.923H143.093C143.221 421.923 143.317 421.891 143.445 421.795C143.509 421.731 143.669 421.571 143.861 421.635V423.875H132.149V422.467C133.812 419.139 135.669 417.091 137.941 415.043C139.381 413.731 141.429 412.003 141.429 409.571C141.429 407.427 139.733 405.795 137.621 405.795C135.893 405.795 134.677 406.851 134.197 407.587C134.036 407.843 134.101 408.067 133.909 408.323L132.309 407.043Z" fill="#DEE3E6"/>
<rect x="110.25" y="275.625" width="55.125" height="55.125" fill="#93AAB5"/>
<path d="M131.381 293.657V313.657H129.141V296.441L125.141 297.625L124.629 296.377L129.845 293.657H131.381ZM146.069 293.433C148.981 293.433 151.253 295.545 151.253 298.169C151.253 300.089 150.037 301.945 148.085 302.969C150.325 303.993 151.925 306.137 151.925 308.473C151.925 311.513 149.301 313.945 145.812 313.945C142.389 313.945 139.733 311.577 139.733 308.601C139.733 306.297 141.365 304.121 143.733 303.001C141.941 302.073 140.693 300.313 140.693 298.329C140.693 295.641 143.029 293.433 146.069 293.433ZM145.397 303.929C143.509 304.697 142.036 306.425 142.036 308.313C142.036 310.297 143.733 311.929 145.909 311.929C148.021 311.929 149.685 310.361 149.685 308.441C149.685 306.489 147.957 304.729 145.397 303.929ZM145.909 295.321C144.181 295.321 142.837 296.601 142.837 298.169C142.837 300.825 146.357 302.169 146.357 302.169C147.893 301.337 149.077 299.833 149.077 298.297C149.077 296.633 147.701 295.321 145.909 295.321Z" fill="#DEE3E6"/>
<rect x="110.25" y="165.375" width="55.125" height="55.125" fill="#93AAB5"/>
<path d="M134.965 188.431C134.965 190.383 133.749 192.079 131.957 192.751C134.005 193.487 135.413 195.535 135.413 197.903C135.413 201.007 133.077 203.727 129.269 203.727C127.285 203.727 125.365 202.895 124.021 201.423L125.717 199.407C126.005 199.695 125.877 200.015 126.133 200.335C126.261 200.495 127.381 201.679 129.237 201.679C131.573 201.679 133.237 199.791 133.237 197.615C133.237 195.247 131.253 193.839 128.565 193.839C128.213 193.839 127.893 193.871 127.573 193.903V192.111C129.461 192.111 130.357 191.759 130.709 191.599C132.085 190.991 132.821 189.679 132.821 188.463C132.821 186.767 131.413 185.359 129.365 185.359C128.117 185.359 126.837 185.903 125.909 186.895L124.693 185.487C125.941 184.143 127.669 183.375 129.461 183.375C132.629 183.375 134.965 185.711 134.965 188.431ZM147.829 183.407H149.717V195.887H152.277V197.871H149.717V203.375H147.381V197.871H139.349V196.175L147.829 183.407ZM147.413 186.959L141.557 195.887H147.413V186.959Z" fill="#DEE3E6"/>
<rect x="110.25" y="55.125" width="55.125" height="55.125" fill="#93AAB5"/>
<path d="M125.205 73.189H135.317V75.205H127.093L126.773 80.965C127.797 80.453 128.949 80.165 130.036 80.165C133.365 80.165 136.053 82.565 136.053 86.821C136.053 91.141 133.237 93.477 129.781 93.477C127.413 93.477 125.205 92.389 123.861 90.437L125.845 88.933C126.133 89.125 125.941 89.445 126.069 89.701C126.165 89.893 127.605 91.525 129.749 91.525C131.893 91.525 133.781 89.861 133.781 86.789C133.781 83.621 131.765 82.021 129.685 82.021C128.341 82.021 126.901 82.693 125.941 83.909L124.501 83.333L125.205 73.189ZM145.845 73.061C148.917 73.061 152.213 76.677 152.213 83.493C152.213 90.341 148.757 93.477 145.877 93.477C142.709 93.477 139.413 89.765 139.413 83.301C139.413 76.933 142.677 73.061 145.845 73.061ZM148.981 77.605C148.117 75.845 146.901 75.013 145.812 75.013C143.829 75.013 141.493 77.829 141.493 82.917C141.493 84.325 141.653 85.605 141.941 86.693L148.981 77.605ZM149.717 79.749L142.677 88.709C143.541 90.469 144.789 91.429 145.973 91.429C147.733 91.429 150.133 89.317 150.133 83.749C150.133 82.213 149.973 80.869 149.717 79.749Z" fill="#DEE3E6"/>
<rect x="55.125" y="330.75" width="55.125" height="55.125" fill="#93AAB5"/>
<path d="M81.6315 369.07C79.9995 369.07 78.4315 368.462 77.2475 367.278L78.7835 365.55C79.1355 365.774 79.0395 366.126 79.2955 366.318C79.2955 366.318 80.2555 367.054 81.6955 367.054C83.1355 367.054 84.7675 366.318 85.6315 364.302C85.8235 363.79 86.3675 362.478 86.4635 359.374C85.5355 360.718 83.9675 361.518 82.3355 361.518C79.4555 361.518 76.8635 359.054 76.8635 355.214C76.8635 351.342 79.4875 348.622 82.5915 348.622C84.6715 348.622 86.9755 349.902 87.9995 352.942C88.4795 354.286 88.6715 356.046 88.6715 358.542C88.6715 361.806 88.1915 363.502 87.8395 364.43C86.6235 367.63 84.0635 369.07 81.6315 369.07ZM82.5595 359.566C83.9995 359.566 85.4715 358.606 86.3355 357.134C86.6875 353.102 84.7995 350.606 82.5275 350.606C80.7035 350.606 79.0395 352.206 79.0395 355.118C79.0395 358.094 80.7675 359.566 82.5595 359.566Z" fill="#DEE3E6"/>
<rect x="55.125" y="220.5" width="55.125" height="55.125" fill="#93AAB5"/>
<path d="M69.1835 241.668C70.3675 239.652 72.4795 238.436 74.7515 238.436C78.0155 238.436 80.5435 240.932 80.5435 244.036C80.5435 246.916 78.4955 248.932 77.0235 250.308C75.5835 251.652 73.2795 253.636 71.6155 256.548H79.9675C80.0955 256.548 80.1915 256.516 80.3195 256.42C80.3835 256.356 80.5435 256.196 80.7355 256.26V258.5H69.0235V257.092C70.6875 253.764 72.5435 251.716 74.8155 249.668C76.2555 248.356 78.3035 246.628 78.3035 244.196C78.3035 242.052 76.6075 240.42 74.4955 240.42C72.7675 240.42 71.5515 241.476 71.0715 242.212C70.9115 242.468 70.9755 242.692 70.7835 242.948L69.1835 241.668ZM86.0795 238.564H96.1915V240.58H87.9675L87.6475 246.34C88.6715 245.828 89.8235 245.54 90.9115 245.54C94.2395 245.54 96.9275 247.94 96.9275 252.196C96.9275 256.516 94.1115 258.852 90.6555 258.852C88.2875 258.852 86.0795 257.764 84.7355 255.812L86.7195 254.308C87.0075 254.5 86.8155 254.82 86.9435 255.076C87.0395 255.268 88.4795 256.9 90.6235 256.9C92.7675 256.9 94.6555 255.236 94.6555 252.164C94.6555 248.996 92.6395 247.396 90.5595 247.396C89.2155 247.396 87.7755 248.068 86.8155 249.284L85.3755 248.708L86.0795 238.564Z" fill="#DEE3E6"/>
<rect x="55.125" y="110.25" width="55.125" height="55.125" fill="#93AAB5"/>
<path d="M76.7035 128.282H78.5915V140.762H81.1515V142.746H78.5915V148.25H76.2555V142.746H68.2235V141.05L76.7035 128.282ZM76.2875 131.834L70.4315 140.762H76.2875V131.834ZM92.2555 128.282V148.282H90.0155V131.066L86.0155 132.25L85.5035 131.002L90.7195 128.282H92.2555Z" fill="#DEE3E6"/>
<rect x="55.125" width="55.125" height="55.125" fill="#93AAB5"/>
<path d="M70.0795 18.064H80.1915V20.08H71.9675L71.6475 25.84C72.6715 25.328 73.8235 25.04 74.9115 25.04C78.2395 25.04 80.9275 27.44 80.9275 31.696C80.9275 36.016 78.1115 38.352 74.6555 38.352C72.2875 38.352 70.0795 37.264 68.7355 35.312L70.7195 33.808C71.0075 34 70.8155 34.32 70.9435 34.576C71.0395 34.768 72.4795 36.4 74.6235 36.4C76.7675 36.4 78.6555 34.736 78.6555 31.664C78.6555 28.496 76.6395 26.896 74.5595 26.896C73.2155 26.896 71.7755 27.568 70.8155 28.784L69.3755 28.208L70.0795 18.064ZM85.2155 18.064H96.5115V19.312C95.1675 22.384 93.8875 25.488 92.7035 28.656C91.5515 31.728 90.4955 34.864 89.5355 38H87.0075C88.1915 34.416 89.4715 30.864 90.8155 27.344C91.7435 24.944 92.7355 22.544 93.7275 20.176H85.2155V18.064Z" fill="#DEE3E6"/>
<rect x="330.75" y="385.875" width="55.125" height="55.125" fill="#93AAB5"/>
<path d="M359.497 403.715C361.129 403.715 362.697 404.387 363.881 405.539L362.313 407.235C362.025 407.011 362.025 406.723 361.833 406.531C361.705 406.403 360.873 405.699 359.529 405.699C358.089 405.699 354.793 406.595 354.665 413.411C355.529 411.939 357.193 411.011 358.921 411.011C361.737 411.011 364.361 413.379 364.361 417.539C364.361 421.635 361.737 424.195 358.697 424.195C356.905 424.195 355.113 423.331 353.961 421.571C352.681 419.619 352.457 417.123 352.457 414.787C352.457 412.867 352.649 410.563 353.321 408.643C354.569 405.155 357.129 403.715 359.497 403.715ZM358.697 412.963C357.225 412.963 355.689 414.019 354.793 415.651C354.536 419.363 356.361 422.211 358.793 422.211C360.489 422.211 362.185 420.803 362.185 417.667C362.185 414.243 360.297 412.963 358.697 412.963Z" fill="#DEE3E6"/>
<rect x="330.75" y="275.625" width="55.125" height="55.125" fill="#93AAB5"/>
<path d="M344.809 296.793C345.993 294.777 348.105 293.561 350.377 293.561C353.641 293.561 356.169 296.057 356.169 299.161C356.169 302.041 354.121 304.057 352.649 305.433C351.209 306.777 348.905 308.761 347.241 311.673H355.593C355.721 311.673 355.817 311.641 355.945 311.545C356.009 311.481 356.169 311.321 356.361 311.385V313.625H344.649V312.217C346.312 308.889 348.169 306.841 350.441 304.793C351.881 303.481 353.929 301.753 353.929 299.321C353.929 297.177 352.233 295.545 350.121 295.545C348.393 295.545 347.177 296.601 346.697 297.337C346.536 297.593 346.601 297.817 346.409 298.073L344.809 296.793ZM360.809 296.793C361.993 294.777 364.105 293.561 366.377 293.561C369.641 293.561 372.169 296.057 372.169 299.161C372.169 302.041 370.121 304.057 368.649 305.433C367.209 306.777 364.905 308.761 363.241 311.673H371.593C371.721 311.673 371.817 311.641 371.945 311.545C372.009 311.481 372.169 311.321 372.361 311.385V313.625H360.649V312.217C362.312 308.889 364.169 306.841 366.441 304.793C367.881 303.481 369.929 301.753 369.929 299.321C369.929 297.177 368.233 295.545 366.121 295.545C364.393 295.545 363.177 296.601 362.697 297.337C362.536 297.593 362.601 297.817 362.409 298.073L360.809 296.793Z" fill="#DEE3E6"/>
<rect x="330.75" y="165.375" width="55.125" height="55.125" fill="#93AAB5"/>
<path d="M355.465 188.431C355.465 190.383 354.249 192.079 352.457 192.751C354.505 193.487 355.913 195.535 355.913 197.903C355.913 201.007 353.577 203.727 349.769 203.727C347.785 203.727 345.865 202.895 344.521 201.423L346.217 199.407C346.505 199.695 346.377 200.015 346.633 200.335C346.761 200.495 347.881 201.679 349.737 201.679C352.073 201.679 353.737 199.791 353.737 197.615C353.737 195.247 351.753 193.839 349.065 193.839C348.713 193.839 348.393 193.871 348.073 193.903V192.111C349.961 192.111 350.857 191.759 351.209 191.599C352.585 190.991 353.321 189.679 353.321 188.463C353.321 186.767 351.913 185.359 349.865 185.359C348.617 185.359 347.337 185.903 346.409 186.895L345.193 185.487C346.441 184.143 348.169 183.375 349.961 183.375C353.129 183.375 355.465 185.711 355.465 188.431ZM366.569 183.183C369.481 183.183 371.753 185.295 371.753 187.919C371.753 189.839 370.537 191.695 368.585 192.719C370.825 193.743 372.425 195.887 372.425 198.223C372.425 201.263 369.801 203.695 366.312 203.695C362.889 203.695 360.233 201.327 360.233 198.351C360.233 196.047 361.865 193.871 364.233 192.751C362.441 191.823 361.193 190.063 361.193 188.079C361.193 185.391 363.529 183.183 366.569 183.183ZM365.897 193.679C364.009 194.447 362.536 196.175 362.536 198.063C362.536 200.047 364.233 201.679 366.409 201.679C368.521 201.679 370.185 200.111 370.185 198.191C370.185 196.239 368.457 194.479 365.897 193.679ZM366.409 185.071C364.681 185.071 363.337 186.351 363.337 187.919C363.337 190.575 366.857 191.919 366.857 191.919C368.393 191.087 369.577 189.583 369.577 188.047C369.577 186.383 368.201 185.071 366.409 185.071Z" fill="#DEE3E6"/>
<rect x="330.75" y="55.125" width="55.125" height="55.125" fill="#93AAB5"/>
<path d="M345.705 73.189H355.817V75.205H347.593L347.273 80.965C348.297 80.453 349.449 80.165 350.536 80.165C353.865 80.165 356.553 82.565 356.553 86.821C356.553 91.141 353.737 93.477 350.281 93.477C347.913 93.477 345.705 92.389 344.361 90.437L346.345 88.933C346.633 89.125 346.441 89.445 346.569 89.701C346.665 89.893 348.105 91.525 350.249 91.525C352.393 91.525 354.281 89.861 354.281 86.789C354.281 83.621 352.265 82.021 350.185 82.021C348.841 82.021 347.401 82.693 346.441 83.909L345.001 83.333L345.705 73.189ZM368.329 73.157H370.217V85.637H372.777V87.621H370.217V93.125H367.881V87.621H359.849V85.925L368.329 73.157ZM367.913 76.709L362.057 85.637H367.913V76.709Z" fill="#DEE3E6"/>
<rect x="275.625" y="330.75" width="55.125" height="55.125" fill="#93AAB5"/>
<path d="M296.756 348.782V368.782H294.516V351.566L290.516 352.75L290.004 351.502L295.22 348.782H296.756ZM316.34 353.806C316.34 355.758 315.124 357.454 313.332 358.126C315.38 358.862 316.788 360.91 316.788 363.278C316.788 366.382 314.452 369.102 310.644 369.102C308.66 369.102 306.74 368.27 305.396 366.798L307.092 364.782C307.38 365.07 307.252 365.39 307.508 365.71C307.636 365.87 308.756 367.054 310.612 367.054C312.948 367.054 314.612 365.166 314.612 362.99C314.612 360.622 312.628 359.214 309.94 359.214C309.588 359.214 309.268 359.246 308.948 359.278V357.486C310.836 357.486 311.732 357.134 312.084 356.974C313.46 356.366 314.196 355.054 314.196 353.838C314.196 352.142 312.788 350.734 310.74 350.734C309.492 350.734 308.212 351.278 307.284 352.27L306.068 350.862C307.316 349.518 309.044 348.75 310.836 348.75C314.004 348.75 316.34 351.086 316.34 353.806Z" fill="#DEE3E6"/>
<rect x="275.625" y="220.5" width="55.125" height="55.125" fill="#93AAB5"/>
<path d="M289.684 241.668C290.868 239.652 292.98 238.436 295.252 238.436C298.516 238.436 301.044 240.932 301.044 244.036C301.044 246.916 298.996 248.932 297.524 250.308C296.084 251.652 293.78 253.636 292.116 256.548H300.468C300.596 256.548 300.692 256.516 300.82 256.42C300.884 256.356 301.044 256.196 301.236 256.26V258.5H289.524V257.092C291.188 253.764 293.044 251.716 295.316 249.668C296.756 248.356 298.804 246.628 298.804 244.196C298.804 242.052 297.108 240.42 294.996 240.42C293.268 240.42 292.052 241.476 291.572 242.212C291.411 242.468 291.476 242.692 291.284 242.948L289.684 241.668ZM310.132 258.82C308.5 258.82 306.932 258.212 305.748 257.028L307.284 255.3C307.636 255.524 307.54 255.876 307.796 256.068C307.796 256.068 308.756 256.804 310.196 256.804C311.635 256.804 313.268 256.068 314.132 254.052C314.324 253.54 314.868 252.228 314.964 249.124C314.036 250.468 312.468 251.268 310.836 251.268C307.956 251.268 305.364 248.804 305.364 244.964C305.364 241.092 307.988 238.372 311.092 238.372C313.172 238.372 315.476 239.652 316.5 242.692C316.98 244.036 317.172 245.796 317.172 248.292C317.172 251.556 316.692 253.252 316.34 254.18C315.124 257.38 312.564 258.82 310.132 258.82ZM311.06 249.316C312.5 249.316 313.972 248.356 314.836 246.884C315.188 242.852 313.3 240.356 311.028 240.356C309.204 240.356 307.54 241.956 307.54 244.868C307.54 247.844 309.268 249.316 311.06 249.316Z" fill="#DEE3E6"/>
<rect x="275.625" y="110.25" width="55.125" height="55.125" fill="#93AAB5"/>
<path d="M297.204 128.282H299.092V140.762H301.652V142.746H299.092V148.25H296.756V142.746H288.724V141.05L297.204 128.282ZM296.788 131.834L290.932 140.762H296.788V131.834ZM306.58 128.314H316.692V130.33H308.468L308.148 136.09C309.172 135.578 310.324 135.29 311.411 135.29C314.74 135.29 317.428 137.69 317.428 141.946C317.428 146.266 314.612 148.602 311.156 148.602C308.788 148.602 306.58 147.514 305.236 145.562L307.22 144.058C307.508 144.25 307.316 144.57 307.444 144.826C307.54 145.018 308.98 146.65 311.124 146.65C313.268 146.65 315.156 144.986 315.156 141.914C315.156 138.746 313.14 137.146 311.06 137.146C309.716 137.146 308.276 137.818 307.316 139.034L305.876 138.458L306.58 128.314Z" fill="#DEE3E6"/>
<rect x="275.625" width="55.125" height="55.125" fill="#93AAB5"/>
<path d="M296.372 17.84C298.004 17.84 299.572 18.512 300.756 19.664L299.188 21.36C298.9 21.136 298.9 20.848 298.708 20.656C298.58 20.528 297.748 19.824 296.404 19.824C294.964 19.824 291.668 20.72 291.54 27.536C292.404 26.064 294.068 25.136 295.796 25.136C298.612 25.136 301.236 27.504 301.236 31.664C301.236 35.76 298.612 38.32 295.572 38.32C293.78 38.32 291.988 37.456 290.836 35.696C289.556 33.744 289.332 31.248 289.332 28.912C289.332 26.992 289.524 24.688 290.196 22.768C291.444 19.28 294.004 17.84 296.372 17.84ZM295.572 27.088C294.1 27.088 292.564 28.144 291.668 29.776C291.411 33.488 293.236 36.336 295.668 36.336C297.364 36.336 299.06 34.928 299.06 31.792C299.06 28.368 297.172 27.088 295.572 27.088ZM312.756 18.032V38.032H310.516V20.816L306.516 22L306.004 20.752L311.22 18.032H312.756Z" fill="#DEE3E6"/>
<rect x="55.125" y="385.875" width="55.125" height="55.125" fill="#DEE3E6"/>
<path d="M84.2555 403.907V423.907H82.0155V406.691L78.0155 407.875L77.5035 406.627L82.7195 403.907H84.2555Z" fill="#93AAB5"/>
<rect x="55.125" y="275.625" width="55.125" height="55.125" fill="#DEE3E6"/>
<path d="M76.2555 293.657V313.657H74.0155V296.441L70.0155 297.625L69.5035 296.377L74.7195 293.657H76.2555ZM85.2155 293.689H96.5115V294.937C95.1675 298.009 93.8875 301.113 92.7035 304.281C91.5515 307.353 90.4955 310.489 89.5355 313.625H87.0075C88.1915 310.041 89.4715 306.489 90.8155 302.969C91.7435 300.569 92.7355 298.169 93.7275 295.801H85.2155V293.689Z" fill="#93AAB5"/>
<rect x="55.125" y="165.375" width="55.125" height="55.125" fill="#DEE3E6"/>
<path d="M79.8395 188.431C79.8395 190.383 78.6235 192.079 76.8315 192.751C78.8795 193.487 80.2875 195.535 80.2875 197.903C80.2875 201.007 77.9515 203.727 74.1435 203.727C72.1595 203.727 70.2395 202.895 68.8955 201.423L70.5915 199.407C70.8795 199.695 70.7515 200.015 71.0075 200.335C71.1355 200.495 72.2555 201.679 74.1115 201.679C76.4475 201.679 78.1115 199.791 78.1115 197.615C78.1115 195.247 76.1275 193.839 73.4395 193.839C73.0875 193.839 72.7675 193.871 72.4475 193.903V192.111C74.3355 192.111 75.2315 191.759 75.5835 191.599C76.9595 190.991 77.6955 189.679 77.6955 188.463C77.6955 186.767 76.2875 185.359 74.2395 185.359C72.9915 185.359 71.7115 185.903 70.7835 186.895L69.5675 185.487C70.8155 184.143 72.5435 183.375 74.3355 183.375C77.5035 183.375 79.8395 185.711 79.8395 188.431ZM95.8395 188.431C95.8395 190.383 94.6235 192.079 92.8315 192.751C94.8795 193.487 96.2875 195.535 96.2875 197.903C96.2875 201.007 93.9515 203.727 90.1435 203.727C88.1595 203.727 86.2395 202.895 84.8955 201.423L86.5915 199.407C86.8795 199.695 86.7515 200.015 87.0075 200.335C87.1355 200.495 88.2555 201.679 90.1115 201.679C92.4475 201.679 94.1115 199.791 94.1115 197.615C94.1115 195.247 92.1275 193.839 89.4395 193.839C89.0875 193.839 88.7675 193.871 88.4475 193.903V192.111C90.3355 192.111 91.2315 191.759 91.5835 191.599C92.9595 190.991 93.6955 189.679 93.6955 188.463C93.6955 186.767 92.2875 185.359 90.2395 185.359C88.9915 185.359 87.7115 185.903 86.7835 186.895L85.5675 185.487C86.8155 184.143 88.5435 183.375 90.3355 183.375C93.5035 183.375 95.8395 185.711 95.8395 188.431Z" fill="#93AAB5"/>
<rect x="55.125" y="55.125" width="55.125" height="55.125" fill="#DEE3E6"/>
<path d="M76.7035 73.157H78.5915V85.637H81.1515V87.621H78.5915V93.125H76.2555V87.621H68.2235V85.925L76.7035 73.157ZM76.2875 76.709L70.4315 85.637H76.2875V76.709ZM89.6315 93.445C87.9995 93.445 86.4315 92.837 85.2475 91.653L86.7835 89.925C87.1355 90.149 87.0395 90.501 87.2955 90.693C87.2955 90.693 88.2555 91.429 89.6955 91.429C91.1355 91.429 92.7675 90.693 93.6315 88.677C93.8235 88.165 94.3675 86.853 94.4635 83.749C93.5355 85.093 91.9675 85.893 90.3355 85.893C87.4555 85.893 84.8635 83.429 84.8635 79.589C84.8635 75.717 87.4875 72.997 90.5915 72.997C92.6715 72.997 94.9755 74.277 95.9995 77.317C96.4795 78.661 96.6715 80.421 96.6715 82.917C96.6715 86.181 96.1915 87.877 95.8395 88.805C94.6235 92.005 92.0635 93.445 89.6315 93.445ZM90.5595 83.941C91.9995 83.941 93.4715 82.981 94.3355 81.509C94.6875 77.477 92.7995 74.981 90.5275 74.981C88.7035 74.981 87.0395 76.581 87.0395 79.493C87.0395 82.469 88.7675 83.941 90.5595 83.941Z" fill="#93AAB5"/>
<rect y="330.75" width="55.125" height="55.125" fill="#DEE3E6"/>
<path d="M27.8185 348.558C30.7305 348.558 33.0025 350.67 33.0025 353.294C33.0025 355.214 31.7865 357.07 29.8345 358.094C32.0745 359.118 33.6745 361.262 33.6745 363.598C33.6745 366.638 31.0505 369.07 27.5625 369.07C24.1385 369.07 21.4825 366.702 21.4825 363.726C21.4825 361.422 23.1145 359.246 25.4825 358.126C23.6905 357.198 22.4425 355.438 22.4425 353.454C22.4425 350.766 24.7785 348.558 27.8185 348.558ZM27.1465 359.054C25.2585 359.822 23.7865 361.55 23.7865 363.438C23.7865 365.422 25.4825 367.054 27.6585 367.054C29.7705 367.054 31.4345 365.486 31.4345 363.566C31.4345 361.614 29.7065 359.854 27.1465 359.054ZM27.6585 350.446C25.9305 350.446 24.5865 351.726 24.5865 353.294C24.5865 355.95 28.1065 357.294 28.1065 357.294C29.6425 356.462 30.8265 354.958 30.8265 353.422C30.8265 351.758 29.4505 350.446 27.6585 350.446Z" fill="#93AAB5"/>
<rect y="220.5" width="55.125" height="55.125" fill="#DEE3E6"/>
<path d="M14.0585 241.668C15.2425 239.652 17.3545 238.436 19.6265 238.436C22.8905 238.436 25.4185 240.932 25.4185 244.036C25.4185 246.916 23.3705 248.932 21.8985 250.308C20.4585 251.652 18.1545 253.636 16.4905 256.548H24.8425C24.9705 256.548 25.0665 256.516 25.1945 256.42C25.2585 256.356 25.4185 256.196 25.6105 256.26V258.5H13.8985V257.092C15.5625 253.764 17.4185 251.716 19.6905 249.668C21.1305 248.356 23.1785 246.628 23.1785 244.196C23.1785 242.052 21.4825 240.42 19.3705 240.42C17.6425 240.42 16.4265 241.476 15.9465 242.212C15.7865 242.468 15.8505 242.692 15.6585 242.948L14.0585 241.668ZM37.5785 238.532H39.4665V251.012H42.0265V252.996H39.4665V258.5H37.1305V252.996H29.0985V251.3L37.5785 238.532ZM37.1625 242.084L31.3065 251.012H37.1625V242.084Z" fill="#93AAB5"/>
<rect y="110.25" width="55.125" height="55.125" fill="#DEE3E6"/>
<path d="M21.5785 128.282H23.4665V140.762H26.0265V142.746H23.4665V148.25H21.1305V142.746H13.0985V141.05L21.5785 128.282ZM21.1625 131.834L15.3065 140.762H21.1625V131.834ZM35.5945 128.186C38.6665 128.186 41.9625 131.802 41.9625 138.618C41.9625 145.466 38.5065 148.602 35.6265 148.602C32.4585 148.602 29.1625 144.89 29.1625 138.426C29.1625 132.058 32.4265 128.186 35.5945 128.186ZM38.7305 132.73C37.8665 130.97 36.6505 130.138 35.5625 130.138C33.5785 130.138 31.2425 132.954 31.2425 138.042C31.2425 139.45 31.4025 140.73 31.6905 141.818L38.7305 132.73ZM39.4665 134.874L32.4265 143.834C33.2905 145.594 34.5385 146.554 35.7225 146.554C37.4825 146.554 39.8825 144.442 39.8825 138.874C39.8825 137.338 39.7225 135.994 39.4665 134.874Z" fill="#93AAB5"/>
<rect width="55.125" height="55.125" fill="#DEE3E6"/>
<path d="M14.9545 18.064H25.0665V20.08H16.8425L16.5225 25.84C17.5465 25.328 18.6985 25.04 19.7865 25.04C23.1145 25.04 25.8025 27.44 25.8025 31.696C25.8025 36.016 22.9865 38.352 19.5305 38.352C17.1625 38.352 14.9545 37.264 13.6105 35.312L15.5945 33.808C15.8825 34 15.6905 34.32 15.8185 34.576C15.9145 34.768 17.3545 36.4 19.4985 36.4C21.6425 36.4 23.5305 34.736 23.5305 31.664C23.5305 28.496 21.5145 26.896 19.4345 26.896C18.0905 26.896 16.6505 27.568 15.6905 28.784L14.2505 28.208L14.9545 18.064ZM36.7465 17.84C38.3785 17.84 39.9465 18.512 41.1305 19.664L39.5625 21.36C39.2745 21.136 39.2745 20.848 39.0825 20.656C38.9545 20.528 38.1225 19.824 36.7785 19.824C35.3385 19.824 32.0425 20.72 31.9145 27.536C32.7785 26.064 34.4425 25.136 36.1705 25.136C38.9865 25.136 41.6105 27.504 41.6105 31.664C41.6105 35.76 38.9865 38.32 35.9465 38.32C34.1545 38.32 32.3625 37.456 31.2105 35.696C29.9305 33.744 29.7065 31.248 29.7065 28.912C29.7065 26.992 29.8985 24.688 30.5705 22.768C31.8185 19.28 34.3785 17.84 36.7465 17.84ZM35.9465 27.088C34.4745 27.088 32.9385 28.144 32.0425 29.776C31.7865 33.488 33.6105 36.336 36.0425 36.336C37.7385 36.336 39.4345 34.928 39.4345 31.792C39.4345 28.368 37.5465 27.088 35.9465 27.088Z" fill="#93AAB5"/>
<rect x="275.625" y="385.875" width="55.125" height="55.125" fill="#DEE3E6"/>
<path d="M298.58 403.939H308.692V405.955H300.468L300.148 411.715C301.172 411.203 302.324 410.915 303.411 410.915C306.74 410.915 309.428 413.315 309.428 417.571C309.428 421.891 306.612 424.227 303.156 424.227C300.788 424.227 298.58 423.139 297.236 421.187L299.22 419.683C299.508 419.875 299.316 420.195 299.444 420.451C299.54 420.643 300.98 422.275 303.124 422.275C305.268 422.275 307.156 420.611 307.156 417.539C307.156 414.371 305.14 412.771 303.06 412.771C301.716 412.771 300.276 413.443 299.316 414.659L297.876 414.083L298.58 403.939Z" fill="#93AAB5"/>
<rect x="275.625" y="275.625" width="55.125" height="55.125" fill="#DEE3E6"/>
<path d="M289.684 296.793C290.868 294.777 292.98 293.561 295.252 293.561C298.516 293.561 301.044 296.057 301.044 299.161C301.044 302.041 298.996 304.057 297.524 305.433C296.084 306.777 293.78 308.761 292.116 311.673H300.468C300.596 311.673 300.692 311.641 300.82 311.545C300.884 311.481 301.044 311.321 301.236 311.385V313.625H289.524V312.217C291.188 308.889 293.044 306.841 295.316 304.793C296.756 303.481 298.804 301.753 298.804 299.321C298.804 297.177 297.108 295.545 294.996 295.545C293.268 295.545 292.052 296.601 291.572 297.337C291.411 297.593 291.476 297.817 291.284 298.073L289.684 296.793ZM312.756 293.657V313.657H310.516V296.441L306.516 297.625L306.004 296.377L311.22 293.657H312.756Z" fill="#93AAB5"/>
<rect x="275.625" y="165.375" width="55.125" height="55.125" fill="#DEE3E6"/>
<path d="M300.34 188.431C300.34 190.383 299.124 192.079 297.332 192.751C299.38 193.487 300.788 195.535 300.788 197.903C300.788 201.007 298.452 203.727 294.644 203.727C292.66 203.727 290.74 202.895 289.396 201.423L291.092 199.407C291.38 199.695 291.252 200.015 291.508 200.335C291.636 200.495 292.756 201.679 294.612 201.679C296.948 201.679 298.612 199.791 298.612 197.615C298.612 195.247 296.628 193.839 293.94 193.839C293.588 193.839 293.268 193.871 292.948 193.903V192.111C294.836 192.111 295.732 191.759 296.084 191.599C297.46 190.991 298.196 189.679 298.196 188.463C298.196 186.767 296.788 185.359 294.74 185.359C293.492 185.359 292.212 185.903 291.284 186.895L290.068 185.487C291.316 184.143 293.044 183.375 294.836 183.375C298.004 183.375 300.34 185.711 300.34 188.431ZM305.716 183.439H317.012V184.687C315.668 187.759 314.388 190.863 313.204 194.031C312.052 197.103 310.996 200.239 310.036 203.375H307.508C308.692 199.791 309.972 196.239 311.316 192.719C312.244 190.319 313.236 187.919 314.228 185.551H305.716V183.439Z" fill="#93AAB5"/>
<rect x="275.625" y="55.125" width="55.125" height="55.125" fill="#DEE3E6"/>
<path d="M290.58 73.189H300.692V75.205H292.468L292.148 80.965C293.172 80.453 294.324 80.165 295.411 80.165C298.74 80.165 301.428 82.565 301.428 86.821C301.428 91.141 298.612 93.477 295.156 93.477C292.788 93.477 290.58 92.389 289.236 90.437L291.22 88.933C291.508 89.125 291.316 89.445 291.444 89.701C291.54 89.893 292.98 91.525 295.124 91.525C297.268 91.525 299.156 89.861 299.156 86.789C299.156 83.621 297.14 82.021 295.06 82.021C293.716 82.021 292.276 82.693 291.316 83.909L289.876 83.333L290.58 73.189ZM316.34 78.181C316.34 80.133 315.124 81.829 313.332 82.501C315.38 83.237 316.788 85.285 316.788 87.653C316.788 90.757 314.452 93.477 310.644 93.477C308.66 93.477 306.74 92.645 305.396 91.173L307.092 89.157C307.38 89.445 307.252 89.765 307.508 90.085C307.636 90.245 308.756 91.429 310.612 91.429C312.948 91.429 314.612 89.541 314.612 87.365C314.612 84.997 312.628 83.589 309.94 83.589C309.588 83.589 309.268 83.621 308.948 83.653V81.861C310.836 81.861 311.732 81.509 312.084 81.349C313.46 80.741 314.196 79.429 314.196 78.213C314.196 76.517 312.788 75.109 310.74 75.109C309.492 75.109 308.212 75.653 307.284 76.645L306.068 75.237C307.316 73.893 309.044 73.125 310.836 73.125C314.004 73.125 316.34 75.461 316.34 78.181Z" fill="#93AAB5"/>
<rect x="220.5" y="330.75" width="55.125" height="55.125" fill="#DEE3E6"/>
<path d="M241.631 348.782V368.782H239.391V351.566L235.391 352.75L234.879 351.502L240.095 348.782H241.631ZM250.559 351.918C251.743 349.902 253.855 348.686 256.127 348.686C259.391 348.686 261.919 351.182 261.919 354.286C261.919 357.166 259.871 359.182 258.399 360.558C256.959 361.902 254.655 363.886 252.991 366.798H261.343C261.471 366.798 261.567 366.766 261.695 366.67C261.759 366.606 261.919 366.446 262.111 366.51V368.75H250.399V367.342C252.062 364.014 253.919 361.966 256.191 359.918C257.631 358.606 259.679 356.878 259.679 354.446C259.679 352.302 257.983 350.67 255.871 350.67C254.143 350.67 252.927 351.726 252.447 352.462C252.286 352.718 252.351 352.942 252.159 353.198L250.559 351.918Z" fill="#93AAB5"/>
<rect x="220.5" y="220.5" width="55.125" height="55.125" fill="#DEE3E6"/>
<path d="M234.559 241.668C235.743 239.652 237.855 238.436 240.127 238.436C243.391 238.436 245.919 240.932 245.919 244.036C245.919 246.916 243.871 248.932 242.399 250.308C240.959 251.652 238.655 253.636 236.991 256.548H245.343C245.471 256.548 245.567 256.516 245.695 256.42C245.759 256.356 245.919 256.196 246.111 256.26V258.5H234.399V257.092C236.062 253.764 237.919 251.716 240.191 249.668C241.631 248.356 243.679 246.628 243.679 244.196C243.679 242.052 241.983 240.42 239.871 240.42C238.143 240.42 236.927 241.476 236.447 242.212C236.286 242.468 236.351 242.692 236.159 242.948L234.559 241.668ZM256.319 238.308C259.231 238.308 261.503 240.42 261.503 243.044C261.503 244.964 260.287 246.82 258.335 247.844C260.575 248.868 262.175 251.012 262.175 253.348C262.175 256.388 259.551 258.82 256.062 258.82C252.639 258.82 249.983 256.452 249.983 253.476C249.983 251.172 251.615 248.996 253.983 247.876C252.191 246.948 250.943 245.188 250.943 243.204C250.943 240.516 253.279 238.308 256.319 238.308ZM255.647 248.804C253.759 249.572 252.286 251.3 252.286 253.188C252.286 255.172 253.983 256.804 256.159 256.804C258.271 256.804 259.935 255.236 259.935 253.316C259.935 251.364 258.207 249.604 255.647 248.804ZM256.159 240.196C254.431 240.196 253.087 241.476 253.087 243.044C253.087 245.7 256.607 247.044 256.607 247.044C258.143 246.212 259.327 244.708 259.327 243.172C259.327 241.508 257.951 240.196 256.159 240.196Z" fill="#93AAB5"/>
<rect x="220.5" y="110.25" width="55.125" height="55.125" fill="#DEE3E6"/>
<path d="M242.079 128.282H243.967V140.762H246.527V142.746H243.967V148.25H241.631V142.746H233.599V141.05L242.079 128.282ZM241.663 131.834L235.807 140.762H241.663V131.834ZM258.079 128.282H259.967V140.762H262.527V142.746H259.967V148.25H257.631V142.746H249.599V141.05L258.079 128.282ZM257.663 131.834L251.807 140.762H257.663V131.834Z" fill="#93AAB5"/>
<rect x="220.5" width="55.125" height="55.125" fill="#DEE3E6"/>
<path d="M241.247 17.84C242.879 17.84 244.447 18.512 245.631 19.664L244.063 21.36C243.775 21.136 243.775 20.848 243.583 20.656C243.455 20.528 242.623 19.824 241.279 19.824C239.839 19.824 236.543 20.72 236.415 27.536C237.279 26.064 238.943 25.136 240.671 25.136C243.487 25.136 246.111 27.504 246.111 31.664C246.111 35.76 243.487 38.32 240.447 38.32C238.655 38.32 236.863 37.456 235.711 35.696C234.431 33.744 234.207 31.248 234.207 28.912C234.207 26.992 234.399 24.688 235.071 22.768C236.319 19.28 238.879 17.84 241.247 17.84ZM240.447 27.088C238.975 27.088 237.439 28.144 236.543 29.776C236.286 33.488 238.111 36.336 240.543 36.336C242.239 36.336 243.935 34.928 243.935 31.792C243.935 28.368 242.047 27.088 240.447 27.088ZM256.095 17.936C259.167 17.936 262.463 21.552 262.463 28.368C262.463 35.216 259.007 38.352 256.127 38.352C252.959 38.352 249.663 34.64 249.663 28.176C249.663 21.808 252.927 17.936 256.095 17.936ZM259.231 22.48C258.367 20.72 257.151 19.888 256.062 19.888C254.079 19.888 251.743 22.704 251.743 27.792C251.743 29.2 251.903 30.48 252.191 31.568L259.231 22.48ZM259.967 24.624L252.927 33.584C253.791 35.344 255.039 36.304 256.223 36.304C257.983 36.304 260.383 34.192 260.383 28.624C260.383 27.088 260.223 25.744 259.967 24.624Z" fill="#93AAB5"/>
<rect x="165.375" y="385.875" width="55.125" height="55.125" fill="#DEE3E6"/>
<path d="M198.09 408.931C198.09 410.883 196.874 412.579 195.082 413.251C197.13 413.987 198.538 416.035 198.538 418.403C198.538 421.507 196.202 424.227 192.394 424.227C190.41 424.227 188.49 423.395 187.146 421.923L188.842 419.907C189.13 420.195 189.002 420.515 189.258 420.835C189.386 420.995 190.506 422.179 192.362 422.179C194.698 422.179 196.362 420.291 196.362 418.115C196.362 415.747 194.378 414.339 191.69 414.339C191.338 414.339 191.018 414.371 190.698 414.403V412.611C192.586 412.611 193.482 412.259 193.834 412.099C195.21 411.491 195.946 410.179 195.946 408.963C195.946 407.267 194.538 405.859 192.49 405.859C191.242 405.859 189.962 406.403 189.034 407.395L187.818 405.987C189.066 404.643 190.794 403.875 192.586 403.875C195.754 403.875 198.09 406.211 198.09 408.931Z" fill="#93AAB5"/>
<rect x="165.375" y="275.625" width="55.125" height="55.125" fill="#DEE3E6"/>
<path d="M186.506 293.657V313.657H184.266V296.441L180.266 297.625L179.754 296.377L184.97 293.657H186.506ZM199.882 313.945C198.25 313.945 196.682 313.337 195.498 312.153L197.034 310.425C197.386 310.649 197.29 311.001 197.546 311.193C197.546 311.193 198.506 311.929 199.946 311.929C201.385 311.929 203.018 311.193 203.882 309.177C204.074 308.665 204.618 307.353 204.714 304.249C203.786 305.593 202.218 306.393 200.586 306.393C197.706 306.393 195.114 303.929 195.114 300.089C195.114 296.217 197.738 293.497 200.842 293.497C202.922 293.497 205.226 294.777 206.25 297.817C206.73 299.161 206.922 300.921 206.922 303.417C206.922 306.681 206.442 308.377 206.09 309.305C204.874 312.505 202.314 313.945 199.882 313.945ZM200.81 304.441C202.25 304.441 203.722 303.481 204.586 302.009C204.938 297.977 203.05 295.481 200.778 295.481C198.954 295.481 197.29 297.081 197.29 299.993C197.29 302.969 199.018 304.441 200.81 304.441Z" fill="#93AAB5"/>
<rect x="165.375" y="165.375" width="55.125" height="55.125" fill="#DEE3E6"/>
<path d="M190.09 188.431C190.09 190.383 188.874 192.079 187.082 192.751C189.13 193.487 190.538 195.535 190.538 197.903C190.538 201.007 188.202 203.727 184.394 203.727C182.41 203.727 180.49 202.895 179.146 201.423L180.842 199.407C181.13 199.695 181.002 200.015 181.258 200.335C181.386 200.495 182.506 201.679 184.362 201.679C186.698 201.679 188.362 199.791 188.362 197.615C188.362 195.247 186.378 193.839 183.69 193.839C183.338 193.839 183.018 193.871 182.698 193.903V192.111C184.586 192.111 185.482 191.759 185.834 191.599C187.21 190.991 187.946 189.679 187.946 188.463C187.946 186.767 186.538 185.359 184.49 185.359C183.242 185.359 181.962 185.903 181.034 186.895L179.818 185.487C181.066 184.143 182.794 183.375 184.586 183.375C187.754 183.375 190.09 185.711 190.09 188.431ZM196.33 183.439H206.442V185.455H198.218L197.898 191.215C198.922 190.703 200.074 190.415 201.161 190.415C204.49 190.415 207.178 192.815 207.178 197.071C207.178 201.391 204.362 203.727 200.906 203.727C198.538 203.727 196.33 202.639 194.986 200.687L196.97 199.183C197.258 199.375 197.066 199.695 197.194 199.951C197.29 200.143 198.73 201.775 200.874 201.775C203.018 201.775 204.906 200.111 204.906 197.039C204.906 193.871 202.89 192.271 200.81 192.271C199.466 192.271 198.026 192.943 197.066 194.159L195.626 193.583L196.33 183.439Z" fill="#93AAB5"/>
<rect x="165.375" y="55.125" width="55.125" height="55.125" fill="#DEE3E6"/>
<path d="M180.33 73.189H190.442V75.205H182.218L181.898 80.965C182.922 80.453 184.074 80.165 185.161 80.165C188.49 80.165 191.178 82.565 191.178 86.821C191.178 91.141 188.362 93.477 184.906 93.477C182.538 93.477 180.33 92.389 178.986 90.437L180.97 88.933C181.258 89.125 181.066 89.445 181.194 89.701C181.29 89.893 182.73 91.525 184.874 91.525C187.018 91.525 188.906 89.861 188.906 86.789C188.906 83.621 186.89 82.021 184.81 82.021C183.466 82.021 182.026 82.693 181.066 83.909L179.626 83.333L180.33 73.189ZM202.506 73.157V93.157H200.266V75.941L196.266 77.125L195.754 75.877L200.97 73.157H202.506Z" fill="#93AAB5"/>
<rect x="110.25" y="330.75" width="55.125" height="55.125" fill="#DEE3E6"/>
<path d="M131.381 348.782V368.782H129.141V351.566L125.141 352.75L124.629 351.502L129.845 348.782H131.381ZM145.845 348.686C148.917 348.686 152.213 352.302 152.213 359.118C152.213 365.966 148.757 369.102 145.877 369.102C142.709 369.102 139.413 365.39 139.413 358.926C139.413 352.558 142.677 348.686 145.845 348.686ZM148.981 353.23C148.117 351.47 146.901 350.638 145.812 350.638C143.829 350.638 141.493 353.454 141.493 358.542C141.493 359.95 141.653 361.23 141.941 362.318L148.981 353.23ZM149.717 355.374L142.677 364.334C143.541 366.094 144.789 367.054 145.973 367.054C147.733 367.054 150.133 364.942 150.133 359.374C150.133 357.838 149.973 356.494 149.717 355.374Z" fill="#93AAB5"/>
<rect x="110.25" y="220.5" width="55.125" height="55.125" fill="#DEE3E6"/>
<path d="M124.309 241.668C125.493 239.652 127.605 238.436 129.877 238.436C133.141 238.436 135.669 240.932 135.669 244.036C135.669 246.916 133.621 248.932 132.149 250.308C130.709 251.652 128.405 253.636 126.741 256.548H135.093C135.221 256.548 135.317 256.516 135.445 256.42C135.509 256.356 135.669 256.196 135.861 256.26V258.5H124.149V257.092C125.812 253.764 127.669 251.716 129.941 249.668C131.381 248.356 133.429 246.628 133.429 244.196C133.429 242.052 131.733 240.42 129.621 240.42C127.893 240.42 126.677 241.476 126.197 242.212C126.036 242.468 126.101 242.692 125.909 242.948L124.309 241.668ZM146.997 238.34C148.629 238.34 150.197 239.012 151.381 240.164L149.813 241.86C149.525 241.636 149.525 241.348 149.333 241.156C149.205 241.028 148.373 240.324 147.029 240.324C145.589 240.324 142.293 241.22 142.165 248.036C143.029 246.564 144.693 245.636 146.421 245.636C149.237 245.636 151.861 248.004 151.861 252.164C151.861 256.26 149.237 258.82 146.197 258.82C144.405 258.82 142.613 257.956 141.461 256.196C140.181 254.244 139.957 251.748 139.957 249.412C139.957 247.492 140.149 245.188 140.821 243.268C142.069 239.78 144.629 238.34 146.997 238.34ZM146.197 247.588C144.725 247.588 143.189 248.644 142.293 250.276C142.036 253.988 143.861 256.836 146.293 256.836C147.989 256.836 149.685 255.428 149.685 252.292C149.685 248.868 147.797 247.588 146.197 247.588Z" fill="#93AAB5"/>
<rect x="110.25" y="110.25" width="55.125" height="55.125" fill="#DEE3E6"/>
<path d="M131.829 128.282H133.717V140.762H136.277V142.746H133.717V148.25H131.381V142.746H123.349V141.05L131.829 128.282ZM131.413 131.834L125.557 140.762H131.413V131.834ZM140.309 131.418C141.493 129.402 143.605 128.186 145.877 128.186C149.141 128.186 151.669 130.682 151.669 133.786C151.669 136.666 149.621 138.682 148.149 140.058C146.709 141.402 144.405 143.386 142.741 146.298H151.093C151.221 146.298 151.317 146.266 151.445 146.17C151.509 146.106 151.669 145.946 151.861 146.01V148.25H140.149V146.842C141.812 143.514 143.669 141.466 145.941 139.418C147.381 138.106 149.429 136.378 149.429 133.946C149.429 131.802 147.733 130.17 145.621 130.17C143.893 130.17 142.677 131.226 142.197 131.962C142.036 132.218 142.101 132.442 141.909 132.698L140.309 131.418Z" fill="#93AAB5"/>
<rect x="110.25" width="55.125" height="55.125" fill="#DEE3E6"/>
<path d="M125.205 18.064H135.317V20.08H127.093L126.773 25.84C127.797 25.328 128.949 25.04 130.036 25.04C133.365 25.04 136.053 27.44 136.053 31.696C136.053 36.016 133.237 38.352 129.781 38.352C127.413 38.352 125.205 37.264 123.861 35.312L125.845 33.808C126.133 34 125.941 34.32 126.069 34.576C126.165 34.768 127.605 36.4 129.749 36.4C131.893 36.4 133.781 34.736 133.781 31.664C133.781 28.496 131.765 26.896 129.685 26.896C128.341 26.896 126.901 27.568 125.941 28.784L124.501 28.208L125.205 18.064ZM146.069 17.808C148.981 17.808 151.253 19.92 151.253 22.544C151.253 24.464 150.037 26.32 148.085 27.344C150.325 28.368 151.925 30.512 151.925 32.848C151.925 35.888 149.301 38.32 145.812 38.32C142.389 38.32 139.733 35.952 139.733 32.976C139.733 30.672 141.365 28.496 143.733 27.376C141.941 26.448 140.693 24.688 140.693 22.704C140.693 20.016 143.029 17.808 146.069 17.808ZM145.397 28.304C143.509 29.072 142.036 30.8 142.036 32.688C142.036 34.672 143.733 36.304 145.909 36.304C148.021 36.304 149.685 34.736 149.685 32.816C149.685 30.864 147.957 29.104 145.397 28.304ZM145.909 19.696C144.181 19.696 142.837 20.976 142.837 22.544C142.837 25.2 146.357 26.544 146.357 26.544C147.893 25.712 149.077 24.208 149.077 22.672C149.077 21.008 147.701 19.696 145.909 19.696Z" fill="#93AAB5"/>
<rect x="385.875" y="385.875" width="55.125" height="55.125" fill="#DEE3E6"/>
<path d="M407.966 403.939H419.262V405.187C417.918 408.259 416.638 411.363 415.454 414.531C414.302 417.603 413.246 420.739 412.286 423.875H409.758C410.942 420.291 412.222 416.739 413.566 413.219C414.494 410.819 415.486 408.419 416.478 406.051H407.966V403.939Z" fill="#93AAB5"/>
<rect x="385.875" y="275.625" width="55.125" height="55.125" fill="#DEE3E6"/>
<path d="M399.934 296.793C401.118 294.777 403.23 293.561 405.502 293.561C408.766 293.561 411.294 296.057 411.294 299.161C411.294 302.041 409.246 304.057 407.774 305.433C406.334 306.777 404.03 308.761 402.366 311.673H410.718C410.846 311.673 410.942 311.641 411.07 311.545C411.134 311.481 411.294 311.321 411.486 311.385V313.625H399.774V312.217C401.438 308.889 403.294 306.841 405.566 304.793C407.006 303.481 409.054 301.753 409.054 299.321C409.054 297.177 407.358 295.545 405.246 295.545C403.518 295.545 402.302 296.601 401.822 297.337C401.661 297.593 401.726 297.817 401.534 298.073L399.934 296.793ZM426.59 298.681C426.59 300.633 425.374 302.329 423.582 303.001C425.63 303.737 427.038 305.785 427.038 308.153C427.038 311.257 424.702 313.977 420.894 313.977C418.91 313.977 416.99 313.145 415.646 311.673L417.342 309.657C417.63 309.945 417.502 310.265 417.758 310.585C417.886 310.745 419.006 311.929 420.862 311.929C423.198 311.929 424.862 310.041 424.862 307.865C424.862 305.497 422.878 304.089 420.19 304.089C419.838 304.089 419.518 304.121 419.198 304.153V302.361C421.086 302.361 421.982 302.009 422.334 301.849C423.71 301.241 424.446 299.929 424.446 298.713C424.446 297.017 423.038 295.609 420.99 295.609C419.742 295.609 418.462 296.153 417.534 297.145L416.318 295.737C417.566 294.393 419.294 293.625 421.086 293.625C424.254 293.625 426.59 295.961 426.59 298.681Z" fill="#93AAB5"/>
<rect x="385.875" y="165.375" width="55.125" height="55.125" fill="#DEE3E6"/>
<path d="M410.59 188.431C410.59 190.383 409.374 192.079 407.582 192.751C409.63 193.487 411.038 195.535 411.038 197.903C411.038 201.007 408.702 203.727 404.894 203.727C402.91 203.727 400.99 202.895 399.646 201.423L401.342 199.407C401.63 199.695 401.502 200.015 401.758 200.335C401.886 200.495 403.006 201.679 404.862 201.679C407.198 201.679 408.862 199.791 408.862 197.615C408.862 195.247 406.878 193.839 404.19 193.839C403.838 193.839 403.518 193.871 403.198 193.903V192.111C405.086 192.111 405.982 191.759 406.334 191.599C407.71 190.991 408.446 189.679 408.446 188.463C408.446 186.767 407.038 185.359 404.99 185.359C403.742 185.359 402.462 185.903 401.534 186.895L400.318 185.487C401.566 184.143 403.294 183.375 405.086 183.375C408.254 183.375 410.59 185.711 410.59 188.431ZM420.382 203.695C418.75 203.695 417.182 203.087 415.998 201.903L417.534 200.175C417.886 200.399 417.79 200.751 418.046 200.943C418.046 200.943 419.006 201.679 420.446 201.679C421.885 201.679 423.518 200.943 424.382 198.927C424.574 198.415 425.118 197.103 425.214 193.999C424.286 195.343 422.718 196.143 421.086 196.143C418.206 196.143 415.614 193.679 415.614 189.839C415.614 185.967 418.238 183.247 421.342 183.247C423.422 183.247 425.726 184.527 426.75 187.567C427.23 188.911 427.422 190.671 427.422 193.167C427.422 196.431 426.942 198.127 426.59 199.055C425.374 202.255 422.814 203.695 420.382 203.695ZM421.31 194.191C422.75 194.191 424.222 193.231 425.086 191.759C425.438 187.727 423.55 185.231 421.278 185.231C419.454 185.231 417.79 186.831 417.79 189.743C417.79 192.719 419.518 194.191 421.31 194.191Z" fill="#93AAB5"/>
<rect x="385.875" y="55.125" width="55.125" height="55.125" fill="#DEE3E6"/>
<path d="M400.83 73.189H410.942V75.205H402.718L402.398 80.965C403.422 80.453 404.574 80.165 405.661 80.165C408.99 80.165 411.678 82.565 411.678 86.821C411.678 91.141 408.862 93.477 405.406 93.477C403.038 93.477 400.83 92.389 399.486 90.437L401.47 88.933C401.758 89.125 401.566 89.445 401.694 89.701C401.79 89.893 403.23 91.525 405.374 91.525C407.518 91.525 409.406 89.861 409.406 86.789C409.406 83.621 407.39 82.021 405.31 82.021C403.966 82.021 402.526 82.693 401.566 83.909L400.126 83.333L400.83 73.189ZM416.83 73.189H426.942V75.205H418.718L418.398 80.965C419.422 80.453 420.574 80.165 421.661 80.165C424.99 80.165 427.678 82.565 427.678 86.821C427.678 91.141 424.862 93.477 421.406 93.477C419.038 93.477 416.83 92.389 415.486 90.437L417.47 88.933C417.758 89.125 417.566 89.445 417.694 89.701C417.79 89.893 419.23 91.525 421.374 91.525C423.518 91.525 425.406 89.861 425.406 86.789C425.406 83.621 423.39 82.021 421.31 82.021C419.966 82.021 418.526 82.693 417.566 83.909L416.126 83.333L416.83 73.189Z" fill="#93AAB5"/>
<rect x="330.75" y="330.75" width="55.125" height="55.125" fill="#DEE3E6"/>
<path d="M351.881 348.782V368.782H349.641V351.566L345.641 352.75L345.129 351.502L350.345 348.782H351.881ZM368.329 348.782H370.217V361.262H372.777V363.246H370.217V368.75H367.881V363.246H359.849V361.55L368.329 348.782ZM367.913 352.334L362.057 361.262H367.913V352.334Z" fill="#93AAB5"/>
<rect x="330.75" y="220.5" width="55.125" height="55.125" fill="#DEE3E6"/>
<path d="M355.465 243.556C355.465 245.508 354.249 247.204 352.457 247.876C354.505 248.612 355.913 250.66 355.913 253.028C355.913 256.132 353.577 258.852 349.769 258.852C347.785 258.852 345.865 258.02 344.521 256.548L346.217 254.532C346.505 254.82 346.377 255.14 346.633 255.46C346.761 255.62 347.881 256.804 349.737 256.804C352.073 256.804 353.737 254.916 353.737 252.74C353.737 250.372 351.753 248.964 349.065 248.964C348.713 248.964 348.393 248.996 348.073 249.028V247.236C349.961 247.236 350.857 246.884 351.209 246.724C352.585 246.116 353.321 244.804 353.321 243.588C353.321 241.892 351.913 240.484 349.865 240.484C348.617 240.484 347.337 241.028 346.409 242.02L345.193 240.612C346.441 239.268 348.169 238.5 349.961 238.5C353.129 238.5 355.465 240.836 355.465 243.556ZM366.345 238.436C369.417 238.436 372.713 242.052 372.713 248.868C372.713 255.716 369.257 258.852 366.377 258.852C363.209 258.852 359.913 255.14 359.913 248.676C359.913 242.308 363.177 238.436 366.345 238.436ZM369.481 242.98C368.617 241.22 367.401 240.388 366.312 240.388C364.329 240.388 361.993 243.204 361.993 248.292C361.993 249.7 362.153 250.98 362.441 252.068L369.481 242.98ZM370.217 245.124L363.177 254.084C364.041 255.844 365.289 256.804 366.473 256.804C368.233 256.804 370.633 254.692 370.633 249.124C370.633 247.588 370.473 246.244 370.217 245.124Z" fill="#93AAB5"/>
<rect x="330.75" y="110.25" width="55.125" height="55.125" fill="#DEE3E6"/>
<path d="M352.329 128.282H354.217V140.762H356.777V142.746H354.217V148.25H351.881V142.746H343.849V141.05L352.329 128.282ZM351.913 131.834L346.057 140.762H351.913V131.834ZM367.497 128.09C369.129 128.09 370.697 128.762 371.881 129.914L370.313 131.61C370.025 131.386 370.025 131.098 369.833 130.906C369.705 130.778 368.873 130.074 367.529 130.074C366.089 130.074 362.793 130.97 362.665 137.786C363.529 136.314 365.193 135.386 366.921 135.386C369.737 135.386 372.361 137.754 372.361 141.914C372.361 146.01 369.737 148.57 366.697 148.57C364.905 148.57 363.113 147.706 361.961 145.946C360.681 143.994 360.457 141.498 360.457 139.162C360.457 137.242 360.649 134.938 361.321 133.018C362.569 129.53 365.129 128.09 367.497 128.09ZM366.697 137.338C365.225 137.338 363.689 138.394 362.793 140.026C362.536 143.738 364.361 146.586 366.793 146.586C368.489 146.586 370.185 145.178 370.185 142.042C370.185 138.618 368.297 137.338 366.697 137.338Z" fill="#93AAB5"/>
<rect x="330.75" width="55.125" height="55.125" fill="#DEE3E6"/>
<path d="M351.497 17.84C353.129 17.84 354.697 18.512 355.881 19.664L354.313 21.36C354.025 21.136 354.025 20.848 353.833 20.656C353.705 20.528 352.873 19.824 351.529 19.824C350.089 19.824 346.793 20.72 346.665 27.536C347.529 26.064 349.193 25.136 350.921 25.136C353.737 25.136 356.361 27.504 356.361 31.664C356.361 35.76 353.737 38.32 350.697 38.32C348.905 38.32 347.113 37.456 345.961 35.696C344.681 33.744 344.457 31.248 344.457 28.912C344.457 26.992 344.649 24.688 345.321 22.768C346.569 19.28 349.129 17.84 351.497 17.84ZM350.697 27.088C349.225 27.088 347.689 28.144 346.793 29.776C346.536 33.488 348.361 36.336 350.793 36.336C352.489 36.336 354.185 34.928 354.185 31.792C354.185 28.368 352.297 27.088 350.697 27.088ZM360.809 21.168C361.993 19.152 364.105 17.936 366.377 17.936C369.641 17.936 372.169 20.432 372.169 23.536C372.169 26.416 370.121 28.432 368.649 29.808C367.209 31.152 364.905 33.136 363.241 36.048H371.593C371.721 36.048 371.817 36.016 371.945 35.92C372.009 35.856 372.169 35.696 372.361 35.76V38H360.649V36.592C362.312 33.264 364.169 31.216 366.441 29.168C367.881 27.856 369.929 26.128 369.929 23.696C369.929 21.552 368.233 19.92 366.121 19.92C364.393 19.92 363.177 20.976 362.697 21.712C362.536 21.968 362.601 22.192 362.409 22.448L360.809 21.168Z" fill="#93AAB5"/>
</g>
<defs>
<clipPath id="clip0_2005_2">
<rect width="441" height="441" fill="white"/>
</clipPath>
</defs>
</svg>
